<?xml version="1.0" encoding="UTF-8"?>
<svg id="Calque_2" data-name="Calque 2" xmlns="http://www.w3.org/2000/svg" viewBox="0 0 273.96 254.18" preserveAspectRatio="none">
  <defs>
    <style>
      .cls-1 {
        fill: #87b878;
        stroke-width: 0px;
      }
    </style>
  </defs>
  <g id="oeil_bas" data-name="oeil bas">
    <g id="fond_bas" data-name="fond bas">
      <path class="cls-1" d="m3.26,47.15C10.58,28.95,30.48,19.6,48.99,13.13,82.23,1.53,119.34-6.16,152.15,6.61c16.74,6.51,31.1,17.91,47.11,26.06,12.49,6.35,26.01,10.74,37.79,18.33,15.68,10.11,27.66,25.82,33.24,43.62s4.75,37.54-2.34,54.79c-4.72,11.48-12.11,21.95-14.87,34.06-1.05,4.57-1.42,9.34-3.23,13.67-3.05,7.29-9.7,12.34-16.06,17.03-17.08,12.58-34.2,25.18-52.56,35.8-3.19,1.85-6.53,3.67-10.19,4.12-3.49.43-6.99-.43-10.39-1.29-30.6-7.77-61.47-17.39-86.93-36.07-19.12-14.02-34.37-32.56-49.41-50.89-5.22-6.37-10.51-12.83-13.9-20.34-2.45-5.43-3.85-11.26-5.23-17.05-1.38-5.77-2.95-11.53-4.11-17.34-.82-4.1-.27-7.94,0-12.07C1.79,87.81-.17,76.66.01,65.46c.1-6.23.91-12.5,3.25-18.31Z"/>
    </g>
  </g>
</svg>