<?xml version="1.0" encoding="UTF-8"?>
<svg id="Calque_2" data-name="Calque 2" xmlns="http://www.w3.org/2000/svg" viewBox="0 0 335.84 426.75" preserveAspectRatio="none">
  <defs>
    <style>
      .cls-1 {
        fill: #87b878;
        stroke-width: 0px;
      }
    </style>
  </defs>
  <g id="oeil_droit" data-name="oeil droit">
    <g id="fond_droit" data-name="fond droit">
      <path class="cls-1" d="m60.07,296.28c-11.64-16.66-24.76-32.72-31.85-51.77-7.58-20.36-7.73-42.64-12.16-63.91-3.77-18.09-10.64-35.45-14.08-53.61-3.44-18.16-3.08-38.06,6.7-53.74,11.02-17.67,31.64-26.66,46.48-41.27,11.1-10.93,19.91-25.68,34.76-30.36,9.05-2.86,18.83-1.38,28.2.12,27.69,4.44,55.41,8.89,82.66,15.48,18.85,4.56,37.9,10.35,53.41,22,17.1,12.85,28.48,31.74,38.94,50.4,12.77,22.77,24.91,46.17,31.75,71.37,8.55,31.47,8.51,64.52,9.63,97.11,1.52,44.2,4.95,90.27-12.49,130.91-3.05,7.1-6.88,14.16-12.97,18.92-5.81,4.53-13.15,6.57-20.36,8.08-16.09,3.35-32.53,4.54-48.92,5.71-22.21,1.59-44.42,3.19-66.63,4.78-3.61.26-7.29.51-10.81-.37-4.05-1.02-7.57-3.48-10.99-5.88-9.27-6.53-18.56-13.05-27.82-19.6-6.84-4.85-9.47-8.99-13.22-16.42-9.81-19.44-19.8-38.82-30.86-57.59-6.08-10.32-12.35-20.67-19.39-30.36Z"/>
    </g>
  </g>
</svg>