<?xml version="1.0" encoding="UTF-8"?>
<svg id="Calque_2" data-name="Calque 2" xmlns="http://www.w3.org/2000/svg" viewBox="0 0 279.7 251.48" preserveAspectRatio="none">
  <defs>
    <style>
      .cls-1 {
        fill: #ceca15;
      }

      .cls-1, .cls-2, .cls-3, .cls-4, .cls-5, .cls-6, .cls-7 {
        stroke-width: 0px;
      }

      .cls-2 {
        fill: #87b878;
      }

      .cls-3 {
        fill: none;
      }

      .cls-4 {
        fill: #c9c76f;
      }

      .cls-5 {
        fill: #ecc4e0;
      }

      .cls-6 {
        fill: #b4bba0;
      }

      .cls-7 {
        fill: #b1c742;
      }
    </style>
  </defs>
  <g id="oeil_bas" data-name="oeil bas">
    <g id="oeil_bas-2" data-name="oeil bas">
      <path class="cls-2" d="m257.75,139.94c-1.34-.01-2.67-.01-4.01-.01l-.12-.14c.59-2.07,1.66-4.14-2.23-4.09-.4.01-.8-.03-1.2-.11-1.64-.29-3.34-1.14-5.36-1.75,2.2-1.11,4.03-2.04,5.86-2.96l.04.04c-.34,2.51,1.16,2.99,3.24,3.15,2.13.15,2.66-1.09,2.43-2.7"/>
      <path class="cls-6" d="m245.69,177.66c-1.12-1.43-6.9-1.21-1.72-4.96.59-.42.6-1.81.67-2.77.3-4.25,2.71-7.02,5.27-10.29,1.46-1.85,4.56-5.89,2.55-10.4-1.29,2.51-2.45,4.43-4.84,5.3,1.73-5.56-1.87-10.45-1.58-15.76.02-.28-.33-.84-.46-.82-6.04.71-3-4.78-4.78-6.97-.28-2.01-.57-4.01-.86-6.02,3.27-1.76,4.28.15,4.17,2.89-.06,1.66.33,2.53,1.87,2.86s2.56-.36,3.07-1.81c.35-1.01.67-2.03,1.05-3.21,1.46,1.77,1.61,3.42.59,5.18-1.83.92-3.66,1.85-5.86,2.96,2.02.61,3.72,1.46,5.36,1.75l-.45,1.93c-.19,0-.39.03-.61.09,1.19,3.6-1.02,10.1,6.78,7.22"/>
      <path class="cls-6" d="m255.95,143.69c-4.01.66-2.45-1.94-2.21-3.76,1.34,0,2.67,0,4.01.01"/>
      <path class="cls-2" d="m254.97,128.93c-.31.71-.7,1.37-1.26,1.95l-.02.02c-.77.01-1.54.01-2.32.02h-.64l-.04-.04c1.02-1.76.87-3.41-.59-5.18-.38,1.18-.7,2.2-1.05,3.21-.51,1.45-1.53,2.14-3.07,1.81s-1.93-1.2-1.87-2.86c.11-2.74-.9-4.65-4.17-2.89-2.7-.49-3.01-2.59-3.25-4.77-.27-2.42-.58-4.82-.87-7.24h0c3.19.94,6.22,1.46,8.03-2.41.31-.66,1.19-1.43,1.85-1.49,2.84-.23,3.18-1.9,2.84-3.29"/>
      <path class="cls-2" d="m250.4,116.01c-.18-.24-.32-.61-.52-.64-.23-.03-.67.15-.75.35-.21.54.11.89.66.84.22-.02.4-.35.61-.55Z"/>
      <path class="cls-2" d="m248.9,122.96c.18.02.37.03.55.05-.03-.12-.02-.28-.09-.37-.05-.06-.21-.03-.32-.04-.05.12-.1.24-.14.36Z"/>
      <path class="cls-2" d="m247.31,121.01c.72-1.84.02-3.38-1.78-5.04-1.1,2.05-1.36,3.73-.28,5.34.55.82,1.76.46,2.06-.3Z"/>
      <path class="cls-2" d="m246.27,113.76c.72.04,1.22-.46.93-1.2-.12-.32-.72-.45-1.26-.76-.28.47-.72.89-.64,1.17.09.34.61.77.97.79Z"/>
      <path class="cls-6" d="m256.4,131.37c.23,1.61-.3,2.85-2.43,2.7-2.08-.16-3.58-.64-3.24-3.15h.64c.78,0,1.55,0,2.32,0h0l.33.18c-.1-.07-.2-.14-.31-.21.56-.58.95-1.24,1.26-1.95"/>
      <path class="cls-2" d="m255.91,144.83c-7.8,2.88-5.59-3.62-6.78-7.22.22-.06.42-.09.61-.09,1.76,0,2.12,2.63,3.88,2.27l.12.14c-.24,1.82-1.8,4.42,2.21,3.76"/>
      <path class="cls-2" d="m254.02,131.09c-.11-.06-.22-.12-.33-.19l.02-.02c.11.07.21.14.31.21Z"/>
      <path class="cls-6" d="m251.39,135.7c3.89-.05,2.82,2.02,2.23,4.09-1.76.36-2.12-2.27-3.88-2.27l.45-1.93c.4.08.8.12,1.2.11Z"/>
      <path class="cls-6" d="m253.69,130.9h0c-.77.01-1.54.01-2.32.02.78,0,1.55,0,2.32-.02Z"/>
      <path class="cls-2" d="m231.62,198.07c-3-.98-5.24,1.12-7.78,1.96l-.26-.25c-.37-1.4,1.13-3.28-1-4.3-2.06,1.01-1.27,4.71-4.63,4.44-.6-.05-1.01-.2-1.31-.43-1.07-.81-.64-2.54-1.48-3.74-1.29,4.28-6.01,5.23-7.7,9.44l-1.68-.14c.36-.75.46-1.72.02-2.86-1.61-4.19-3.46.67-5.07-.34.32-1.59.63-3.19.95-4.79.33-.33.61-.76.86-1.22.07-.11.13-.23.19-.35.19-.34.37-.7.57-1.03.64-1.06,1.45-1.87,3.07-1.5,3.81.88,5.64-.01,5.16-4.13,7.89-.55,12.07-6.89,9-13.65,1.29-2.17,3.86.81,5.16-1.28l.03-.03c1.62-.17,3.7.06,3.16-2.57-.64-3.05.57-5.28,2.28-7.72,1.97-2.82,3.17-6.15,2.67-9.8,2.52-.42,1.73-2.42,1.85-3.95.15-1.76,1.68-1.83,2.82-2.39,1.52-.75,1.52.42,1.86,1.35.13.37,1.18,1.22,1.03.8-.78-2.17,3.23-1.74,1.87-2.9-2.87-2.44-2.23-6.23-3.64-9.13-.1-.22-.22-.43-.35-.63-.19-.31-.42-.6-.68-.88.02-.21.04-.43.06-.64.19-1.7.57-3.33,2.15-4.42,1.78,2.19-1.26,7.68,4.78,6.97.13-.02.48.54.46.82-.29,5.31,3.31,10.2,1.58,15.76,2.39-.87,3.55-2.79,4.84-5.3,2.01,4.51-1.09,8.55-2.55,10.4-2.56,3.27-4.97,6.04-5.27,10.29-.07.96-.08,2.35-.67,2.77-5.18,3.75.6,3.53,1.72,4.96"/>
      <path class="cls-2" d="m242.88,180.41c-2.85-2.83-5.6-3.22-8.84-.76-.58.44-2.27-.59-2.03,1.11.08.59.35.87.7.97l-.41,1.77c-.63,2.75-2.98,3.35-5.51,3.95,3.39,2.48,7.62,3.57,7.93,8.33"/>
      <path class="cls-2" d="m229.21,193.83c.26,0,.51-.27.78-.43-.28-.16-.54-.42-.79-.41-.26,0-.51.28-.76.44.26.15.52.41.77.4Z"/>
      <path class="cls-2" d="m219.73,188.89l.18-.33-.21.3c-2.86,1.01-2.91,2.95-2.6,6.3,2.49-2.39,2.52-4.34,2.63-6.27Z"/>
      <path class="cls-6" d="m249.88,115.37c.2.03.34.4.52.64-.21.2-.39.53-.61.55-.55.05-.87-.3-.66-.84.08-.2.52-.38.75-.35Z"/>
      <path class="cls-6" d="m249.45,123.01c-.18-.02-.37-.03-.55-.05.04-.12.09-.24.14-.36.11.01.27-.02.32.04.07.09.06.25.09.37Z"/>
      <path class="cls-6" d="m248.54,105.77c.34,1.39,0,3.06-2.84,3.29-.66.06-1.54.83-1.85,1.49-1.81,3.87-4.84,3.35-8.03,2.4-.37-.06-.7-.16-1-.28-2.07-.86-2.47-3-3.02-5.01h0c.63-1.79.45-3.41-.02-4.97-.59-1.91-1.62-3.74-2.15-5.66-.25-.87-1.24-2.41-.19-2.31,4.86.46,1.83-3.98,3.57-5.65.26-.24.21-.63,0-1.04l2.55-.22"/>
      <path class="cls-6" d="m237.23,111.2c1.18-2.71,5.08-3.76,2.77-7.13-.68-.99-2.28-1.61-3.09-.71-2.16,2.42-1.03,4.92.32,7.84Z"/>
      <path class="cls-6" d="m245.53,115.97c1.8,1.66,2.5,3.2,1.78,5.04-.3.76-1.51,1.12-2.06.3-1.08-1.61-.82-3.29.28-5.34Z"/>
      <path class="cls-6" d="m247.2,112.56c.29.74-.21,1.24-.93,1.2-.36-.02-.88-.45-.97-.79-.08-.28.36-.7.64-1.17.54.31,1.14.44,1.26.76Z"/>
      <path class="cls-6" d="m234.72,195.78c-.31-4.76-4.54-5.85-7.93-8.33,2.53-.6,4.88-1.2,5.51-3.95,1.13.66,1.38,1.42,1.38,2.2,0,.43-.08.86-.12,1.29,0,.11-.02.21-.02.32-.02.11-.02.23-.02.34-.58.18-1.15.36-1.73.54.14.18.35.54.41.52.53-.21,1.04-.49,1.56-.75,1.03-.12,1.95-.46,2.56-1.35.77-1.12,2.58-2.23,1.87-3.45-.51-.89-1.93-2.32-3.77-1.68-.52.18-1.2.4-1.71.25-.35-.1-.62-.38-.7-.97-.24-1.7,1.45-.67,2.03-1.11,3.24-2.46,5.99-2.07,8.84.76"/>
      <path class="cls-4" d="m243.26,146.69c1.36,1.16-2.65.73-1.87,2.9.15.42-.9-.43-1.03-.8-.34-.93-.34-2.1-1.86-1.35-1.14.56-2.67.63-2.82,2.39-.12,1.53.67,3.53-1.85,3.95.08-2.49-1.5-3.79-3.49-4.48.1-1.38.98-1.81,1.69-1.97,7.86-1.77,7.03-3.26,4.78-10.36-.39-1.25-.41-1.24,1.77-.92h0c.26.29.49.58.69.88.13.21.24.42.35.63,1.41,2.9.77,6.69,3.64,9.13Z"/>
      <path class="cls-7" d="m239.94,124.97c.29,2.01.58,4.01.86,6.02-1.58,1.09-1.96,2.72-2.15,4.42-.03.21-.05.42-.07.64-2.18-.32-2.16-.33-1.77.92,2.25,7.1,3.08,8.59-4.78,10.36-.71.16-1.59.59-1.69,1.97,1.99.69,3.57,1.99,3.49,4.48.5,3.65-.7,6.98-2.67,9.8-1.71,2.44-2.92,4.67-2.28,7.72.54,2.63-1.54,2.4-3.16,2.57-.29-.47-.59-.93-.89-1.4-.17.18-.35.35-.53.53.47.3.93.6,1.39.9-1.3,2.09-3.87-.89-5.16,1.28-1.49.5-2.93,1.01-2.09,3.11.65,1.63-.36,2.56-1.61,3.18-3.29,1.62-4.51,5.68-8.19,7.15.97.07,1.93.14,2.89.21.48,4.12-1.35,5.01-5.16,4.13-1.62-.37-2.43.44-3.07,1.5-.2.33-.39.69-.57,1.03-.06.12-.12.24-.19.35-.26.46-.53.89-.87,1.22-2.69.93-3.18,5.13-6.54,4.78-4.72-.49-9.93,2.11-14.11-2.07-.51-.51-1.48-.77-1.73-.19-1.8,4.19-4.83,1.22-7.29,1.29-1.34.04-3.44.31-2.68-2.22.4-1.32-2.74-4.04,1.6-3.94,1.65.03,1.07-1.58.39-2.12-2.17-1.68-4.38-3.41-6.82-4.61-2.57-1.28-2.46.98-2.7,2.59-.01.06-1.09.19-1.31-.04-1.37-1.44-5.08-.09-4.46-3.98.23-1.45-1.34-1.71-2.55-1.53-.95.15-1.52.77-.78,1.72,3.24,4.16,2.98,6.2-2.99,5.45-1.33-.17-2.77,1.01-4.22,1.32-3.2.7-1.32,2.08-.54,3.34-2.3,2.02-3.68-.49-5.44-1.09-.02-1.03.43-2.83-1.48-1.85-1.42.72-2.72,1.04-4.21.99l-.13-.11c-.23-.24-.46-.49-.69-.73-.78-.1-1.55-.2-2.32-.3-.26-.01-.52-.01-.78-.02-1.47-.35-2.72-.67-3.78-1-4.94-1.55-5.54-3.08-3.31-6.1-2.37-2.23-5.74-.07-8.22-1.89-2.85-2.35-2.31-5.97-3.32-9-.61-1.83.94-2.14,1.99-1.73,3.63,1.43,7.64.28,11.24,1.86.88.38,2.27,1.47,2.92-.3.61-1.69-.6-2.37-1.99-2.81-.79-.25-1.64-.43-2.32-.87-4.85-3.17-11.26-4.08-13.2-11.33-.71-2.66-4.67-6.06-7.9-5.82-3.17.23-4.16-1.46-5.53-3.03-1.6.82-1.37,3.18-3.65,2.89-.34-2.46-.69-4.96-1.11-8.06,1.09.63,1.71,1.07,2.39,1.36,3.24,1.41,4.97.77,3.69-1.22-1.55-2.41-4.05-3.31-6.83-3.45-.28-.01-.58.27-.87.42-3.37,1.79-3.09-.56-2.22-2.28,1.19-2.37.44-3.54-1.94-5.08-.03,1.82.67,3.71-1.79,3.59-2.05-.11-2.45-1.33-2.47-3,.85-.15,1.91-.49.96-1.45-2.65-2.65-2.73-6.04-3.37-9.39-.43-2.27,1.37-3.66,1.36-5.63,0-.82.09-1.91-.83-2.13-.13-.03-.24-.05-.35-.07l.26-2.28c2.1.24,4.09.57,5.04,3-.32,3.51.3,7.71,3.16,8.97,6.31,2.77,8.03,9.29,10.99,13.87,4.43,6.84,10.03,11.24,16.69,14.27,4.94,2.25,7.92,6.4,11.68,9.53,7.46,6.22,14.94,11.73,23.99,15.53,5.4,2.26,11.8-1.61,16.39,3.49.26.29,1.79-.03,2.22-.51,2.43-2.71,5.49-1.66,8.31-1.46,4.04.28,7.83.9,11.79,2.8,4.31,2.07,9.31-.64,13.74-2.57,0,0,.02.02.03.02q4.17-.47,6.27-7.31c.77-.58,1.59-1.69,2.31-1.63,4.6.38,4.54-2.58,4.35-5.72.13-.16.27-.31.43-.45h.06c3.74-.32,2.77-3.92,3.91-5.96.47-.84-1.45-1.6-2.54-1.79-5.7-.97-10.74.77-14.83,4.59-3.13,2.93-6.27,2.79-9.41.01-1.79-1.57-2.68-5.4-5.02-5.4v-2.47c3.33.11,6.68-1,9.88-1.31,4.5-.42,9.67-.79,13.3-4.7,3.35-3.61,3.26-6.01-.75-8.72-.66-.45-2.02-.96-1.36-1.6,4.25-4.12,0-6.15-2.23-8.44,1.29-1.55,2.42-.3,3.47-.48,1.94-.32,2.5-3.02,1.9-3.12-3.28-.58-4.25-4.84-7.9-4.53-4.2.34-7.59-.57-8.4-5.59-.2-1.28-2.03-1.61-2.93-2.45-4.23-3.99-10.32-4.61-14.63-8.92-1.21-1.21-2.85-2.25-4.64-3l.32-.75c1.6.76,3.52.76,5.19-1.56.82-1.14,2.51-.83,3.67-.02,1.12.79,2.21,1.49,3.64,1.35,3.17-.32,5.35.18,3.99,4.23-.3.9-.06,2.06,1.14,2.45,1.12.35,1.91-.34,2.6-1.08,1.65-1.77,1.24-3.39.03-5.37-.52-.85-1.06-1.67-1.61-2.46l1.57-.65c.23.38.56.74.9,1.1.68.72,1.16,1.77,1.98,2.19,5.01,2.55,7.59,6.15,5.75,11.98-.37,1.21.15,2.45,1.29,2.95,1.17.51,1.73-.5,2.13-1.47.47-1.12-.48-3.2,1.34-3.28,1.72-.08,2.99,1.63,3.48,3.15,1.39,4.39,3.37,4.51,6.17,1.24,1.03-.13,2.07-.38,1.93-1.7-.02-.19-.05-.38-.09-.56l2.64-.25c1,4.12,4.41,7.93,1.71,12.51-3.08-.88-1.65-3.55-2.16-5.45-.27-.96-.5-2.07-1.81-1.89-1.06.15-.93,1.2-1.03,1.99-.43,3.4.65,6.8-.5,10.31-.49,1.48,1.38,3.5,3.5,3.24,1.97-.24,3.29-1.51,2.65-3.9-.08-.28-.14-.55-.19-.84-.07-.42-.13-.85-.18-1.28-.02-.14-.03-.28-.05-.43-.03-.28-.07-.57-.11-.85,2.01-.04,3.85.16,4.3-2.78,1.08-6.97-2.56-12.96-3.65-19.46-.24-1.47-1.48-1.65-2.71-1.52-1.61.17-2,1.23-1.81,2.39l-2.8.37c-.5-2.11-1.27-4.24-.09-6.39.28-.51-1.03-1.18-1.78-.3-.81.95-.69,2.67-2.42,2.83.48-2.12-.62-4.65.09-6.25,1.06-2.35.57-3.31-.46-3.88l-.15-2.47c.87-.01,1.8-.21,2.74-.39,3.5-.68,5.9,2.35,9.08,2.83-.61,3.73,2.27,6.31,3.46,9.48.33.85.53,1.75.5,2.72-.01.25.05.47.15.66.04.09.1.18.16.25.04.05.08.09.13.14.04.04.09.08.14.12.25.2.58.33.93.42s.75.12,1.13.1c.55,2.01.95,4.15,3.02,5.01.3.12.63.22,1,.29.29,2.42.6,4.82.87,7.24.24,2.18.55,4.28,3.25,4.77Zm-5.53,9.08l-.15-.43-.23.38.38.05Zm-47.92,65.74c.59.03,1.42.18,1.32-.79-.03-.32-.63-.59-1.04-.95-.43.35-.95.56-1.09.92-.26.63.34.8.81.82Zm-59.94-15.79c2.23,4.39,6.97,6,13.09,3.84-4.35-2.17-8.52-3.34-12.13-5.66-.97-.62-1.57.63-.96,1.82Z"/>
      <path class="cls-2" d="m240,104.07c2.31,3.37-1.59,4.42-2.77,7.13-1.35-2.92-2.48-5.42-.32-7.84.81-.9,2.41-.28,3.09.71Z"/>
      <path class="cls-4" d="m239.27,136.93c.13.2.25.41.35.63-.11-.21-.22-.42-.35-.63Z"/>
      <path class="cls-4" d="m238.59,136.05c.26.28.49.57.68.88-.2-.3-.43-.59-.69-.87h0s.01-.01.01-.01Z"/>
      <path class="cls-7" d="m238.58,136.05c.02-.22.04-.43.07-.64-.02.21-.04.43-.06.64h-.01Z"/>
      <path class="cls-2" d="m238.19,183.16c.71,1.22-1.1,2.33-1.87,3.45-.61.89-1.53,1.23-2.56,1.35,0,0-.09-.12-.16-.21-.02-.03-.05-.07-.06-.08,0,0,0,0,0,0h0c0-.12,0-.24,0-.35,0-.11.01-.21.02-.32.05-.42.12-.86.12-1.29,0-.78-.25-1.54-1.38-2.2l.41-1.77c.51.15,1.19-.07,1.71-.25,1.84-.64,3.26.79,3.77,1.68Z"/>
      <path class="cls-6" d="m235.55,87.81l-2.55.22c-.63-1.18-2.69-2.62-3.41-1.85-2.47,2.62-4.65.02-6.95.63,3-.77,1.39-3.8,2.97-5.6,1.69-1.91.22-4.35-.85-6.75l2.8-.39"/>
      <polygon class="cls-4" points="234.26 133.62 234.41 134.05 234.03 134 234.26 133.62"/>
      <path class="cls-2" d="m233.6,187.75c.07.09.16.21.16.21-.52.26-1.03.54-1.56.75-.06.02-.27-.34-.41-.52.58-.18,1.15-.36,1.73-.54h0s0,.01,0,.02l.06.08Z"/>
      <path class="cls-6" d="m233.68,185.7c0,.43-.07.87-.12,1.29.04-.43.12-.86.12-1.29Z"/>
      <path class="cls-2" d="m233.6,187.75l-.06-.08s.04.05.06.08Z"/>
      <path class="cls-6" d="m233.54,187.31c0,.11,0,.23,0,.34h0c0-.11,0-.23.02-.34Z"/>
      <path class="cls-2" d="m233.53,187.65h0s0,0,0,0h0Z"/>
      <path class="cls-2" d="m233,88.03c.22.41.27.8,0,1.04-1.74,1.67,1.29,6.11-3.57,5.65-1.05-.1-.06,1.44.19,2.31.53,1.92,1.56,3.75,2.15,5.66l-1.33.38c-.04-.13-.04-.28-.12-.36-.04-.04-.21.04-.33.07.04.13.08.25.12.38l-1.46.09c-1.19-3.17-4.07-5.75-3.46-9.48-3.18-.48-5.58-3.51-9.08-2.83-.94.18-1.87.38-2.74.39-1.44,0-2.7-.47-3.53-2.37,1.65-3.2-.49-4.17-2.88-5.32-1.21-.57-2.76-.4-4.02-.87-.76-.28-1.4-.78-1.8-1.82,2.65-1.56,5.84-.82,8.57-2.03,1.94,3.42,5.75,4.04,8.72,2.15.66-.42,1.27-.96,1.82-1.62,1.68-2.03,3.8-3.56,3.88-6.59.16.53.38,1.06.62,1.6,1.07,2.4,2.54,4.84.85,6.75-1.58,1.8.03,4.83-2.97,5.6,2.3-.61,4.48,1.99,6.95-.63.72-.77,2.78.67,3.41,1.85Z"/>
      <path class="cls-2" d="m231.78,102.69c.47,1.56.65,3.18.02,4.96-.38.02-.77-.01-1.13-.09-.35-.09-.68-.22-.93-.42-.05-.04-.1-.08-.14-.12-.05-.05-.09-.09-.13-.14-.07-.08-.12-.16-.16-.25-.1-.19-.16-.41-.15-.66.03-.97-.17-1.87-.5-2.72l1.46-.09.33-.09,1.33-.38Z"/>
      <path class="cls-2" d="m231.8,107.65h0c-.38.03-.78,0-1.13-.09.36.08.75.11,1.13.09Z"/>
      <path class="cls-6" d="m213.36,209.88c.7-2.78,1.4-5.56,2.33-9.24l.95-1.15c.3.23.71.38,1.31.43,3.36.27,2.57-3.43,4.63-4.44,2.13,1.02.63,2.9,1,4.3-.1.11-.22.21-.31.34,0,.03.18.21.22.21.13-.07.23-.19.35-.3,2.54-.84,4.78-2.94,7.78-1.96"/>
      <path class="cls-6" d="m230.45,103.07l-.33.09c-.04-.13-.08-.25-.12-.38.12-.03.29-.11.33-.07.08.08.08.23.12.36Z"/>
      <path class="cls-2" d="m229.6,107.02s.09.08.14.12c-.05-.04-.1-.08-.14-.12Z"/>
      <path class="cls-6" d="m229.99,193.4c-.27.16-.52.43-.78.43-.25,0-.51-.25-.77-.4.25-.16.5-.43.76-.44.25-.01.51.25.79.41Z"/>
      <path class="cls-4" d="m225.51,106.55c1.09,6.5,4.73,12.49,3.65,19.46-.45,2.94-2.29,2.74-4.3,2.78h-.01c-.08-.3-.12-.6-.11-.9,2.7-4.58-.71-8.39-1.71-12.51-.11-.43-.19-.86-.23-1.3-.19-1.91-1.1-4.09-1.69-6.13-.05-.18-.09-.35-.12-.53-.19-1.16.2-2.22,1.81-2.39,1.23-.13,2.47.05,2.71,1.52Z"/>
      <path class="cls-6" d="m227.56,74.07l-2.8.39c-.24-.54-.46-1.07-.62-1.6-.08,3.03-2.2,4.56-3.88,6.59-.55.66-1.16,1.2-1.82,1.62l-1.35-2.08c1.82,0,2.99-2.61,2.69-4.38-.17-.97-.28-3.66-2.3-3.66v-2.35"/>
      <path class="cls-2" d="m224.83,172.47c.3.47.6.93.89,1.4l-.03.03c-.46-.3-.92-.6-1.39-.9.18-.18.36-.35.53-.53Z"/>
      <path class="cls-1" d="m225.39,132.19c.64,2.39-.68,3.66-2.65,3.9-2.12.26-3.99-1.76-3.5-3.24,1.15-3.51.07-6.91.5-10.31.1-.79-.03-1.84,1.03-1.99,1.31-.18,1.54.93,1.81,1.89.51,1.9-.92,4.57,2.16,5.45,0,.3.03.6.11.9.04.28.08.57.12.85.02.15.03.29.05.43.05.43.11.86.18,1.28.05.29.11.56.19.84Z"/>
      <path class="cls-2" d="m223.58,199.78l.26.25c-.12.11-.22.23-.35.3-.04,0-.22-.18-.22-.21.09-.13.21-.23.31-.34Z"/>
      <path class="cls-7" d="m223.03,115.38l-2.64.25c-.19-.77-.62-1.34-1.78-.72-1.15-.13-1.79-.77-1.88-1.93.44-.21,1.1-.31,1.28-.66.76-1.5.54-3.01.18-4.53l2.8-.37c.03.18.07.35.12.53.59,2.04,1.5,4.22,1.69,6.13.04.44.12.87.23,1.3Z"/>
      <path class="cls-1" d="m218.52,160.02c1.09.19,3.01.95,2.54,1.79-1.14,2.04-.17,5.64-3.91,5.95.01,0,.01-.24.01-.24l-.07.25c-.16.14-.3.29-.43.45-.82-.12-1.67-.14-2.46-.37-5.21-1.54-6.27-.59-5.24,4.91.18.97.69,1.87,1.04,2.81q-2.1,6.84-6.27,7.31l.54-.63c-.12-.07-.24-.14-.35-.21-.08.28-.15.55-.22.82-4.43,1.93-9.43,4.64-13.74,2.57-3.96-1.9-7.75-2.52-11.79-2.8-2.82-.2-5.88-1.25-8.31,1.46-.43.48-1.96.8-2.22.51-4.59-5.1-10.99-1.23-16.39-3.49-9.05-3.8-16.53-9.31-23.99-15.53-3.76-3.13-6.74-7.28-11.68-9.53-6.66-3.03-12.26-7.43-16.69-14.27-2.96-4.58-4.68-11.1-10.99-13.87-2.86-1.26-3.48-5.46-3.16-8.97,1.78-2.08.45-4.79,1.43-7.06,1.06-2.43.32-4.85-1.6-6.14-2.19-1.46-3.1,1.63-4.76,2.35-3.97-3.34-.67-7.01-.36-10.47.59-6.56,3.06-12.84,3.12-19.52.02-1.99.85-3.13,3.24-3.36,6.52-.61,7.15-.98,5.07-6.75-1.05-2.93.11-6.67-2.86-8.94,4.01-2.92,11.29.1,13.29-6.92,2.05,1.35,3.85,3.48,6.89.4.42-.42,1.93-.58,3.62-.39,1.4.15,2.92.54,4.04,1.23.66.41.7,1.16.35,1.76-.54.94-1.45,1.37-2.53,1.16-1.85-.36-3.63-.19-3.62,2.08,0,2.54,2.26,2.82,4.03,2.44,5.34-1.15,10.22-1.09,15.48,1.33,3.07,1.41,5.65,3.51,8.55,5.06,4.8,2.57,8.11-.19,10.56-2.53,2.06-1.95,3.51-2.06,5.78-1.9,2.45.19,4.93-.01,7.4-.04.03.36.07.71.1,1.06-2.81,2.87-7.15,2.56-10.23,4.93-.91.69-3.22.12-2.53,2.13.59,1.72,2.46,2.23,4.2,1.55,2.02-.78,3.92-1.8,6.21-1.57,2.57.26,4.26.72,1.61,3.46-2.24,2.32-1.71,3.39,1.39,4.9,7.66,3.72,15.01,8.01,22.2,12.7,3.88,2.53,6.71,5.36,9.13,8.79.55.79,1.09,1.61,1.61,2.46,1.21,1.98,1.62,3.6-.03,5.37-.69.74-1.48,1.43-2.6,1.08-1.2-.39-1.44-1.55-1.14-2.45,1.36-4.05-.82-4.55-3.99-4.23-1.43.14-2.52-.56-3.64-1.35-1.16-.81-2.85-1.12-3.67.02-1.67,2.32-3.59,2.32-5.19,1.56-.74-.36-1.42-.89-1.96-1.43-3.25-3.23-6.85-2.98-10.65-2.53-4.44.54-8.51,1.66-10.67-4.5-1.21-3.46-6-2.79-9.33-3.59-1.95-1.64-4.5-1.36-6.67-1.49-7.37-.46-13.03-5.91-20.56-6.24-6.95-.3-10.41,2.1-11.91,8.68-1.15,5.09,2.69,7.4,4.19,10.98,2.79,7.4,4.84,15.11,8.66,22.22-2.56,1.73-2.73,2.36-1.03,5.63.83,1.61,1.42,3.42,2.55,4.79,2.51,3.04,5.44,6.58,9.37,6.52,3.35-.04,4.49.42,4.71,3.61.08,1.14,1.02,2.29,2.24,2.41,1.83.17,1.4-1.47,1.47-2.5.21-3.31,1.55-2.6,3.38-1.11.72.59,1.74.81,2.63,1.19.98.11,1.96.22,2.93.33.69,5.81,7.9,5.02,9.77,9.63,7.13.36,14.12,2.27,21.32,1.99.69.01,1.37.03,2.06.04,3.35,1.13,6.11,3.51,10.41,1.69.39-.16.74-.24,1.06-.24,2.34,0,3.23,3.83,5.02,5.4,3.14,2.78,6.28,2.92,9.41-.01,4.09-3.82,9.13-5.56,14.83-4.59Zm-24.01,9.2c-.63-.57-.92-1.06-1.23-1.07-.57-.03-1.43.03-1.67.39-.47.68.18,1.14.84,1.16.54.01,1.1-.24,2.06-.48Zm-71.23-100.31c.11-1.03-.48-1.99-1.38-2.48-4.14-2.25-8.78,2.55-12.86-.86-.82,1.19-1.62,2.38-2.44,3.56-.62.89-2.08,1.5-1.25,2.89.71,1.2,2.07.73,3.83.9,3.83-1.12,8.22-2.62,12.89-2.72.43-.01,1.16-.8,1.21-1.29Zm-20.59,46.48c1.58-.6.87-2.28,1.29-4.6-2.99-3.34-4.25-8.24-4.89-13.38-.12-.96-1.35-1.41-2.45-1.08-1.31.4-1.71,1.48-1.72,2.71-.02,5.32-.24,10.71,5.07,14.13,1,.64.81,2.95,2.7,2.22Z"/>
      <path class="cls-4" d="m220.53,175.18c3.07,6.76-1.11,13.1-9,13.65-.96-.07-1.92-.14-2.89-.21,3.68-1.47,4.9-5.53,8.19-7.15,1.25-.62,2.26-1.55,1.61-3.18-.84-2.1.6-2.61,2.09-3.11Z"/>
      <path class="cls-1" d="m220.48,116.19c.14,1.32-.9,1.57-1.93,1.7.02-.99.04-1.99.06-2.98,1.16-.62,1.59-.05,1.78.72.04.18.07.37.09.56Z"/>
      <path class="cls-6" d="m219.91,188.56l-.18.33-.03-.03.21-.3Z"/>
      <path class="cls-2" d="m219.78,74.61c.3,1.77-.87,4.38-2.69,4.38-.23,0-.46-.04-.71-.13-2.5-.91-4.48.61-6.64.04.7-1.85-1.04-4.53-3.26-5.2-.56-.16-1.12-.62-1.44-1.1-.15-.22.27-.82.44-1.25,2.16,1.25,4.27-1.48,6.27-.23,1.5.94,2.8.86,4.19.23.61-.28,1.12-.4,1.54-.4,2.02,0,2.13,2.69,2.3,3.66Z"/>
      <path class="cls-6" d="m219.7,188.86l.03.03c-.11,1.93-.14,3.88-2.63,6.27-.31-3.35-.26-5.29,2.6-6.3Z"/>
      <path class="cls-4" d="m218.61,114.91c-.02.99-.04,1.99-.06,2.98-2.8,3.27-4.78,3.15-6.17-1.24-.49-1.52-1.76-3.23-3.48-3.15-1.82.08-.87,2.16-1.34,3.28-.4.97-.96,1.98-2.13,1.47-1.14-.5-1.66-1.74-1.29-2.95,1.84-5.83-.74-9.43-5.75-11.98-.82-.42-1.3-1.47-1.98-2.19-.34-.36-.67-.72-.9-1.1-.52-.81-.63-1.67.35-2.74,1.32-1.45,2.51-1.08,3.88-.04,2.72,2.05,4.71,1.97,5.76-1.83.67-2.45,2.01-4.14,5.11-2.72.98.45,2.11.66,2.92,1.1,1.03.57,1.52,1.53.46,3.88-.71,1.6.39,4.13-.09,6.25l-.24,3c-.82.15-2.3-.36-2.06,1.1.33,2,2.19,2.47,3.9,2.92.41.67.82,1.35,1.23,2.03.09,1.16.73,1.8,1.88,1.93Z"/>
      <path class="cls-6" d="m217.09,78.99l1.35,2.08c-2.97,1.89-6.78,1.27-8.72-2.15h.01s0,0,.01-.02c2.16.57,4.14-.95,6.64-.04.25.09.48.13.71.13Z"/>
      <path class="cls-1" d="m218.19,107.79c.36,1.52.58,3.03-.18,4.53-.18.35-.84.45-1.28.66-.41-.68-.82-1.36-1.23-2.03.08-1.66-.53-3-1.84-4.02l.24-3c1.73-.16,1.61-1.88,2.42-2.83.75-.88,2.06-.21,1.78.3-1.18,2.15-.41,4.28.09,6.39Z"/>
      <path class="cls-6" d="m217.48,68.6v2.35c-.42,0-.93.12-1.54.4-1.39.63-2.69.71-4.19-.23-2-1.25-4.11,1.48-6.27.23-.17.43-.59,1.03-.44,1.25.32.48.88.94,1.44,1.1,2.22.67,3.96,3.35,3.26,5.2-.01,0-.03-.01-.04-.01l.02.03c-2.73,1.21-5.92.47-8.57,2.03-1.27-.11-2.21-.59-2.28-2.05,1-1.45,3.32-.62,4.32-2.71-3.76-1.82-6.42-3.91-.33-6.35.25-.1.12-.3-.14-.5l2.85-.89c1.6-.99.98-2.37,1.14-3.53,0,0,0,0,0,0h0c1.38-.24,2.54.16,3.63,1.05,1.27,1.03,2.07.59,2.4-.93"/>
      <path class="cls-4" d="m217.16,167.52s0,.24-.01.24h-.06s.07-.24.07-.24Z"/>
      <path class="cls-4" d="m216.66,168.22c.19,3.14.25,6.1-4.35,5.72-.72-.06-1.54,1.05-2.31,1.63-.35-.94-.86-1.84-1.04-2.81-1.03-5.5.03-6.45,5.24-4.91.79.23,1.64.25,2.46.37Z"/>
      <path class="cls-6" d="m210.29,209c-2.99.61-4.47,1.03-2.98-3.39l.15-.42c1.69-4.21,6.41-5.16,7.7-9.44.84,1.2.41,2.93,1.48,3.74l-.95,1.15c-3.78,2.57-2.33,6.73-5.45,8.27"/>
      <path class="cls-7" d="m213.66,106.93c1.31,1.02,1.92,2.36,1.84,4.02-1.71-.45-3.57-.92-3.9-2.92-.24-1.46,1.24-.95,2.06-1.1Z"/>
      <path class="cls-2" d="m210.24,208.91c3.12-1.54,1.67-5.7,5.45-8.27-.93,3.68-1.63,6.46-2.33,9.24"/>
      <path class="cls-4" d="m213.47,128.38c.6.1.04,2.8-1.9,3.12-1.05.18-2.18-1.07-3.47.48,2.23,2.29,6.48,4.32,2.23,8.44-.66.64.7,1.15,1.36,1.6,4.01,2.71,4.1,5.11.75,8.72-3.63,3.91-8.8,4.28-13.3,4.7-3.2.31-6.55,1.42-9.89,1.31-2.23-.07-4.46-.67-6.63-2.4-1.83-1.45-3.07,2.36-4.83,3.42-.69-.01-1.37-.03-2.06-.04-.2-1.07-.81-1.99-1.83-2.15-5.99-.92-10.24-4.49-13.97-8.92-.89-1.06-1.96-1.6-3.51-1.17-3.86,1.06-7.84.69-11.78.62-.97-.11-1.95-.22-2.93-.33-1.66-4.34-5.57-7.51-8.53-10.14-3.9-3.47-6.99-7.48-9.95-11.4-3.81-5.04-7.22-10.54-10.32-16.17-1.01-1.84-1.42-5.55-5.18-5.05-1.5-3.58-5.34-5.89-4.19-10.98,1.5-6.58,4.96-8.98,11.91-8.68,7.53.33,13.19,5.78,20.56,6.24,2.17.13,4.72-.15,6.67,1.49.37,1.78.88,3.55,1.05,5.35.16,1.7,1.13,3.35,2.34,3.57,6.73,1.22,12.64,5.8,20.47,3.1,2.41-.83,5.61-.4,8.43.78,1.79.75,3.43,1.79,4.64,3,4.31,4.31,10.4,4.93,14.63,8.92.9.84,2.73,1.17,2.93,2.45.81,5.02,4.2,5.93,8.4,5.59,3.65-.31,4.62,3.95,7.9,4.53Z"/>
      <path class="cls-7" d="m213.38,91.33l.15,2.47c-.81-.44-1.94-.65-2.92-1.1-3.1-1.42-4.44.27-5.11,2.72-1.05,3.8-3.04,3.88-5.76,1.83-1.37-1.04-2.56-1.41-3.88.04-.98,1.07-.87,1.93-.35,2.74l-1.57.65c-2.42-3.43-5.25-6.26-9.13-8.79-7.19-4.69-14.54-8.98-22.2-12.7-3.1-1.51-3.63-2.58-1.39-4.9,2.65-2.74.96-3.2-1.61-3.46-2.29-.23-4.19.79-6.21,1.57-1.74.68-3.61.17-4.2-1.55-.69-2.01,1.62-1.44,2.53-2.13,3.08-2.37,7.42-2.06,10.23-4.93,1.46.19,3.45-.17,4.3.65,3.28,3.18,11.33,1.09,10.26,9.11-.03.26.68.71,1.12.91,2.63,1.21,2.84,3.18,2.15,5.71-.28,1.03-.56,2.59,1.21,3.18.85-5.29,1.58-5.28,6.36-3.7,5.07,1.68,9.39,5.55,15.13,5.25.1,0,.2,0,.29.01.94.06,1.57.65,2.02,1.55,1.04,2.07,3.01,2.39,5.05,2.5.83,1.9,2.09,2.38,3.53,2.37Z"/>
      <path class="cls-2" d="m212.75,65.03c-.33,1.52-1.13,1.96-2.4.93-1.09-.89-2.25-1.29-3.63-1.06,0-1.07.01-2.14.01-3.21"/>
      <path class="cls-2" d="m173.79,213.68c.78-1.86,1.51-3.69.83-4.75-.06-.09-.12-.18-.2-.25-.02-.03-.04-.05-.07-.06-.07-.08-.16-.15-.26-.2-.07-.04-.14-.08-.21-.11-.65-.3-1.66-.4-3.16-.24h0c-.08-.07-.15-.13-.21-.19-.08-.07-.15-.14-.21-.2-1-1.07-.4-1.87.68-3.03,1.24-1.33,2.1.1,2.69-.07,2.91-.87,4.2,3.83,7.15,1.92,1.24-.81,2.44-2.23,3.94-1.39,2.27,1.28-1.58,2.64-.02,4.39,3.78-2.07,8.52-1.78,12.06-4.77.4,5.15,4.29,2.1,6.34,2.22.75.04,2.06-.64,2.65-1.9l1.68.14-.15.42c-1.49,4.42,0,4,2.98,3.39"/>
      <path class="cls-2" d="m194.72,216.15c-5.51,1.08-10.32-.25-14.38-4.2.67-.85,2,.56,2.62-.96-1.22-1.64-3.33-1.63-4.67-1.01-1.22.57-.12,2.35.17,3.6.47,2.08.83,4.17,1.24,6.26"/>
      <path class="cls-4" d="m206.97,83.64c2.39,1.15,4.53,2.12,2.88,5.32-2.04-.11-4.01-.43-5.05-2.5-.45-.9-1.08-1.49-2.02-1.55l.17-2.14c1.26.47,2.81.3,4.02.87Z"/>
      <path class="cls-2" d="m209.74,78.9s-.01.01-.01.02h-.01l-.02-.03s.03.01.04.01Z"/>
      <path class="cls-6" d="m206.73,61.69c0,1.07-.01,2.14-.01,3.21h0v.02c-1.38.81-2.42,1.73-1.14,3.53l-2.85.89c-.27-.2-.68-.39-1-.44-.12-1.31-1.25-1.65-2.07-2.39-.71-.64-1-1.38-1.07-2.15-.09-1.06.27-2.19.65-3.18.75-1.92,1.69.84,2.65.18"/>
      <polygon class="cls-2" points="206.72 64.9 206.72 64.91 206.71 64.9 206.72 64.9"/>
      <path class="cls-2" d="m206.72,64.91s0,0,0,0v-.02h0Z"/>
      <path class="cls-2" d="m206.71,64.92c-.16,1.16.46,2.54-1.14,3.53-1.28-1.8-.24-2.72,1.14-3.53Z"/>
      <path class="cls-6" d="m205.8,202.19c.44,1.14.34,2.11-.02,2.86-.59,1.26-1.9,1.94-2.65,1.9-2.05-.12-5.94,2.93-6.34-2.22.8-1.66,2.51-2.08,3.94-2.88,1.61,1.01,3.46-3.85,5.07.34Z"/>
      <path class="cls-7" d="m204.27,182.25l-.54.63s-.03-.02-.03-.02c.07-.27.14-.54.22-.82.11.07.23.14.35.21Z"/>
      <path class="cls-2" d="m202.72,69.34c.26.2.39.4.14.5-6.09,2.44-3.43,4.53.33,6.35-1,2.09-3.32,1.26-4.32,2.71-1.83-1.32-1.11-4.75-4.2-5.02.04-.7.07-1.4.11-2.1-.4-2.39.43-4.6.93-6.87h0l.25-.24,2.61-.31c.07.77.36,1.51,1.07,2.15.82.74,1.95,1.08,2.07,2.39h0c-.06.11-.12.21-.19.32.07-.11.13-.21.2-.31h0c.32.04.73.23,1,.43Z"/>
      <path class="cls-4" d="m202.95,82.77l-.17,2.14c-.09-.01-.19-.01-.29-.01-5.74.3-10.06-3.57-15.13-5.25-4.78-1.58-5.51-1.59-6.36,3.7-1.77-.59-1.49-2.15-1.21-3.18.69-2.53.48-4.5-2.15-5.71-.44-.2-1.15-.65-1.12-.91,1.07-8.02-6.98-5.93-10.26-9.11-.85-.82-2.84-.46-4.3-.65-.03-.35-.07-.7-.1-1.06-.09-1.27-.18-2.53-.27-3.8,1.94.32,3.56,2.55,5.87.84.22-.17.46-.24.68-.24.55,0,1.06.43,1.26,1.09,1.24,3.92,4.31,3.98,7.57,3.66.64,3.88,3.87,3.19,6.45,3.66,2.72,6.83,5.07,8.07,11.25,5.94,3.09.27,2.37,3.7,4.2,5.02.07,1.46,1.01,1.94,2.28,2.05.4,1.04,1.04,1.54,1.8,1.82Z"/>
      <path class="cls-7" d="m203.3,194.46c-.2.33-.38.69-.57,1.03.18-.34.37-.7.57-1.03Z"/>
      <path class="cls-2" d="m201.88,61.36c-.96.66-1.9-2.1-2.65-.18-.38.99-.74,2.12-.65,3.18l-2.61.31-.26.23c-1.36-.46-.69-2.05-1.65-2.92-.32,1.95-1.07,3.51-3.19,3.69-1.15.1-1.85-.65-1.99-1.73-.02-.14-.03-.27-.03-.39,0-1.87,2.06-1.94,3.05-2.95,1.07-1.09,3.77-1.07,2.7-3.73"/>
      <path class="cls-7" d="m202.54,195.84c-.25.46-.53.89-.86,1.22h0c.34-.33.61-.76.87-1.22Z"/>
      <polygon class="cls-2" points="201.72 68.9 201.72 68.91 201.71 68.9 201.72 68.9"/>
      <path class="cls-6" d="m201.72,68.91c-.07.1-.13.2-.2.31.07-.11.13-.21.19-.32h0Z"/>
      <path class="cls-4" d="m201.68,197.06c-.32,1.6-.63,3.2-.95,4.79.32-1.59.63-3.19.94-4.79h0Z"/>
      <path class="cls-4" d="m201.67,197.06c-.31,1.6-.62,3.2-.94,4.79-1.43.8-3.14,1.22-3.94,2.88-3.54,2.99-8.28,2.7-12.06,4.77-1.56-1.75,2.29-3.11.02-4.39-1.5-.84-2.7.58-3.94,1.39-2.95,1.91-4.24-2.79-7.15-1.92-.59.17-1.45-1.26-2.69.07-1.08,1.16-1.68,1.96-.68,3.03.06.07.13.14.21.2.06.06.13.12.21.19-1.77,1.39-3.4.66-5.02-.31.08-.88.15-1.77.23-2.66.45-.39.9-.77,1.36-1.15-.19-.2-.38-.39-.57-.59-.39.45-.77.9-1.16,1.35-2.8.58-3.34-2.83-5.62-3.18-.36-1.09-1.1-1.67-2.25-1.74-2.57-2.56-5.22-.47-7.83-.12-.69-2.61-3.59-1.34-4.91-2.82-.78-1.26-2.66-2.64.54-3.34,1.45-.31,2.89-1.49,4.22-1.32,5.97.75,6.23-1.29,2.99-5.45-.74-.95-.17-1.57.78-1.72,1.21-.18,2.78.08,2.55,1.53-.62,3.89,3.09,2.54,4.46,3.98.22.23,1.3.1,1.31.04.24-1.61.13-3.87,2.7-2.59,2.44,1.2,4.65,2.93,6.82,4.61.68.54,1.26,2.15-.39,2.12-4.34-.1-1.2,2.62-1.6,3.94-.76,2.53,1.34,2.26,2.68,2.22,2.46-.07,5.49,2.9,7.29-1.29.25-.58,1.22-.32,1.73.19,4.18,4.18,9.39,1.58,14.11,2.07,3.36.35,3.85-3.85,6.54-4.78Zm-43.58,1.03c3.06-.44,4.32,4.15,7.7,2.5-1.55-1.99-2.99-4.02-4.64-5.86-.79-.87-2.1-1.27-3.02-.13-.88,1.11-.52,3.56-.04,3.49Z"/>
      <polygon class="cls-6" points="195.97 64.67 195.72 64.91 195.71 64.91 195.71 64.9 195.97 64.67"/>
      <path class="cls-6" d="m195.71,64.9h0c-.5,2.28-1.33,4.49-.93,6.88-1.79-.75-5.3-.17-5.33-1.53-.15-6.52-3.69-2.57-6.03-2.31-2.58-.47-5.81.22-6.45-3.66,3.27.22,6.51.08,9.99-.65l1.89-.08c0,.12.01.25.03.39.14,1.08.84,1.83,1.99,1.73,2.12-.18,2.87-1.74,3.19-3.69.96.87.29,2.46,1.65,2.92Z"/>
      <path class="cls-6" d="m179.7,219.84c-.41-2.09-.77-4.18-1.24-6.26-.29-1.25-1.39-3.03-.17-3.6,1.34-.62,3.45-.63,4.67,1.01-.62,1.52-1.95.11-2.62.96,4.06,3.95,8.87,5.28,14.38,4.2"/>
      <path class="cls-7" d="m194.78,71.78c-.04.7-.07,1.4-.11,2.1-6.18,2.13-8.53.89-11.25-5.94,2.34-.26,5.88-4.21,6.03,2.31.03,1.36,3.54.78,5.33,1.53Z"/>
      <path class="cls-6" d="m194.6,56.87c1.07,2.66-1.63,2.64-2.7,3.73-.99,1.01-3.05,1.08-3.05,2.95l-1.89.08c-1.42-2.98-4.32-3.56-6.71-4.75-.26-.13-.49-.22-.7-.28-.11-.04-.21-.06-.3-.07-1.23-.2-1.65.82-1.53,2.38-.38.04-.75.08-1.13.13-.11.01-.23.02-.34.04-3.94.51-5.64-.47-2.71-4.33-1.95-1.06-3.38.94-5.29.81-.42-.02-.86-.15-1.34-.44,4.51-5.31,10.87-5.69,16.77-7.15"/>
      <path class="cls-7" d="m193.28,168.15c.31.01.6.5,1.23,1.07-.96.24-1.52.49-2.06.48-.66-.02-1.31-.48-.84-1.16.24-.36,1.1-.42,1.67-.39Z"/>
      <path class="cls-7" d="m189.25,156.75v2.47c-.31,0-.66.08-1.05.24-4.3,1.82-7.06-.56-10.41-1.69,1.76-1.06,3-4.87,4.83-3.42,2.17,1.73,4.4,2.33,6.63,2.4Z"/>
      <path class="cls-4" d="m187.81,199c.1.97-.73.82-1.32.79-.47-.02-1.07-.19-.81-.82.14-.36.66-.57,1.09-.92.41.36,1.01.63,1.04.95Z"/>
      <path class="cls-2" d="m180.25,58.88c2.39,1.19,5.29,1.77,6.71,4.75-3.48.73-6.72.87-9.99.65-3.26.32-6.33.26-7.57-3.66-.2-.66-.71-1.09-1.26-1.09l.11-1.97c1.91.13,3.34-1.87,5.29-.81-2.93,3.86-1.23,4.84,2.71,4.33.11-.02.23-.03.34-.04.33-.03.7-.02,1.17.11,0,.06.02.12.05.17.1.2.24.37.37.55.01-.02.01-.04.01-.06.03-.09.06-.18.08-.28-.08-.1-.17-.2-.26-.29,0-.01,0-.02-.02-.02h0c-.34-1.82.04-2.88,1.26-2.69.1.02.2.04.3.07.21.06.44.15.7.28Z"/>
      <path class="cls-2" d="m148.59,40.66c-.97-1.64-2.54-1.93-4.6-2.34,1.71,4.71.1,6.35-4.23,5.57l1.95-3.84c-1.55-.85-6.61-.32-1.42-3.8,1.61-1.08.59-2.18-.52-3.06"/>
      <path class="cls-2" d="m183.68,49.97c-5.9,1.46-12.26,1.84-16.77,7.15.48.29.92.42,1.34.44l-.11,1.97c-.22,0-.46.07-.68.24-2.31,1.71-3.93-.52-5.87-.84h-.01c-1.92.56-3.23-.12-5.16-.87-5.55-2.17-9.8-6.3-15.15-8.45-1.99-.81-4.93,1.66-6.48-1.59,1.22-.34,2.24-.84.9-2.15-1.18-1.16-1.03-2.52-.93-3.92,2.04-.32,2.77,2.64,4.95,1.98,1.27,2.86,3.28,1.89,5.37,1.15,2.14-.77.86-4.14,3.51-4.42"/>
      <path class="cls-2" d="m166.34,53.32c.88-.45,2.64-.97,2.22-2.16-.48-1.32-1.86-2.36-3.64-1.87-1.25.34-2.48,2.41-3.75.24-.07-.12-.13-.23-.18-.35-.72-1.65.5-2.98,1.58-4.01,1.09-1.05,1.11-1.86.37-3.01-.52-.81-1.19-1.26-2.03-.7-.82.55-2.53.06-2.27,1.98.44,3.26-2.07,3.66-4.33,4.36-1.38.42-4.16-.93-3.85,1.59.25,2.04,2.94,2.16,4.97,2.41,1.46.19,1.98-1.48,3.26-1.48.07,0,.14,0,.21.01.57,4.27,2.96,5.29,7.44,2.99Z"/>
      <path class="cls-2" d="m158.93,57.47c.1-.25.36-.57.28-.74-.08-.19-.46-.26-.72-.37-.11.25-.36.57-.29.75.08.19.47.25.73.36Z"/>
      <path class="cls-6" d="m178.01,61.24c.09.09.18.19.26.29-.02.1-.05.19-.08.28.02-.09.01-.23-.2-.59.01,0,.01.01.02.02Z"/>
      <path class="cls-6" d="m177.99,61.22c.21.36.22.5.2.59,0,.02,0,.04-.01.06-.13-.18-.27-.35-.37-.55-.03-.05-.05-.11-.05-.17.07.02.15.04.23.07Z"/>
      <path class="cls-6" d="m177.99,61.22s.02.01.02.02c0-.01,0-.02-.02-.02Z"/>
      <path class="cls-6" d="m177.99,61.21h0c-.08-.02-.16-.04-.23-.06-.02-.08-.02-.16-.04-.24l.27.3Z"/>
      <path class="cls-7" d="m175.73,157.73c-7.2.28-14.19-1.63-21.32-1.99-1.87-4.61-9.08-3.82-9.77-9.63,3.94.07,7.92.44,11.78-.62,1.55-.43,2.62.11,3.51,1.17,3.73,4.43,7.98,8,13.97,8.92,1.02.16,1.63,1.08,1.83,2.15Z"/>
      <path class="cls-7" d="m175.29,103.14l-.32.75c-2.82-1.18-6.02-1.61-8.43-.78-7.83,2.7-13.74-1.88-20.47-3.1-1.21-.22-2.18-1.87-2.34-3.57-.17-1.8-.68-3.57-1.05-5.35,3.33.8,8.12.13,9.33,3.59,2.16,6.16,6.23,5.04,10.67,4.5,3.8-.45,7.4-.7,10.65,2.53.54.54,1.22,1.07,1.96,1.43Z"/>
      <path class="cls-6" d="m160.05,214.44l-1.02-2.01c.12-.26.23-.52.34-.79-.23-.1-.51-.31-.69-.31l1.49-2.59c.2.12.4.25.6.4,1.21.33.96-.55.99-1.19l.05-.04c1.29-.05,2.59-.1,3.88-.15,1.62.97,3.25,1.7,5.02.31h0c1.5-.16,2.51-.06,3.16.24.07.03.14.07.21.11.1.06.18.13.26.2.03.01.05.03.07.06.08.07.15.16.2.25.68,1.06-.05,2.89-.83,4.75"/>
      <path class="cls-6" d="m174.09,208.42c.1.05.19.12.26.2-.08-.07-.16-.14-.26-.2Z"/>
      <path class="cls-6" d="m173.88,208.31c-.65-.3-1.66-.4-3.16-.23h0s0-.01,0-.01c1.5-.16,2.51-.06,3.16.24Z"/>
      <path class="cls-4" d="m170.29,207.68c.06.06.13.13.21.2-.08-.06-.15-.13-.21-.2Z"/>
      <path class="cls-6" d="m168.56,51.16c.42,1.19-1.34,1.71-2.22,2.16-4.48,2.3-6.87,1.28-7.44-2.99-.07-.01-.14-.01-.21-.01l2.3-1.14c.05.12.11.23.18.35,1.27,2.17,2.5.1,3.75-.24,1.78-.49,3.16.55,3.64,1.87Z"/>
      <path class="cls-7" d="m166.71,203.36c.19.2.38.39.57.59-.46.38-.91.76-1.36,1.15-.12-.14-.24-.26-.37-.39.39-.45.77-.9,1.16-1.35Z"/>
      <path class="cls-7" d="m165.92,205.1c-.08.89-.15,1.78-.23,2.66-1.29.05-2.59.1-3.88.15-.35-1.44.44-3.22-2.12-3.82-1.89-.44-.48-1.73.24-2.56,2.28.35,2.82,3.76,5.62,3.18.13.13.25.25.37.39Z"/>
      <path class="cls-2" d="m165.79,200.59c-3.38,1.65-4.64-2.94-7.7-2.5-.48.07-.84-2.38.04-3.49.92-1.14,2.23-.74,3.02.13,1.65,1.84,3.09,3.87,4.64,5.86Z"/>
      <path class="cls-6" d="m162.94,42.16c.74,1.15.72,1.96-.37,3.01-1.08,1.03-2.3,2.36-1.58,4.01l-2.3,1.14c-1.28,0-1.8,1.67-3.26,1.48-2.03-.25-4.72-.37-4.97-2.41-.31-2.52,2.47-1.17,3.85-1.59,2.26-.7,4.77-1.1,4.33-4.36-.26-1.92,1.45-1.43,2.27-1.98.84-.56,1.51-.11,2.03.7Z"/>
      <path class="cls-7" d="m161.59,58.93c.09,1.27.18,2.53.27,3.8-2.47.03-4.95.23-7.4.04-2.27-.16-3.72-.05-5.78,1.9-2.45,2.34-5.76,5.1-10.56,2.53-2.9-1.55-5.48-3.65-8.55-5.06-5.26-2.42-10.14-2.48-15.48-1.33-1.77.38-4.03.1-4.03-2.44,0-2.27,1.77-2.44,3.62-2.08,1.08.21,1.99-.22,2.53-1.16.35-.6.31-1.35-.35-1.76-1.12-.69-2.64-1.08-4.04-1.23l.26-2.18c1.61.19,3.27.26,5.13.41-.76-2.36-2.07-3.68-4.33-3.43-2.34.27-2.24-.85-1.87-2.51.47-2.16,1.77-1.49,2.95-.92,2.51,1.22,4.8,2.93,7.61,3.5l1.26-1.14c.56-.04,1.11-.07,1.67-.11.77.37,1.55.74,2.32,1.11,2.5,1.51,5.43-.02,7.97,1.15,1.55,3.25,4.49.78,6.48,1.59,5.35,2.15,9.6,6.28,15.15,8.45,1.93.75,3.24,1.43,5.16.87h.01Z"/>
      <path class="cls-2" d="m108.59,199.01c2.25-2.6,5.17-4.6,7.2-8.25h-5.93c-.27-1.1-.64-2.22-1.88-2.47-.73-.14-1.14.59-1.01,1.24.27,1.4,1.53,1.36,2.6,1.54.02,1.41,2.12,2.85.6,4.05-1.75,1.37-2.53-.95-3.41-1.84-2.63-2.72-6.64-4.45-6.69-9.17-.01-.94-1.52-1.07-2.53-1.11.31-.97.07-1.72-.38-2.39-.12-.17-.25-.34-.39-.5-.24-.28-.51-.56-.77-.83-.21-.22-.42-.44-.61-.66-.16-.18-.3-.37-.44-.56-.56-.82-.86-1.78-.4-3.09,1.72,1.7,4.2,1.66,5.5,3.81.92,1.52,2.64,1.28,4.06.94,2.18-.52.68-2.1.71-3.24.02-.85-.14-1.88.93-1.88.15,0,.32.02.51.06.93.19,2.38.34,1.99,1.6-.72,2.31,1.91,5.58-2.2,6.58,1.23,1.99,3.64-.71,4.38,1.77,1.22,4.1,2.7,2.09,4.15.14,2.48,1.82,5.85-.34,8.22,1.89-2.23,3.02-1.63,4.55,3.31,6.1,1.05.33,2.3.66,3.77,1.01.26.62.52.55.79.01.77.1,1.54.2,2.32.3.23.24.46.49.69.73l.13.11c.44,1.39-1.79,2.27-.92,3.79,2.7-.17,4.57-1.74,6.61-2.93,1.76.6,3.14,3.11,5.44,1.09,1.32,1.48,4.22.21,4.91,2.82,2.51,6.21,5.22-.26,7.83.12,1.15.07,1.89.65,2.25,1.74-.72.83-2.13,2.12-.24,2.56,2.56.6,1.77,2.38,2.12,3.82l-.05.04c-.33.39-.66.79-.99,1.19-.2-.15-.4-.28-.6-.4-4.04-2.45-8.17-.31-12.22.31-.87.14-1.54.71-2.23.07-.08-.07-.15-.16-.23-.26,1.54-2.87-1.07-4-2.6-4.48-3.53-1.13.74,2.7-1.5,2.81-.25.01-.49.37-.74.58-1.77-.23-3.62-.22-5.29-.75-2.36-.75-5.02-4.17-5.76,1.59-.2,1.58-4.7-.2-3.89,3.46"/>
      <path class="cls-2" d="m116.57,204.1c1.77.44.25,4.34,3.63,3.27,2.92-.92.62-3.47,1.85-4.83.21-.23.45-.44.68-.66,1.91,1.55-.64,3.74.71,5.52,1.36-.56,2.63-1.09,4-1.66-1.03-1.99-2.36-3.53-4.71-3.87-2.31-3.55-6.01-.54-8.8-1.84"/>
      <path class="cls-7" d="m161.76,207.95c-.03.64.22,1.52-.99,1.19.33-.4.66-.8.99-1.19Z"/>
      <path class="cls-6" d="m150.4,215.7c-.93-.44-1.75-1.25-2.59-2.02-1.4-1.28-2.83-2.46-4.87-1.63l-.76-2.62c1.06,0,2.34-1.02,3.3-.57.08.11.16.19.24.26.69.64,1.36.07,2.23-.07,4.05-.62,8.18-2.76,12.22-.31l-1.49,2.59s-.05,0-.07.02c-.19.09-.25.48-.36.74.26.12.52.23.78.34l1.02,2.01"/>
      <path class="cls-5" d="m159.37,211.64c-.11.27-.22.53-.34.79-.26-.11-.52-.22-.78-.34.11-.26.17-.65.36-.74.02-.01.05-.02.07-.02.18,0,.46.21.69.31Z"/>
      <path class="cls-4" d="m159.21,56.73c.08.17-.18.49-.28.74-.26-.11-.65-.17-.73-.36-.07-.18.18-.5.29-.75.26.11.64.18.72.37Z"/>
      <path class="cls-7" d="m157.68,199.79c-2.61-.38-5.32,6.09-7.83-.12,2.61-.35,5.26-2.44,7.83.12Z"/>
      <path class="cls-2" d="m146.04,215.54l1.77-1.86c.84.77,1.66,1.58,2.59,2.02"/>
      <path class="cls-2" d="m141.4,212.99c.55-.44,1.06-.74,1.54-.94,2.04-.83,3.47.35,4.87,1.63l-1.77,1.86"/>
      <path class="cls-6" d="m148.59,40.66c-2.65.28-1.37,3.65-3.51,4.42-2.09.74-4.1,1.71-5.37-1.15l.05-.04c4.33.78,5.94-.86,4.23-5.57,2.06.41,3.63.7,4.6,2.34"/>
      <path class="cls-4" d="m142.89,204.38c1.53.48,4.14,1.61,2.6,4.48h-.01c-.96-.45-2.24.57-3.3.57-.63,0-1.18-.37-1.53-1.66.25-.21.49-.57.74-.58,2.24-.11-2.03-3.94,1.5-2.81Z"/>
      <path class="cls-6" d="m125.71,212.07c-.81-3.66,3.69-1.88,3.89-3.46.74-5.76,3.4-2.34,5.76-1.59,1.67.53,3.52.52,5.29.75.35,1.29.9,1.66,1.53,1.66l.76,2.62c-.48.2-.99.5-1.54.94"/>
      <path class="cls-6" d="m139.77,33.19c1.11.88,2.13,1.98.52,3.06-5.19,3.48-.13,2.95,1.42,3.8l-1.95,3.84-.05.04c-2.18.66-2.91-2.3-4.95-1.98l-.06-.07c.73-4.08-1.25-6.19-4.83-6.91-.17-.04-.34-.07-.51-.1-1.78-.29-3.63-.12-5.45-.16-.23-.09-.45-.19-.68-.28.09.23.19.45.28.68,0,.61-.02,1.22-.04,1.83-.86-.99-1.73-1.97-2.6-2.95"/>
      <path class="cls-6" d="m134.31,34.68c-.05-.05-.25.05-.37.08.04.14.05.32.14.41.05.04.24-.06.37-.09-.04-.14-.05-.32-.14-.4"/>
      <path class="cls-4" d="m138.02,193.91c1.91-.98,1.46.82,1.48,1.85-2.04,1.19-3.91,2.76-6.61,2.93-.87-1.52,1.36-2.4.92-3.79,1.49.05,2.79-.27,4.21-.99Z"/>
      <path class="cls-7" d="m141.71,145.78c-.89-.38-1.91-.6-2.63-1.19-1.83-1.49-3.17-2.2-3.38,1.11-.07,1.03.36,2.67-1.47,2.5-1.22-.12-2.16-1.27-2.24-2.41-.22-3.19-1.36-3.65-4.71-3.61-3.93.06-6.86-3.48-9.37-6.52-1.13-1.37-1.72-3.18-2.55-4.79-1.7-3.27-1.53-3.9,1.03-5.63-3.82-7.11-5.87-14.82-8.66-22.22,3.76-.5,4.17,3.21,5.18,5.05,3.1,5.63,6.51,11.13,10.32,16.17,2.96,3.92,6.05,7.93,9.95,11.4,2.96,2.63,6.87,5.8,8.53,10.14Z"/>
      <path class="cls-4" d="m135.69,45.87c1.34,1.31.32,1.81-.9,2.15-2.54-1.17-5.47.36-7.97-1.15,1.93-1.25,4.54-1.44,6.1-3.95-.15-.02-.29-.04-.43-.05l.13-1.19c.52.34,1.19.44,2.08.2l.06.07c-.1,1.4-.25,2.76.93,3.92Z"/>
      <path class="cls-4" d="m139.64,187.84c-6.12,2.16-10.86.55-13.09-3.84-.61-1.19-.01-2.44.96-1.82,3.61,2.32,7.78,3.49,12.13,5.66Z"/>
      <path class="cls-2" d="m129.87,34.97c3.58.72,5.56,2.83,4.83,6.91-.89.24-1.56.14-2.08-.2-.54-.37-.91-1.01-1.18-1.86-.51-1.6-1.23-2.19-2.08-2.19l.51-2.66Z"/>
      <path class="cls-2" d="m134.31,34.68c.09.08.1.26.14.4-.13.03-.32.13-.37.09-.09-.09-.1-.27-.14-.41.12-.03.32-.13.37-.08"/>
      <path class="cls-2" d="m132.49,42.87c.14.01.28.03.43.05-1.56,2.51-4.17,2.7-6.1,3.95-.77-.37-1.55-.74-2.32-1.11,2.19-2.18,4.71-3.25,7.99-2.89Z"/>
      <path class="cls-4" d="m120.87,33.99c.87.98,1.74,1.96,2.6,2.95.36,1.39-1.49,3.12.1,4.11,2.05,1.28,2.04-1.41,3.07-2.16.98-.72,1.91-1.26,2.72-1.26.85,0,1.57.59,2.08,2.19.27.85.64,1.49,1.18,1.86l-.13,1.19c-3.28-.36-5.8.71-7.99,2.89-.56.04-1.11.07-1.67.11-.7.07-1.84-.35-1.26,1.14-2.81-.57-5.1-2.28-7.61-3.5-1.18-.57-2.48-1.24-2.95.92-.37,1.66-.47,2.78,1.87,2.51,2.26-.25,3.57,1.07,4.33,3.43-1.86-.15-3.52-.22-5.13-.41-.14-.01-.28-.03-.42-.05-2.23-.29-3.97-1.15-2.84-3.84.74-1.78-.06-2.82-1.29-3.81-2.27-1.83-1.61,1.52-2.47,1.47-2.47-.15-4.83-.38-6.21,2.28,0,0-.1-.08-.1-.08.02-1.4.39-3.15-2.07-2.09-.61-.61-1.22-1.23-1.84-1.85-.39-1.35-.78-2.71-1.18-4.07l.06-.07c2.04-.86,4.34-1.09,2.76-4.65-1.36-3.09,1.79-1.95,3.23-2.25.13.05.25.11.38.16-.11-.07-.21-.15-.32-.22.07-.66.35-1.68.98-1.36,4.23,2.16,4.63-.66,5-3.63"/>
      <path class="cls-4" d="m109.81,30.37c.73,2.98-2.12,4.95-2.11,7.92,1-2.42,3.72-2.02,5.21-3.57"/>
      <path class="cls-4" d="m129.88,193.75c.27,0,.53,0,.79.01-.27.54-.53.61-.79-.01Z"/>
      <path class="cls-2" d="m129.87,34.97l-.51,2.66c-.81,0-1.74.54-2.72,1.26-1.03.75-1.02,3.44-3.07,2.16-1.59-.99.26-2.72-.1-4.11.02-.61.03-1.22.04-1.83.14-.13.27-.27.4-.4,1.82.04,3.67-.13,5.45.16.17.03.34.06.51.1Z"/>
      <path class="cls-4" d="m125.42,172.77c1.39.44,2.6,1.12,1.99,2.81-.65,1.77-2.04.68-2.92.3-3.6-1.58-7.61-.43-11.24-1.86-1.05-.41-2.6-.1-1.99,1.73,1.01,3.03.47,6.65,3.32,9-1.45,1.95-2.93,3.96-4.15-.14-.74-2.48-3.15.22-4.38-1.77,4.11-1,1.48-4.27,2.2-6.58.39-1.26-1.06-1.41-1.99-1.6-.19-.04-.36-.06-.51-.06l1.6-2.15c.58.5,1.38.57,2.37.27,1.17-.17.55-.66.2-1.11-.83-.84-1.93-.87-3.01-.96-1.01-1.78-2.18-3.24-4.58-2.78-2.32.43-2.58,2.12-2.59,4h-.02s0,.01-.02.01c-2.19-.42-1.84-1.66-1.26-3.31.56-1.58,3.3-3.09,1.4-4.69-1.82-1.54-4.46-2.17-7.1-2.15-2.41.02-4.42,3.7-6.49,1.63-1.4-1.4,1.15-3.92,1.44-6.18.24-1.95-.42-2.67-1.29-3.65-1.12-1.27-1.73-2.17.59-2.58.87-.15,1.7-.62,1.26-1.66-.46-1.12-1.62-.04-1.97-.24-3.85-2.16-8.27-3.89-8.61-9.31-.9-4.09,2.15-2.62,4-2.85.02,1.67.42,2.89,2.47,3,2.46.12,1.76-1.77,1.79-3.59,2.38,1.54,3.13,2.71,1.94,5.08-.87,1.72-1.15,4.07,2.22,2.28.29-.15.59-.43.87-.42,2.78.14,5.28,1.04,6.83,3.45,1.28,1.99-.45,2.63-3.69,1.22-.68-.29-1.3-.73-2.39-1.36.42,3.1.77,5.6,1.11,8.06,2.28.29,2.05-2.07,3.65-2.89,1.37,1.57,2.36,3.26,5.53,3.03,3.23-.24,7.19,3.16,7.9,5.82,1.94,7.25,8.35,8.16,13.2,11.33.68.44,1.53.62,2.32.87Zm-22.54-6.12c.05-.13.09-.26.13-.39l-.42-.15c-.05.13-.16.33-.12.37.1.09.27.11.41.17Zm-12.4-8.75c.01-.11-.12-.24-.19-.36-.02.22-.04.45-.06.67.08-.1.24-.2.25-.31Z"/>
      <path class="cls-6" d="m122.73,201.87c2.35.34,3.68,1.88,4.71,3.87-1.37.57-2.64,1.1-4,1.66-1.35-1.78,1.2-3.97-.71-5.52h0Z"/>
      <path class="cls-2" d="m123.91,34.71c-.13.13-.26.27-.4.4-.09-.23-.19-.45-.28-.68.23.09.45.19.68.28Z"/>
      <path class="cls-7" d="m121.9,66.43c.9.49,1.49,1.45,1.38,2.48-.05.49-.78,1.28-1.21,1.29-4.67.1-9.06,1.6-12.89,2.72-1.76-.17-3.12.3-3.83-.9-.83-1.39.63-2,1.25-2.89.82-1.18,1.62-2.37,2.44-3.56,4.08,3.41,8.72-1.39,12.86.86Z"/>
      <path class="cls-2" d="m122.83,45.87l-1.26,1.14c-.58-1.49.56-1.07,1.26-1.14Z"/>
      <path class="cls-6" d="m113.93,200.03c2.79,1.3,6.49-1.71,8.8,1.84h0c-.23.23-.47.44-.68.67-1.23,1.36,1.07,3.91-1.85,4.83-3.38,1.07-1.86-2.83-3.63-3.27"/>
      <path class="cls-6" d="m94.14,190.27c-.62-.58-.25-1.43-.41-2.38l.02-.02q5.03-1.39,3.04-4.13l.74-.74h.01c1.01.04,2.52.17,2.53,1.11.05,4.72,4.06,6.45,6.69,9.17.88.89,1.66,3.21,3.41,1.84,1.52-1.2-.58-2.64-.6-4.05l.29-.31h5.93c-2.03,3.65-4.95,5.65-7.2,8.25"/>
      <path class="cls-6" d="m107.07,199.16c-1.92-4.99-6.37-7.74-10.87-8.23-1.11-.12-1.73-.36-2.06-.66"/>
      <path class="cls-6" d="m112.91,34.72c-1.49,1.55-4.21,1.15-5.21,3.57-.01-2.97,2.84-4.94,2.11-7.92"/>
      <path class="cls-7" d="m112.08,49.96l-.26,2.18c-1.69-.19-3.2-.03-3.62.39-3.04,3.08-4.84.95-6.89-.4-2,7.02-9.28,4-13.29,6.92,2.97,2.27,1.81,6.01,2.86,8.94,2.08,5.77,1.45,6.14-5.07,6.75-2.39.23-3.22,1.37-3.24,3.36-.06,6.68-2.53,12.96-3.12,19.52-.31,3.46-3.61,7.13.36,10.47.26,2.72-.98,5.03-2.18,7.56.68.13,1.38.2,2.07.29l-.26,2.28c-1.49-.2-.29,1.2-.57,1.71-.93,1.68-3.05,1.72-4.53,2.11-1.26.33-.96-.92-1.06-1.96-.02-.16-.04-.33-.09-.48-.04-.15-.11-.29-.2-.4-.05-.07-.09-.12-.15-.16.9-.73.26-1.46,0-2.19.82-.63.87-1.26-.02-1.87-.62-3.47,1.95-8.58-5.53-8.77,3.33-2.4.72-4.97,1.44-7.29l.26.24-.23-.27c-.13-1.78.35-3.04,2.15-3.97,4.34-2.23,5.5-6.23,1.9-8.87-2.46-1.81-.82-2.13-.4-3.52.96-3.23,2.73-6.52.54-9.96,1.29.17,1.59-.58,1.53-1.65.91-.03,1.73-.26,2.32-1.04,1.43-.06,2.24-1.17,2.33-2.23.29-3.5,2.49-4.23,6.14-4.09-2.65-1.27-3.18-2.51-2.89-3.73.07-.29.19-.58.33-.86.05-.1.1-.19.15-.29.16-.29.35-.57.53-.86.07-.09.13-.19.19-.29.26-.38.51-.75.71-1.13.01,0,0-.01,0-.01.11-.19.2-.37.28-.56l.02-.02s.14-.08.14-.08c.71.09,1.35.01,1.66-.77,2.71-.7,3.28-3.21,4.42-5.24,1,.07,1.82-.08,1.63-1.4.82-.12,1.65-.24,2.47-.37,2.54,1.86,3.65.8,3.94-1.94,1.38-2.66,3.74-2.43,6.21-2.28.86.05.2-3.3,2.47-1.47,1.23.99,2.03,2.03,1.29,3.81-1.13,2.69.61,3.55,2.84,3.84.14.02.28.04.42.05Z"/>
      <path class="cls-7" d="m109.92,171.61c.35.45.97.94-.2,1.11.07-.37.14-.74.2-1.11Z"/>
      <path class="cls-2" d="m109.92,171.61c-.06.37-.13.74-.2,1.11-.99.3-1.79.23-2.37-.27-.36-.3-.64-.76-.83-1.38.14-.13.27-.27.39-.42,1.08.09,2.18.12,3.01.96Z"/>
      <path class="cls-6" d="m109.86,190.76l-.29.31c-1.07-.18-2.33-.14-2.6-1.54-.13-.65.28-1.38,1.01-1.24,1.24.25,1.61,1.37,1.88,2.47Z"/>
      <path class="cls-4" d="m107.35,172.45l-1.6,2.15c-1.07,0-.91,1.03-.93,1.88-.03,1.14,1.47,2.72-.71,3.24-1.42.34-3.14.58-4.06-.94-1.3-2.15-3.78-2.11-5.5-3.81l.05-2c1.96.02,3.82-.32,5.1-1.09.01,0,.03.01.04.01v-.02c2.26-.26,4.52-.53,6.78-.8.19.62.47,1.08.83,1.38Z"/>
      <path class="cls-2" d="m106.91,170.65c-.12.15-.25.29-.39.42-2.26.27-4.52.54-6.78.8.01-1.88.27-3.57,2.59-4,2.4-.46,3.57,1,4.58,2.78Z"/>
      <path class="cls-2" d="m94.83,24.99c.31,1.57-3,4.84.88,4.31,2.04-.28,6.36-2.11,6-6.42"/>
      <path class="cls-2" d="m82.77,29.95c2.87-.55,7.27,3.18,8.15-2.92"/>
      <path class="cls-2" d="m105.75,25.9c-.37,2.97-.77,5.79-5,3.63-.63-.32-.91.7-.98,1.36l-.06.06c-1.44.3-4.59-.84-3.23,2.25,1.58,3.56-.72,3.79-2.76,4.65-1.49-3.35-4.07,0-5.95-.97-.3-1.91.33-4.27-2.7-4.88l-1.71.32"/>
      <path class="cls-2" d="m93.13,34.06c.55-.65-.06-1.31-.63-1.58-1.53-.71-2.39.24-3.42,1.82,1.69.42,3.02.99,4.05-.24Z"/>
      <path class="cls-2" d="m94.14,190.27c.33.3.95.54,2.06.66,4.5.49,8.95,3.24,10.87,8.23"/>
      <path class="cls-4" d="m103.98,110.79c-.42,2.32.29,4-1.29,4.6-1.89.73-1.7-1.58-2.7-2.22-5.31-3.42-5.09-8.81-5.07-14.13,0-1.23.41-2.31,1.72-2.71,1.1-.33,2.33.12,2.45,1.08.64,5.14,1.9,10.04,4.89,13.38Z"/>
      <path class="cls-2" d="m103.01,166.26c-.04.13-.08.26-.13.39-.14-.06-.31-.08-.41-.17-.04-.04.07-.24.12-.37l.42.15Z"/>
      <path class="cls-6" d="m101.71,22.88c.36,4.31-3.96,6.14-6,6.42-3.88.53-.57-2.74-.88-4.31"/>
      <path class="cls-2" d="m100.09,31.11c-.13-.05-.25-.11-.38-.16l.06-.06c.11.07.21.15.32.22Z"/>
      <path class="cls-2" d="m99.84,163.88c1.9,1.6-.84,3.11-1.4,4.69-.58,1.65-.93,2.89,1.26,3.31-1.28.77-3.14,1.11-5.1,1.09-2.58-.02-5.32-.66-7.11-1.75-1.09-.67-1.83-1.51-1.96-2.48-.73-5.49-2.39-1.4-3.79-.85h0s-.01-.01-.01-.01c-.22-.21-.43-.41-.64-.63-.09.17-.18.33-.26.49l-2.18.3c-.29-1.3-.18-2.58,1.18-3.82-4.01-.35-7.44-4.42-8.39-8.53-.5-2.19-2.34-5.95-4.24-5.32-1.88.62-2.38.63-2.28-.86.32-4.63-2.37-1.7-4.14-1.61.13-.77.11-1.45.38-1.98,1.08-2.09-.68-2.99-1.7-4.17-.24-.28-.52-.4-.81-.4l-.28-2.87c.21,0,.45-.08.72-.27,1.27-.9.51-2.24.05-3.57-.11-.33-.25-.67-.39-1l2.88-.63c2.46-2.46,5.14-3.03,8.11-2.11.11.06.22.12.34.18-.11-.07-.22-.13-.33-.19-.13-.82-.12-1.72-.25-2.53l2.91-.68c.72,3.8,2.21,7.52,2.55,11.36.07.86,1.72.68,2.71.7.34,5.42,4.76,7.15,8.61,9.31.35.2,1.51-.88,1.97.24.44,1.04-.39,1.51-1.26,1.66-2.32.41-1.71,1.31-.59,2.58.87.98,1.53,1.7,1.29,3.65-.29,2.26-2.84,4.78-1.44,6.18,2.07,2.07,4.08-1.61,6.49-1.63,2.64-.02,5.28.61,7.1,2.15Zm-3.39,3.78c-.96-1.75-3.11-2.03-4.57-3.11-.88-.64-2.16.6-2.09,1.4.17,1.7,1.58,2.71,3.13,3.34,1.49.6,2.47-.21,3.53-1.63Zm-31.33-22.57c.46-2.95.5-5.17-1.39-7.01-.21-.21-1.19-.08-1.29.13-.98,2.12,1.29,3.43,1.43,5.32.02.36.52.68,1.25,1.56Z"/>
      <path class="cls-2" d="m99.74,171.87v.02l-.02-.02h.02Z"/>
      <path class="cls-4" d="m99.74,171.89s-.03-.01-.04-.01c.01,0,.01-.01.02-.01l.02.02Z"/>
      <path class="cls-2" d="m96.68,43.84c2.46-1.06,2.09.69,2.07,2.09-.98.02-1.84-.26-2.49-1.04l.42-1.05Z"/>
      <path class="cls-4" d="m98.75,45.93s.09.08.1.08c-.29,2.74-1.4,3.8-3.94,1.94.06-1.02.12-2.04.18-3.07.39.01.77.01,1.17.01.65.78,1.51,1.06,2.49,1.04Z"/>
      <path class="cls-4" d="m97.16,180.61c.45.67.69,1.42.38,2.39h-.01c.31-.97.08-1.72-.37-2.39Z"/>
      <path class="cls-4" d="m97.16,180.61c.45.67.68,1.42.37,2.39l-.74.74-.21-.12c-1.27-.7-2.55-1.4-3.82-2.11l-.05-.25c-1.99-3.46-4.53-6.56-7.76-8.74l2.54-1.3c1.79,1.09,4.53,1.73,7.11,1.75l-.05,2c-.46,1.31-.16,2.27.4,3.09.14.19.28.38.44.56.19.22.4.44.61.66.27.28.53.55.77.83.14.16.27.33.39.5Z"/>
      <path class="cls-2" d="m96.79,183.74q1.99,2.74-3.04,4.13c2.31-2.53-1.66-4.08-.99-6.35,1.27.7,2.55,1.4,3.82,2.1l.21.12Z"/>
      <path class="cls-6" d="m94.84,41.99c.62.62,1.23,1.24,1.84,1.85l-.42,1.05c-.4,0-.78,0-1.17-.01h-.01c-2.7,1.42-4.68-.79-6.63-1.79-1.07-.54-1.77-1.48-3.22-1.28-1.21.17-2.53-.13-2.16-1.81.28-1.24,1.65-1.35,2.43-.91,1.29.72,2.95.54,4.34,1.02.84.29,1.58.82,2.1,1.91.62,1.31,1.93.94,2.9-.03Z"/>
      <path class="cls-4" d="m96.77,180.11c-.24-.28-.5-.55-.77-.83.26.27.53.55.77.83Z"/>
      <path class="cls-4" d="m94.95,178.06c.14.19.28.38.44.56-.16-.18-.3-.37-.44-.56Z"/>
      <path class="cls-4" d="m95.09,44.88c-.06,1.03-.12,2.05-.18,3.07.06-1.02.12-2.04.17-3.07h.01Z"/>
      <path class="cls-2" d="m35.49,65.21c1.42-.43,2.14-1.3,2.59-2.35l1.94.13c-.09.19-.16.4-.21.63-.45,1.96-.74,5,1.07,5.43,3.67.87,7.75.25,9.96,4.36,3.33-2.33,3.49.5,3.89,2.52.44,2.19,1.89,3.15,3.57,4.07,1.37-1.98-.34-3.72.45-5.56,2.45-5.72.6-12.34,4.13-18.09,1.3-2.11.31-5.5,4.31-5.73,1.23-.07,2.15-1.17,2.09-2.4-.07-1.38-1.45-.97-2.36-1.15l-.3-.25c.08-.62-.01-1.36-.05-2.06-.06-1.08.02-2.08,1.12-2.46.57-.2.96-.25,1.22-.21,1.13.19-.07,2.19.45,2.91.22.29.97.5,1.28.35,2.25-1.09,6.77.68,5.81-4.65-.01-.05-.01-.11-.01-.16,0-.85.99-2.3,1.78-2.57,4.46-1.53,5.7-2.5,5.14-5.65l1.71-.32c1.39,1.42-.4,4.29,2.62,4.96.63,1.3,1.4,1.76,2.23,1.81l-.08,1.34c-1.39-.48-3.05-.3-4.34-1.02-.78-.44-2.15-.33-2.43.91-.37,1.68.95,1.98,2.16,1.81,1.45-.2,2.15.74,3.22,1.28,1.95,1,3.93,3.21,6.63,1.79-.05,1.03-.11,2.05-.17,3.07-.82.13-1.65.25-2.47.37-.91-.15-1.83-.3-2.74-.45-2.09-2.86-5.46-3.15-7.65-1.54-2.03,1.49,1.7,2.72,1.65,5.22,1.7-2.75,3.56-3.76,5.99-3.68.37.62.75,1.24,1.12,1.85-1.14,2.03-1.71,4.54-4.42,5.24-1.01-.74-1.53-.41-1.66.77,0,0-.1.05-.14.08h-.03c-2.83-2.5-5.38-2.83-7.5.96.99,1.02,2.95-1.45,3.2.69.21,1.88-.14,3.96-1.65,5.48-1.97,1.97-2.88,4.19-1.81,6.94-.59.78-1.41,1.01-2.32,1.04-.72-1.68-1.44-3.36-2.22-5.16-2.91,2.91.12,4.67.69,6.81,2.19,3.44.42,6.73-.54,9.96-.42,1.39-2.06,1.71.4,3.52,3.6,2.64,2.44,6.64-1.9,8.87-1.8.93-2.28,2.19-2.15,3.97l-.03.03c-.72,2.32,1.89,4.89-1.44,7.29,7.48.19,4.91,5.3,5.53,8.77-.52.23-1.42.4-1.47.72-.19,1.06.83.95,1.49,1.15.26.73.9,1.46,0,2.19h-.01c-1.07,2.97-.96,5.83-.42,8.64l-2.91.68c-.08-.49-.21-.95-.45-1.34-1.37-2.21-3.98-1.68-6.14-2.05-.6-.11-1.67.38-1.19,1.02,1.72,2.26-.16,4.34-.09,7.02l-2.88.63c-1.64-3.85-4.79-7.6-.02-11.97,1.63-1.49,2.38-4.69,1.73-7.06-.77-2.77-1.58-5.13-.21-8.03.39-.83,1-4.15-1.87-4.23-2.25-.07-1.93,2.02-2.19,3.67-.37,2.32-.92,4.77-3.84,5.74-.32-3.75-1.08-7.24,1.29-10.09,2.71-3.26-.45-5.47-2-5.4-2.79.13-4.84-3.32-7.83-1.17-.28.2-.53.26-.74.22-.61-.1-1.02-.94-1.25-1.7-.64-2.07-.78-4.19-.6-6.26.19-2.54.86-5.01,1.63-7.22,1.08-3.12.66-4.11-.93-5.66-4.54,3.59-3.14,8.19-2.9,12.69-.13-.21-.25-.43-.36-.64-3.58-6.68-1.86-14.04-3.12-20.92"/>
      <path class="cls-2" d="m71.64,58.18c1.25-.57,2.35-4.64,1.57-5.77-2.07-2.99-3.94,2.61-6.67.85,1.89,1.81,1.2,6.73,5.1,4.92Z"/>
      <path class="cls-2" d="m69.16,67.97c-.45-2.75,2.72-3.41,1.43-5.88-.23-.46-1.95-.77-2.12-.53-1.27,1.75-2.2,3.66.69,6.41Z"/>
      <path class="cls-2" d="m69.08,117.43c-.21-.02-.41-.04-.61-.06.09.08.18.21.28.22s.22-.1.33-.16Z"/>
      <path class="cls-2" d="m53.77,89.64c.96-3.98,3.67-7.89-1.92-12,1.02,4.49-6.78,9.19,1.92,12Z"/>
      <path class="cls-2" d="m93.66,37.92c.4,1.36.79,2.72,1.18,4.07-.97.97-2.28,1.34-2.9.03-.52-1.09-1.26-1.62-2.1-1.91l.08-1.34c1.19.08,2.51-.64,3.74-.85Z"/>
      <path class="cls-4" d="m91.88,164.55c1.46,1.08,3.61,1.36,4.57,3.11-1.06,1.42-2.04,2.23-3.53,1.63-1.55-.63-2.96-1.64-3.13-3.34-.07-.8,1.21-2.04,2.09-1.4Z"/>
      <path class="cls-2" d="m82.81,184.87c.02-.31.02-.62.02-.93,2.28-1.04,1.32-4.07,3.52-5.46,1.28-.81-.21-2.26-1.16-3.2-.57-.56-1.13-1.37-1.87-1.37l.98-1.81c.22.14.44.28.65.42,3.23,2.18,5.77,5.28,7.76,8.74-1.26.09-2.61-2.32-3.7-.07-.64,1.32-.6,3.03.77,4.05,1.27.94,2.02,2.69,3.95,2.65.16.95-.21,1.8.41,2.38"/>
      <path class="cls-6" d="m92.76,181.52c-.67,2.27,3.3,3.82.99,6.35l-.02.02c-1.93.04-2.68-1.71-3.95-2.65-1.37-1.02-1.41-2.73-.77-4.05,1.09-2.25,2.44.16,3.7.07l.05.25h0Z"/>
      <path class="cls-6" d="m93.72,37.85l-.06.07c-1.23.21-2.55.93-3.74.85-.83-.05-1.6-.51-2.23-1.81l.08-.08c1.88.97,4.46-2.38,5.95.97Z"/>
      <path class="cls-4" d="m92.5,32.48c.57.27,1.18.93.63,1.58-1.03,1.23-2.36.66-4.05.24,1.03-1.58,1.89-2.53,3.42-1.82Z"/>
      <path class="cls-6" d="m90.92,27.03c-.88,6.1-5.28,2.37-8.15,2.92"/>
      <path class="cls-4" d="m92.44,48.32c.19,1.32-.63,1.47-1.63,1.4-.37-.61-.75-1.23-1.12-1.85h.01c.91.15,1.83.3,2.74.45Z"/>
      <path class="cls-2" d="m90.29,157.54c.07.12.2.25.19.36s-.17.21-.25.31c.02-.22.04-.45.06-.67Z"/>
      <path class="cls-6" d="m89.7,47.87h-.01c-2.43-.08-4.29.93-5.99,3.68.05-2.5-3.68-3.73-1.65-5.22,2.19-1.61,5.56-1.32,7.65,1.54Z"/>
      <path class="cls-6" d="m87.77,36.88l-.08.08c-3.02-.67-1.23-3.54-2.62-4.96,3.03.61,2.4,2.97,2.7,4.88Z"/>
      <path class="cls-4" d="m87.49,171.22l-2.54,1.3c-.21-.14-.43-.28-.65-.42-1.91-1.17-2.57-2.29-2.56-4.21,1.4-.55,3.06-4.64,3.79.85.13.97.87,1.81,1.96,2.48Z"/>
      <path class="cls-6" d="m85.19,175.28c.95.94,2.44,2.39,1.16,3.2-2.2,1.39-1.24,4.42-3.52,5.46l-.23-.18c.13-2.28.32-4.57.35-6.85.01-.81-1.37-1.62-.75-2.42.11-.14.29-.28.56-.43.2-.11.38-.15.56-.15.74,0,1.3.81,1.87,1.37Z"/>
      <path class="cls-4" d="m84.57,105.74c1.92,1.29,2.66,3.71,1.6,6.14-.98,2.27.35,4.98-1.43,7.06-.95-2.43-2.94-2.76-5.04-3-.69-.09-1.39-.16-2.07-.29,1.2-2.53,2.44-4.84,2.18-7.56,1.66-.72,2.57-3.81,4.76-2.35Z"/>
      <path class="cls-4" d="m84.73,55.73c.13-1.18.65-1.51,1.66-.77-.31.78-.95.86-1.66.77Z"/>
      <path class="cls-4" d="m85.27,63.56c-3.65-.14-5.85.59-6.14,4.09-.09,1.06-.9,2.17-2.33,2.23-1.07-2.75-.16-4.97,1.81-6.94,1.51-1.52,1.86-3.6,1.65-5.48-.25-2.14-2.21.33-3.2-.69,2.12-3.79,4.67-3.46,7.5-.95-.08.19-.17.38-.27.57,0,0,.01.01,0,.01-.22.38-.46.75-.71,1.13-.06.1-.12.2-.19.29-.19.28-.37.57-.53.86-.05.1-.1.19-.15.29-.15.29-.26.57-.33.86-.29,1.22.24,2.46,2.89,3.73Z"/>
      <path class="cls-2" d="m84.59,55.81l-.02.02h-.01s.03-.02.03-.02Z"/>
      <path class="cls-4" d="m84.56,55.82h.01c-.08.2-.17.38-.28.57.1-.19.19-.38.27-.57Z"/>
      <path class="cls-2" d="m84.3,172.1l-.98,1.81c-.18,0-.36.04-.56.15-.27.15-.45.29-.56.43l-2.62-.21c1.01-2.07-.47-4.18-.93-6.24l2.18-.3c.3.05.6.09.9.14h.01c-.01,1.93.65,3.05,2.56,4.22Z"/>
      <path class="cls-4" d="m84.29,56.4c-.2.38-.45.75-.71,1.13.25-.38.49-.75.71-1.13Z"/>
      <path class="cls-6" d="m82.77,29.95c.27.91.48,1.69.59,2.37.56,3.15-.68,4.12-5.14,5.65-.79.27-1.78,1.72-1.78,2.57l-2.57.11c-2.01-3.86-4.01-2.27-6.52-.1.62.16,1.2.3,1.77.41l-.21,1.13c-.26-.04-.65.01-1.22.21-1.1.38-1.18,1.38-1.12,2.46h-.28c-2.27-1.91-3.83-2.82-3.58-4.77.56-4.31-1.56-3.48-3.97-2.1"/>
      <path class="cls-4" d="m83.39,57.82c-.18.29-.37.57-.53.86.16-.29.34-.58.53-.86Z"/>
      <path class="cls-2" d="m82.2,174.49c-.62.8.76,1.61.75,2.42-.03,2.28-.22,4.57-.35,6.85-1.74-1.02-5.42-.09-5.33-1.68.15-2.65-1.06-3.44-2.66-4.6-.87-.63-.99-1.74-.49-2.7.61-1.16,1.59-.8,2.59-.49.9.28,1.87.36,2.57.49.12-.17.22-.34.3-.5l2.62.21Z"/>
      <path class="cls-6" d="m58.41,148.12l2.37-.22c1.77-.09,4.46-3.02,4.14,1.61-.1,1.49.4,1.48,2.28.86,1.9-.63,3.74,3.13,4.24,5.32.95,4.11,4.38,8.18,8.39,8.53-1.36,1.24-1.47,2.52-1.18,3.82.46,2.06,1.94,4.17.93,6.24-.08.16-.18.33-.3.5-.7-.13-1.67-.21-2.57-.49-1-.31-1.98-.67-2.59.49-.5.96-.38,2.07.49,2.7,1.6,1.16,2.81,1.95,2.66,4.6-.09,1.59,3.59.66,5.33,1.68l.23.18c0,.31,0,.62-.02.93"/>
      <path class="cls-6" d="m68.15,168.62c-.61-1.63-2.3-3.29-.93-4.93,1.78-2.14,2.99.73,4.54,1.03.32.06.64.13.96.19.31.51.62,1.02.94,1.53.19-.19.39-.37.58-.56-.49-.34-.98-.68-1.48-1.02-.48-2.54-3.2-5.05-4.36-4.49-3.44,1.66-3.69.26-4.08-2.46-.16-1.06-1.63-.8-2.6-.8-.03,0-.05,0-.08.01l-.13-1.53c.43-.1.75-.32.71-.85-.1-1.57-.28-3.39-2.42-3.79l-.11-.11c-.27-.97-.87-1.8-1.28-2.72"/>
      <path class="cls-6" d="m82.63,135.44c.95.96-.11,1.3-.96,1.45-1.85.23-4.9-1.24-4,2.85-.99-.02-2.64.16-2.71-.7-.34-3.84-1.83-7.56-2.55-11.36-.54-2.81-.65-5.67.42-8.64.06.05.11.1.16.16.09.12.15.25.2.4.04.15.07.32.09.48.1,1.04-.2,2.29,1.06,1.96,1.48-.39,3.6-.43,4.53-2.11.28-.51-.92-1.91.57-1.71.11.02.22.04.35.07.92.22.83,1.31.83,2.13.01,1.97-1.79,3.36-1.36,5.63.64,3.35.72,6.74,3.37,9.39Zm-5.61-11.93s-.05-.2-.08-.31c-.12.04-.27.04-.35.12-.04.03.05.2.07.31.13-.03.27-.04.36-.12Z"/>
      <path class="cls-4" d="m82.71,58.97c-.14.28-.26.57-.33.86.07-.29.18-.57.33-.86Z"/>
      <polygon class="cls-4" points="81.74 167.88 81.74 167.89 81.73 167.88 81.74 167.88"/>
      <path class="cls-4" d="m81.73,167.88c-.3-.05-.6-.09-.9-.14.08-.16.17-.32.26-.49.21.22.42.42.64.63Z"/>
      <path class="cls-7" d="m76.94,123.2c.03.11.11.28.08.31-.09.08-.23.09-.36.12-.02-.11-.11-.28-.07-.31.08-.08.23-.08.35-.12Z"/>
      <path class="cls-6" d="m76.45,40.7c.96,5.33-3.56,3.56-5.81,4.65-.31.15-1.06-.06-1.28-.35-.52-.72.68-2.72-.45-2.91l.21-1.13c1.65.32,3.14.34,4.75-.31l2.57-.11s0,.11.01.16Z"/>
      <path class="cls-6" d="m74.48,70.92c.06,1.07-.24,1.82-1.53,1.65-.57-2.14-3.6-3.9-.69-6.81.78,1.8,1.5,3.48,2.22,5.16Z"/>
      <path class="cls-2" d="m74.24,165.88c-.19.19-.39.37-.58.56-.32-.51-.63-1.02-.94-1.53l.04-.05c.5.34.99.68,1.48,1.02Z"/>
      <path class="cls-6" d="m73.21,52.41c.78,1.13-.32,5.2-1.57,5.77-3.9,1.81-3.21-3.11-5.1-4.92,2.73,1.76,4.6-3.84,6.67-.85Z"/>
      <path class="cls-6" d="m72.82,114.98c.89.61.84,1.24.02,1.87-.66-.2-1.68-.09-1.49-1.15.05-.32.95-.49,1.47-.72Z"/>
      <path class="cls-2" d="m64.78,168.87c-3.15-2.44-1.11-7.09-4.09-9.67-.25-.22-.71-2.02.95-2.08.03-.01.05-.01.08-.01.97,0,2.44-.26,2.6.8.39,2.72.64,4.12,4.08,2.46,1.16-.56,3.88,1.95,4.36,4.49l-.04.05c-.32-.06-.64-.13-.96-.19-1.55-.3-2.76-3.17-4.54-1.03-1.37,1.64.32,3.3.93,4.93"/>
      <path class="cls-2" d="m73.87,40.65c-1.61.65-3.1.63-4.75.31-.57-.11-1.15-.25-1.77-.41,2.51-2.17,4.51-3.76,6.52.1Z"/>
      <path class="cls-6" d="m70.59,62.09c1.29,2.47-1.88,3.13-1.43,5.88-2.89-2.75-1.96-4.66-.69-6.41.17-.24,1.89.07,2.12.53Z"/>
      <path class="cls-6" d="m70.08,131.08c-.12-.06-.23-.12-.34-.18h.01c.11.05.22.11.33.18Z"/>
      <path class="cls-6" d="m69.75,130.89h-.01c-2.97-.91-5.65-.34-8.11,2.12-.07-2.68,1.81-4.76.09-7.02-.48-.64.59-1.13,1.19-1.02,2.16.37,4.77-.16,6.14,2.05.24.39.37.85.45,1.34.13.81.12,1.71.25,2.53Z"/>
      <path class="cls-6" d="m55.59,41.06c0,2.26-2.98,1.12-3.4,2.96,1.26,1.81,4.46-.92,4.91,1.84.47,2.87.16,2.92,2.12,4.37,1.51-1.08-1.48-3.28,1.1-4.17,1.62-.55,2.94-1.84,5.97-1.29h.28c.04.69.13,1.43.05,2.05l-.45,1.2c.25-.32.5-.63.75-.95.91.18,2.29-.23,2.36,1.15.06,1.23-.86,2.33-2.09,2.4-4,.23-3.01,3.62-4.31,5.73-3.53,5.75-1.68,12.37-4.13,18.09-.79,1.84.92,3.58-.45,5.56-1.68-.92-3.13-1.88-3.57-4.07-.4-2.02-.56-4.85-3.89-2.52-2.21-4.11-6.29-3.49-9.96-4.36-1.81-.43-1.52-3.47-1.07-5.43.05-.23.12-.44.21-.63.51-1.15,1.56-1.64,2.65-1.76.5-.06,1.02-.03,1.49.05,2.18.38,3.34-.06,3.33-2.23-.01-2.24-.78-4.01-3.65-3.05l-.17-.15c.04-.82-.02-1.67.15-2.47.33-1.58,1.23-3.16-.39-4.57-.83,1.84-3.08,1.3-4.2,2.41-1.85,1.84.28,2.61,1.28,3.72.36.41.2,1.27.27,1.93l-.05.06c-1.91,1.33-1.79,3.94-2.65,5.93-.45,1.05-1.17,1.92-2.59,2.35"/>
      <path class="cls-6" d="m56.42,59.3c.22-1.58-1.25-1.79-2.27-2.11-1.16-.38-1.96.36-2.06,1.48-.12,1.4.86,2.02,2.13,2.24,1.12-.02,2.04-.53,2.2-1.61Z"/>
      <path class="cls-6" d="m51.8,52.83c-1.73-2.67.48-5.59-1.44-7.97q-4.42,4.81,1.44,7.97Z"/>
      <path class="cls-6" d="m68.47,117.37c.2.02.4.04.61.06-.11.06-.23.17-.33.16s-.19-.14-.28-.22Z"/>
      <polygon class="cls-2" points="68.76 98.89 68.99 99.16 68.73 98.92 68.76 98.89"/>
      <path class="cls-2" d="m66.92,47.07c-.25.32-.5.63-.75.95l.45-1.2.3.25Z"/>
      <path class="cls-2" d="m58.74,37.89c2.41-1.38,4.53-2.21,3.97,2.1-.25,1.95,1.31,2.86,3.58,4.78-3.03-.55-4.35.74-5.97,1.29-2.58.89.41,3.09-1.1,4.17-1.96-1.45-1.65-1.5-2.12-4.37-.45-2.76-3.65-.03-4.91-1.84.42-1.84,3.41-.7,3.4-2.96"/>
      <path class="cls-2" d="m56.19,40.77c3.69,1.53,2.16-1.51,2.55-2.88"/>
      <path class="cls-6" d="m63.73,138.08c1.89,1.84,1.85,4.06,1.39,7.01-.73-.88-1.23-1.2-1.25-1.56-.14-1.89-2.41-3.2-1.43-5.32.1-.21,1.08-.34,1.29-.13Z"/>
      <path class="cls-6" d="m57.82,153.02c-.27,1.86.38,2.93,2.42,2.7.37-.05.87-.03,1.27-.13l.13,1.53c-1.66.06-1.2,1.86-.95,2.08,2.98,2.58.94,7.23,4.09,9.67"/>
      <path class="cls-2" d="m57.82,153.02c.5.3,1.25.97,1.46.83,1.1-.72.29-1.92.52-2.9,2.14.4,2.32,2.22,2.42,3.79.04.53-.28.75-.71.85-.4.1-.9.08-1.27.13-2.04.23-2.69-.84-2.42-2.7"/>
      <path class="cls-6" d="m58.08,145.44c.19-.91-2.16-2.18-.38-3.69.28-.24.62-.4.95-.4.29,0,.57.12.81.4,1.02,1.18,2.78,2.08,1.7,4.17-.27.53-.25,1.21-.38,1.98l-2.37.22"/>
      <path class="cls-6" d="m60.46,114.61c.65,2.37-.1,5.57-1.73,7.06-4.77,4.37-1.62,8.12.02,11.97.14.33.28.67.39,1,.46,1.33,1.22,2.67-.05,3.57-.27.19-.51.27-.72.27-.81,0-1.31-1.12-1.97-1.7-2.78-2.42-5.08-5.08-5.64-8.88,2.88-1.94,2.09-4.71,2.56-7.59.74-4.52-5.29-3.09-4.25-6.63.16-.53.12-.97-.52-.86-.34.05-.76.19-1.05.41l-.93-1.45c.79,0,1.46-.41,1.94-1.6.86-2.15-2.55-4.09-5.66-3.15l-.22-.36c2.57-3.27-.08-3.11-2.87-3.06,1.62-2.33,5.36-3.73,1.35-6.88-.34-.26-.62-.48-.85-.65l2.81-.76c.21.04.46-.02.74-.22,2.99-2.15,5.04,1.3,7.83,1.17,1.55-.07,4.71,2.14,2,5.4-2.37,2.85-1.61,6.34-1.29,10.09,2.92-.97,3.47-3.42,3.84-5.74.26-1.65-.06-3.74,2.19-3.67,2.87.08,2.26,3.4,1.87,4.23-1.37,2.9-.56,5.26.21,8.03Zm-9.94-10.17c1.34.29,1.14-1.23,1.21-2.37-1.27-1.48.14-4.95-3.33-5.05-1.43-.05-1.79,1.34-1.52,2.58.47,2.15,1.26,4.32,3.64,4.84Z"/>
      <path class="cls-6" d="m57.64,152.79c.12-1.25.75-1.96,2.05-1.95l.11.11c-.23.98.58,2.18-.52,2.9-.21.14-.96-.53-1.46-.83"/>
      <path class="cls-2" d="m58.41,148.12c.41.92,1.01,1.75,1.28,2.72-1.3,0-1.93.7-2.05,1.95"/>
      <path class="cls-2" d="m46.04,128.39l2.47-1.06c.54.5,1.22.71,2.22.55l.03.02c.56,3.8,2.86,6.46,5.64,8.88.66.58,1.16,1.7,1.97,1.7l.28,2.87c-.33,0-.67.16-.95.4-1.78,1.51.57,2.78.38,3.69"/>
      <path class="cls-2" d="m50.02,141.82c1.61-5.62-.39-9.84-3.98-13.43"/>
      <path class="cls-6" d="m58.74,37.89c-.39,1.37,1.14,4.41-2.55,2.88"/>
      <path class="cls-2" d="m54.15,57.19c1.02.32,2.49.53,2.27,2.11-.16,1.08-1.08,1.59-2.2,1.61-1.27-.22-2.25-.84-2.13-2.24.1-1.12.9-1.86,2.06-1.48Z"/>
      <path class="cls-6" d="m51.85,77.64c5.59,4.11,2.88,8.02,1.92,12-8.7-2.81-.9-7.51-1.92-12Z"/>
      <path class="cls-2" d="m49.07,113.68c-1.04,3.54,4.99,2.11,4.25,6.63-.47,2.88.32,5.65-2.56,7.59l-.03-.02c-2.3-3.33.01-8.14-3.63-11.15-.7-.59-.57-2.23.16-3.26.06-.09.15-.17.24-.24.29-.22.71-.36,1.05-.41.64-.11.68.33.52.86Z"/>
      <path class="cls-2" d="m50.36,44.86c1.92,2.38-.29,5.3,1.44,7.97q-5.86-3.16-1.44-7.97Z"/>
      <path class="cls-2" d="m51.73,102.07c-.07,1.14.13,2.66-1.21,2.37-2.38-.52-3.17-2.69-3.64-4.84-.27-1.24.09-2.63,1.52-2.58,3.47.1,2.06,3.57,3.33,5.05Z"/>
      <path class="cls-6" d="m40.5,110c2.16,0,4.39,1.78,6.07,1.78l.93,1.45c-.09.07-.18.15-.24.24-.73,1.03-.86,2.67-.16,3.26,3.64,3.01,1.33,7.82,3.63,11.15-1,.16-1.68-.05-2.22-.55-.42-.38-.75-.94-1.07-1.63-2.37-5.09-3.29-10.82-7.25-15.69"/>
      <path class="cls-6" d="m46.04,128.39c3.59,3.59,5.59,7.81,3.98,13.43"/>
      <path class="cls-2" d="m40.5,110l1.05-2.35c.45.23.9-.09,1.3-.62,3.11-.94,6.52,1,5.66,3.15-.48,1.19-1.15,1.6-1.94,1.6-1.68,0-3.91-1.78-6.07-1.78"/>
      <path class="cls-2" d="m40.19,110.01c3.96,4.87,4.88,10.6,7.25,15.69.32.69.65,1.25,1.07,1.63l-2.47,1.06"/>
      <path class="cls-2" d="m31.92,96.98l2.91-.44c0,.39.71.69,1.19.98,1.08.64,1.72.62,2.29-.58.68-1.42.9-1.61,1.95-.86.23.17.51.39.85.65,4.01,3.15.27,4.55-1.35,6.88,2.79-.05,5.44-.21,2.87,3.06-.52-.27-1.04-.55-1.56-.83-.01.44-.2,1,0,1.31.16.26.32.41.48.5l-1.05,2.35"/>
      <path class="cls-2" d="m47.49,59.05c.01,2.17-1.15,2.61-3.33,2.23-.47-.08-.99-.11-1.49-.05l-.2-2.55c.07,0,.14-.01.21-.02,1.56-.23,1-1.67,1.16-2.66,2.87-.96,3.64.81,3.65,3.05Z"/>
      <path class="cls-2" d="m43.43,48.81c1.62,1.41.72,2.99.39,4.57-.17.8-.11,1.65-.15,2.47-.97.34-1.93.68-2.89,1.02-.07-.66.09-1.52-.27-1.93-1-1.11-3.13-1.88-1.28-3.72,1.12-1.11,3.37-.57,4.2-2.41Z"/>
      <path class="cls-6" d="m43.67,55.85l.17.15c-.16.99.4,2.43-1.16,2.66-.07,0-.14.02-.21.02-.93,0-1.38-.93-1.74-1.75l.05-.06c.96-.34,1.92-.68,2.89-1.02Z"/>
      <path class="cls-6" d="m32.73,87.88c1.09-.07,3.61-.5,2.95-1.11l2.98-.24c.11.21.23.43.36.64l2.2.19c-.18,2.07-.04,4.19.6,6.26.23.76.64,1.6,1.25,1.7l-2.81.76c-1.05-.75-1.27-.56-1.95.86-.57,1.2-1.21,1.22-2.29.58-.48-.29-1.19-.59-1.19-.98,0-.08.03-.17.11-.26,3.48-3.98-.91-5.76-2.21-8.39"/>
      <path class="cls-6" d="m41.92,74.48c1.59,1.55,2.01,2.54.93,5.66-.77,2.21-1.44,4.68-1.63,7.22l-2.2-.19c-.24-4.5-1.64-9.1,2.9-12.69Z"/>
      <path class="cls-6" d="m42.63,106.67l.22.36c-.4.53-.85.85-1.3.62-.16-.09-.32-.24-.48-.5-.2-.31-.01-.87,0-1.31.52.28,1.04.56,1.56.83Z"/>
      <path class="cls-2" d="m42.47,58.68l.2,2.55c-1.09.12-2.14.61-2.65,1.76l-1.94-.13c.86-1.99.74-4.6,2.65-5.93.36.82.81,1.75,1.74,1.75Z"/>
      <path class="cls-6" d="m35.54,65.61c1.26,6.88-.46,14.24,3.12,20.92l-2.98.24c-.07-.07-.19-.14-.35-.22-4.57-2.1-2.14-5.34-2.37-8.03-.02-.21-.05-.42-.11-.63-.42-1.51.24-3.48-2.18-3.81"/>
      <path class="cls-2" d="m31.48,78.61l1.48-.09c.23,2.69-2.2,5.93,2.37,8.03.16.08.28.15.35.22.66.61-1.86,1.04-2.95,1.11"/>
      <path class="cls-2" d="m32.73,87.89c1.3,2.63,5.69,4.41,2.21,8.39-.08.09-.11.18-.11.26l-2.91.44"/>
      <path class="cls-2" d="m30.67,74.08c2.42.33,1.76,2.3,2.18,3.81.06.21.09.42.11.63l-1.48.09"/>
      <path class="cls-3" d="m3.07,37.59c.34-2.74.77-5.6,2.39-7.83,1.71-2.36,4.5-3.65,7.16-4.84,7-3.14,14.01-6.28,21.01-9.42,12.71-5.7,25.57-11.44,39.28-13.95,22.62-4.14,45.81.8,68.28,5.71,12.59,2.76,25.47,5.63,36.4,12.46,11.07,6.92,19.38,17.42,29.51,25.65,11.05,8.97,24.21,15.21,34.61,24.92,18.25,17.04,25.7,42.39,32.39,66.45,2.16,7.77,4.33,15.58,5.19,23.6,1.68,15.7-1.83,31.81-9.22,45.76-10.16,19.2-28.04,34.52-49.05,40.06-8.53,2.25-17.4,2.91-26.2,3.56-11.96.88-23.94,1.76-35.94,1.76-16.85,0-33.71-1.75-50.2-5.21-24.36-5.11-48.2-14.11-68.23-28.88-5.17-3.81-10.2-8.15-13.13-13.87-1.61-3.13-2.54-6.58-4.11-9.74-1.74-3.48-4.22-6.53-6.31-9.81-9.52-14.93-9.26-32.8-13.59-49.38-2.46-9.41-2.43-19.93-2.88-29.6-.5-10.7-.56-21.42-.19-32.12.41-11.79,1.36-23.57,2.83-35.27Z"/>
    </g>
  </g>
</svg>