<?xml version="1.0" encoding="UTF-8"?>
<svg id="Calque_2" data-name="Calque 2" xmlns="http://www.w3.org/2000/svg" viewBox="0 0 178.06 250.88" preserveAspectRatio="none">
  <defs>
    <style>
      .cls-1 {
        fill: #ceca15;
      }

      .cls-1, .cls-2, .cls-3, .cls-4, .cls-5, .cls-6, .cls-7 {
        stroke-width: 0px;
      }

      .cls-2 {
        fill: #87b878;
      }

      .cls-3 {
        fill: #c9c76f;
      }

      .cls-4 {
        fill: #d4518f;
      }

      .cls-5 {
        fill: #b4bba0;
      }

      .cls-6 {
        fill: #b1c742;
      }

      .cls-7 {
        fill: #cccbc6;
      }
    </style>
  </defs>
  <g id="oeil_haut" data-name="oeil haut">
    <g id="oeil_haut-2" data-name="oeil haut">
      <path class="cls-3" d="m63.92,163.77c-1.14-.34-1.9-1.48-2.13-2.66s-.03-2.38.16-3.56c1.12-6.67,2.24-13.34,3.36-20.01,1-5.93,1.99-11.88,3.57-17.68.41-1.51.87-3.04,1.76-4.33,1.08-1.58,2.72-2.68,4.21-3.89,2.47-1.98,4.65-4.33,6.45-6.93,2.06-2.98,3.69-6.38,6.53-8.63,2.77-2.2,6.35-3.04,9.8-3.81.5-.11,1.02-.23,1.52-.13,1,.19,1.67,1.12,2.19,2,4.95,8.41,5.63,19.19,1.77,28.16-1.71,3.99-4.24,7.57-6.11,11.49-2.42,5.09-3.71,10.72-3.73,16.35,0,.99.03,2.01-.27,2.95-.57,1.82-2.21,3.05-3.68,4.25-3.47,2.83-6.51,6.18-8.99,9.9-.92,1.37-1.79,2.84-3.14,3.79-2.78,1.96-6.57,1.18-9.86.31-1.18-.31-2.41-.65-3.27-1.51s-1.17-2.4-.32-3.27c0-.94.17-1.87.17-2.81Z"/>
      <path class="cls-5" d="m166.86,57.99c-.59-6.18-1.4-12.23-8.77-14.23h-.01c-.23-2.6-1.86-3.15-4.11-2.8-1.01.16-1.98.45-1.97,1.69.01,1.46,1.06,2.25,2.09,3.1,2.33,1.9,1.47-3.06,3.53-1.6,1.64,3.12,1.13,6.19-.8,9.45,4.38-1.43,4.68-1.41,4.56.36-.28,4.1,1.93,5.17,5.42,5.01"/>
      <path class="cls-5" d="m168.65,50.31c3.61,2.32.37,4.53.08,6.75"/>
      <path class="cls-5" d="m178.06,71.57c-.1-.11-.23-.3-.27-.3-.36.18-.7.41-1.04.62-.93.31-1.85.63-2.77.95-.13.11-.25.23-.36.35-5.34-2.58-4.62-2.36-6.23,2.78-.74,2.37-1.12,3.47-.16,4.99l-2.82.6c-.53-.24-1.32-.31-2.46-.24-1.71.1-3.64.15-5.28-.84-.94-.55-1.77-1.44-2.42-2.83-1.24-2.65-6.18-2.03-7.48-5.62l.11-.1c5.13-.82,5.78-1.88,3.61-6.38-1.99-4.13-4.38-8.09-6.11-12.33-.43-1.04-4.27-3.33.3-4.62.57-.16-.96-1.4-1.65-1.83-1.12-.71-2.52-1.24-3.19.71-.57,1.67-1.13,3.36-1.85,5.51-1.88-2.42-3.49-4.38-6.16-5.63-2.44-1.14-4.15-3.57-4.17-7.22-.02-3.02-.29-7.12-4.71-8.33-.74-.2-2.13-1.84-1.45-2.11,2.77-1.11.04-7.19,5.29-5.69-1.31,2.98-1.79,5.57,2.68,5.96.82.07,2.12.34,1.77,1.19-1.5,3.62,2.11,4.41,4.17,7-1.86-.29-3.2-1.81-3.73-.55-.61,1.46.84,2.5,2.11,2.73,2.86.53,5.25.07,4.64-3.91,1.9.49,2.37,2.69,4.24,2.7.25.97.62,1.88,1.86,1.67.31-.05.81-.67.74-.9-.34-1.22-1.48-.86-2.36-1.02.5-3.08-2.87-5.49-1.48-8.82.26-.6-1.25-1.65-1.75-1.24-3.42,2.83-4.49-.74-6.22-2.21-.64-.54-1.29-1.06-1.96-1.49l2.68-.66c1.06.29,2.64-.68,3.77.06.97.64,2.19.88,2.34,0l1.86.14c-.44,1.17.15,1.71,1.22,2.21,3.44,1.61,5.48,5.46,9.98,5.68,1.25.06,2.42,2.49,3.42-.32.66-1.86,2.25-3.72-1.03-5.22-1.68-.77-3.56-.78-5.39-.84l.05-1.82c.41,0,.84-.13,1.29-.42,1.33-.87,1.11-1.98.36-3-1.02-1.38-1.14-2.38.76-2.93.22.22.45.44.67.66.1-.16.19-.33.28-.49-.31-.06-.63-.12-.94-.18-.08-.48.02-1.23-.25-1.41-3.26-2.08-5.17-4.39-1.76-7.93"/>
      <path class="cls-5" d="m175.55,85.17c-3.23-1.68-.87-4.18-.26-5.66,1.03-2.47,1.43-4.9,1.6-7.46l1.17-.48"/>
      <path class="cls-5" d="m162.75,22.03c.4,1.15-1.21,2.28.21,3.76.92-1.46.95-2.64-.07-3.88"/>
      <path class="cls-5" d="m162.6,20.98c-.16.11-.33.23-.49.34.21.24.43.47.64.71"/>
      <path class="cls-5" d="m161.1,64.64c2.15-4.43-2.79-5.11-3.45-7.87-.12-.51-1.31-.24-1.52.45-.95,3.2,1.49,4.68,3.42,6.38.35.3.77.52,1.55,1.04Z"/>
      <path class="cls-5" d="m159.42,27.39c.28-.03.56-.07.84-.1-.1-.27-.18-.54-.33-.78-.03-.05-.41,0-.42.06-.07.26-.07.54-.09.82Z"/>
      <path class="cls-5" d="m158.97,72.97c1.61-2.93-1.68-3.73-2.55-5.6-.24-.5-.89-.82-1.6-1.43-.16.8-.13,1.3-.35,1.64-2.23,3.49,2.4,3.51,2.9,5.67.14.6,1.28.31,1.6-.28Z"/>
      <path class="cls-5" d="m154.26,62.45c-.1-.21-.2-.43-.3-.64-.2-.08-.39-.17-.58-.25.08.2.16.39.24.59.21.1.43.2.64.3Z"/>
      <path class="cls-5" d="m152.58,59.77c.06-2.09.71-3.54-.68-5.35-1.14,1.87-1.64,3.21.68,5.35Z"/>
      <path class="cls-5" d="m148.71,35.77c-.05-.7-.34-1.28-1.14-1.07-.74.2-1.64.45-2.06,1-.43.56.13,1.16.88,1.24,1,.12,1.94.04,2.32-1.17Z"/>
      <path class="cls-2" d="m178.06,71.57l-1.17.48-.14-.16c.34-.21.68-.44,1.04-.62.04,0,.17.19.27.3"/>
      <path class="cls-2" d="m155.07,143.25l-2.78-.49-.23-.23c-.11.11-.21.23-.32.34-1.47-4.09,3.07-6.03,3.37-9.69.63-7.74,6.82-14.27,5.13-22.6-.21-1.06.69-.7,1.18-.98,2.4-1.37,5.07-11.36,3.94-13.77-.59-1.27-1.27-2.47-2.02-3.63l2.48-1.1c.2.43.44.85.74,1.27,2.21-1.3,3.19-3.25,3.39-5.11.2-1.88-.39-3.66-1.3-4.6-.64-.65-1.1-1.2-1.42-1.7-.96-1.52-.58-2.62.16-4.99,1.61-5.14.89-5.36,6.23-2.78.22.09.43.18.64.27-.1-.21-.19-.41-.28-.62.92-.32,1.84-.64,2.77-.95l.14.16c-.17,2.56-.57,4.99-1.6,7.46-.61,1.48-2.97,3.98.26,5.66"/>
      <path class="cls-5" d="m173.98,72.84c.09.21.18.41.28.62-.21-.09-.42-.18-.64-.27.11-.12.23-.24.36-.35Z"/>
      <path class="cls-2" d="m168.73,57.06c.29-2.22,3.53-4.43-.08-6.75"/>
      <path class="cls-5" d="m168.65,82.66c.91.94,1.5,2.72,1.3,4.6l-2.8-.21c-.13-.23-.5-.32-.77-.47-.11.28-.21.55-.32.83l-1.04.03c-.03-.94.07-1.89.21-2.84.24-1.66.12-2.61-.82-3.04l2.82-.6c.32.5.78,1.05,1.42,1.7Z"/>
      <path class="cls-5" d="m169.95,87.26c-.2,1.86-1.18,3.81-3.39,5.11-.3-.42-.54-.84-.74-1.27-.58-1.21-.79-2.43-.8-3.66l1.04-.03c.27.14.54.27.81.4.11-.26.37-.61.28-.76l2.8.21Z"/>
      <path class="cls-2" d="m167.15,87.05c.09.15-.17.5-.28.76-.27-.13-.54-.26-.81-.4.11-.28.21-.55.32-.83.27.15.64.24.77.47Z"/>
      <path class="cls-2" d="m166.8,58.97c-3.49.16-5.7-.91-5.42-5.01.12-1.77-.18-1.79-4.56-.36,1.93-3.26,2.44-6.33.8-9.45.15-.13.31-.26.46-.39h.01c7.37,2,8.18,8.05,8.77,14.23"/>
      <path class="cls-2" d="m165.82,91.1l-2.48,1.1c-2.23-3.48-5-6.57-7.56-9.9l.89-1.82c1.64.99,3.57.94,5.28.84,1.14-.07,1.93,0,2.46.24.94.43,1.06,1.38.82,3.04-.14.95-.24,1.9-.21,2.84.01,1.23.22,2.45.8,3.66Zm-3.16-5.7c.13-.4-.06-.92-.14-1.69-.47.62-.78.97-1.02,1.36-.28.47-.35,1.05.25,1.21.22.06.78-.51.91-.88Z"/>
      <path class="cls-5" d="m165.36,95.83c1.13,2.41-1.54,12.4-3.94,13.77-.49.28-1.39-.08-1.18.98,1.69,8.33-4.5,14.86-5.13,22.6-.3,3.66-4.84,5.6-3.37,9.69l.21.21c-1.76,3.98-4.92,7.47-3.78,12.91-1.17-1.23-1.91-2.17-2.21-3.16-.35-1.14-.1-2.34.79-4.09,1.98-3.93,2.2-8.26,3.61-12.3,1.4-4.01,1.71-8.44,4.7-11.82-2.9-2.22,3.18-5.62-1.03-7.74-1.26-.63-.92-2.08.02-2.34,3.3-.91,3.4-3.07,2.89-5.8-.22-1.19.19-2.33,1.62-2.68,3.16-.75,2.05-3.09,2.28-5.42-1.59.71-1.81,3.66-4.25,1.18-1.54-1.57-1.9,1.28-1.69,2.11.58,2.3.04,4.14-.92,5.82l-2.03-.98c-.03-.19-.07-.37-.11-.56l-.35-2.12c.34-.42.85-.79.8-1.07-.06-.36-.55-.85-.9-.9-.06-.01-.13-.01-.19-.01l.23-2.44c.18-2.64,7.19-1.51,3.47-6.26-.9-1.13-.19-1.43.49-2.29,1.2-1.51,1.14-4.31.12-5.1-2.83-2.18-1.21-3.65.27-5.72,2.56,3.33,5.33,6.42,7.56,9.9.75,1.16,1.43,2.36,2.02,3.63Z"/>
      <path class="cls-2" d="m162.89,21.91c1.02,1.24.99,2.42.07,3.88-1.42-1.48.19-2.61-.21-3.76"/>
      <path class="cls-2" d="m162.75,22.03c-.21-.24-.43-.47-.64-.71.16-.11.33-.23.49-.34"/>
      <path class="cls-5" d="m162.52,83.71c.08.77.27,1.29.14,1.69-.13.37-.69.94-.91.88-.6-.16-.53-.74-.25-1.21.24-.39.55-.74,1.02-1.36Z"/>
      <path class="cls-2" d="m157.65,56.77c.66,2.76,5.6,3.44,3.45,7.87-.78-.52-1.2-.74-1.55-1.04-1.93-1.7-4.37-3.18-3.42-6.38.21-.69,1.4-.96,1.52-.45Z"/>
      <path class="cls-2" d="m160.84,100.64c-.23,2.33.88,4.67-2.28,5.42-1.43.35-1.84,1.49-1.62,2.68.51,2.73.41,4.89-2.89,5.8-.94.26-1.28,1.71-.02,2.34,4.21,2.12-1.87,5.52,1.03,7.74-2.99,3.38-3.3,7.81-4.7,11.82-1.41,4.04-1.63,8.37-3.61,12.3-.89,1.75-1.14,2.95-.79,4.09l-2.01.04c-.04-.18-.13-.39-.3-.62-1.51-2.08-.83-4.66-1.23-6.94-1.86,0-1.99,1.38-2.55,2.31-.45.73-.95,1.22-1.5,1.22-.37,0-.76-.22-1.18-.74-.68-.84-1.56-1.91-.32-3.03.62-.55,1.24-1.23,1.99-1.47,3.21-1.06,3.42-2.81,1.97-5.67l2.6-1.32c.37.69,1.15,1.43,2.36,2.32.9-2.2.06-4.08-.98-5.93l.02-.02s.01-.03.02-.05c4.58-1.77,2.36-5.36,1.64-8.02-.54-2-.69-3.86-.53-5.8.08-.92,1.03-1.21,1.92-1.19.49,0,1.2.31.87.77-2.55,3.73,1.75,2.3,2.37,4.68.74-3.13,1.41-5.24.03-6.87-1.27-1.52-.5-2.19.36-3.31.87-1.13,1.78-2.24,2.47-3.44.96-1.68,1.5-3.52.92-5.82-.21-.83.15-3.68,1.69-2.11,2.44,2.48,2.66-.47,4.25-1.18Z"/>
      <path class="cls-2" d="m160.26,27.29c-.28.03-.56.07-.84.1.02-.28.02-.56.09-.82,0-.06.39-.11.42-.06.15.24.23.51.33.78Z"/>
      <path class="cls-2" d="m156.42,67.37c.87,1.87,4.16,2.67,2.55,5.6-.32.59-1.46.88-1.6.28-.5-2.16-5.13-2.18-2.9-5.67.22-.34.19-.84.35-1.64.71.61,1.36.93,1.6,1.43Z"/>
      <path class="cls-2" d="m158.08,43.76c-.15.13-.31.26-.46.39-2.06-1.46-1.2,3.5-3.53,1.6-1.03-.85-2.08-1.64-2.09-3.1-.01-1.24.96-1.53,1.97-1.69,2.25-.35,3.88.2,4.11,2.8Z"/>
      <path class="cls-2" d="m155.74,27.01c3.28,1.5,1.69,3.36,1.03,5.22-1,2.81-2.17.38-3.42.32-4.5-.22-6.54-4.07-9.98-5.68-1.07-.5-1.66-1.04-1.22-2.21.24-.65.72-1.08,1.75-.87,1.72,2.14,4.04,2.31,6.45,2.38,1.83.06,3.71.07,5.39.84Z"/>
      <path class="cls-2" d="m76.65,14.09c.09,1.11.82,1.73,1.97,1.87.75.1,1.72.05,1.58,1.31-.92,1.09-2.78.89-3.46,2.45.56.44,1.02,1.09,1.59,1.21,3.7.75,7.95.43,9.18,5.47.14.58,1.95.51,1.83-.46-.43-3.45,3.6-4.74,3.53-7.91,3.11.4,5.05-1.87,8.56-3.29-.15-.02-.29-.04-.43-.04l.19-2.08c1.15,1.19,2.26,2.7,4.04,4.28l1.58.22c0,.89.69,1.53,1.78,1.98.85.35.29,1.08.02,1.64h0c-.37.24-.74.47-1.1.7.65.74,1.02.12,1.43-.29.32.06.72.03.96.21,3.2,2.45,6.18.46,9.17-.49,3.59-1.13-.14-2.18-.14-3.28,0-.07.02-.15.06-.23.21-.39.57-.69.85-1.03,1.98,2.47,5.26-.29,7.15,1.65,1.78,1.82.49,4-.16,6l-.04.03c-5.25-1.5-2.52,4.58-5.29,5.69-.68.27.71,1.91,1.45,2.11,4.42,1.21,4.69,5.31,4.71,8.33.02,3.65,1.73,6.08,4.17,7.22,2.67,1.25,4.28,3.21,6.16,5.63.72-2.15,1.28-3.84,1.85-5.51.67-1.95,2.07-1.42,3.19-.71.69.43,2.22,1.67,1.65,1.83-4.57,1.29-.73,3.58-.3,4.62,1.73,4.24,4.12,8.2,6.11,12.33,2.17,4.5,1.52,5.56-3.61,6.38-.51-1.4,2.04-2.42,1.27-2.69-2.14-.78-3.76-2.82-6.22-2.68-.85.04-.89.79-.8,1.48.37,2.72,2.76,2.96,4.67,3.76.3.13.64.16.97.23,1.3,3.59,6.24,2.97,7.48,5.62.65,1.39,1.48,2.28,2.42,2.83l-.89,1.82c-1.48,2.07-3.1,3.54-.27,5.72,1.02.79,1.08,3.59-.12,5.1-.68.86-1.39,1.16-.49,2.29,3.72,4.75-3.29,3.62-3.47,6.26-4.7-1.72-3.51,2.23-4.17,4.36-.58,1.89-.58,5.01-1.73,5.49-4.13,1.76-2.79,5.18-2.64,7.75.2,3.5-.12,6.43-2.54,9.11-.46.51-.86,1.48-.38,2.25l-1.89.7c-.41-1.12-.83-2.24-1.27-3.35.01,0,.01-.01.01-.01h0c.78-1.06,1.6-2.05,2.29-3.15.56-.88.57-1.84-.18-2.7-.48-.54-1.07-.77-1.73-.43-.98.53-1.29,1.49-1.17,2.49.16,1.28.52,2.52.79,3.78h-.01v.02c-2.1,2.98-.04,7.63-3.98,9.87-1.36.45-2.43,2.67-4.16.86-1.46-1.53.22-2.55.8-3.78.4-.86.46-1.87.7-2.81.14-.59.61-1.48-.36-1.47-.61,0-1.22.88-1.82,1.37-.1-2.14.42-4.33.32-6.36-.19-4.02-1.96-7.39-6.4-8.72-1.55-.47-3.54-2.71-3.54-3.58,0-.18.09-.3.29-.33,5.23-.76,3.66-5.14,3.31-6.87-1.37-6.79,3.21-10.14,6.84-14.18h.01c.1,2.09-.2,3.96,2.3,5.45,3.15,1.88,3.46,7.03.34,8.87-3.45,2.03-.22,4.08-.97,5.92.89.16,2.38-.04.97,1.53-.55.62-1.23,1.08-2.15.51-.72-.45-.64-2.89-2.18-1.05-.36.43.4,1.79.64,2.73-.05.14-.1.28-.16.41.09-.1.17-.21.25-.32,4.01.25,6.08-1.34,6.34-5.65.2-3.23,1.12-6.46,1.99-9.61,1.06-3.81,1.18-3.73-2.13-4.54-.54-.13-.93-.86-1.4-1.31-1.18-1.12-2.01-2.68-3.84-2.94h0c.85-2.81,2.08-1.94,3.41-.36.67.8,1.52,1.46,2.58.91,1.15-.6.68-1.65.52-2.63-.15-.96-.49-2.54-.06-2.82,3.78-2.49.62-4.31-.39-6.43-2.25-4.71-6.6-6.12-11.12-7.32.88-4.83-2.9-6.22-5.99-8.12-.97-.88-1.07-2.01-.94-3.22,1.85-.56,1.85-1.5.38-2.94-.15,1.11-.28,2.02-.4,2.92-2.46.52-4.53-.56-6.56-1.66-.38-.22-2.38-.41-.83-1.18,3.06-1.51.86-1.85-.34-1.92-6.42-.4-12.85-.61-19.28-.88-.25-.08-.5-.11-.74-.07-.08,0-.16.02-.23.05-.12-.03-.25-.06-.38-.09-.27-.07-.55-.14-.83-.21-.19-.47-.39-.47-.58,0l-.19.18c-2.42,1.76-5.77,2.44-6.55,6.09-.13.61-1.61,1.41-2.39,1.33-4.8-.52-6.07,2.24-6.19,6.25-.65.36-1.31.72-1.96,1.07-.32.34-.64.68-.95,1.01-2.47-2.32-4.05-.42-5.7,1.19-4.58-.11-9.71,2.98-11.33,6.8-1.07.32-2.34.41-2.39,1.94-.01.19.39.58.59.57,1.53-.08,1.63-1.32,1.89-2.42,1.71,1.74.63,3.36-.24,4.98-.51.04-1.01.09-1.51.13-3.21-2.38-4.43.15-6.01,2.3-.41.55-.59,1.22-.75,1.9-.33,1.51-.48,3.1-2.37,3.73-1.12-1.12-2.29-1.66-3.87-.3l-1.73-1.62c.89-.92.27-1.63-.33-2.35-.44-1.89-1.56-1.83-2.92-1-.57.35-1.24.93-.76,1.51.28.34.58.46.88.46l.02,1.86c-.29,0-.52.11-.7.3-.09.1-.17.21-.23.34-.04.06-.07.13-.09.2-.03.06-.06.14-.08.21-.01.13,0,.25.03.37,0,.07.02.13.04.19l-2.81.96c-.29-.99-.59-2.01-.91-3.09-1.74,5-2.57,8.93,3.45,11.7l1.02.52c-.6,1.26.21,3.05-.48,4.33q-1.3-3.33-4.74-3.05c2.99,4.18,2.3,8.05-1.86,10.35-.34-.04-.68-.07-1.02-.11.5-2.21,3.03-3.89,1.77-6.59-4.42,2.06-4.84,3.54-1.96,6.75.03.36.06.71.09,1.07.03.35.06.71.09,1.06-1.08.6-2.15,1.21-3.06,1.92-2.31,1.77-3.63,4.15-1.66,8.51-3.1-1.14-4.89.46-6.96,1.27-.43.17-.81.3-1.09.49l-2.64-.82c2.14-2.87,3.02-5.58.02-9.46l-.6-1.8c2.1-1.65,1.47-3.08,2.62-4.14,2.39-2.18,1.79-7.88-.57-10.06,1.58.23,3.36-.58,4.73.82.88.91,1.74.89,2.49-.07.68-.86.7-1.84.07-2.77-.81-1.17-1.63-2.34-2.31-3.3.63-1.7,3.75,1.18,2.93-1.68-.41-1.4-1.82-2.94-2.74-4.44-.51-.84-1.79-.77-2.77-.46-.89.28-.95.82-.88,1.43l-2.35.15c-.05-1.01-.2-2.08.25-2.87.49-.86-.73-2.31,1.69-2.05,3.71.39,6.86-1.06,9.42-3.91,2.42-2.68,5.06-5.07,4.64-9.25-.12-1.16.12-2.79.75-3.74.12-.18.26-.34.41-.46,5.43-4.37,4.04-10.12,4.06-15.85,0-2.52.62-5.67,3.23-7.5,1.81-1.27,2.58.77,3.84,1.24,1.53,3.26,2.43,1.07,3.41-.36,3.26.48,5.1-2.13,6.33-4.06,2.53-4,2.66-.7,3.56.75-.07,1.49.05,3.03-.15,4.49-.04.26-.09.51-.15.76-.41,1.77-.18,2.81,1.7,3.16,0,.32.01.64.02.95-.19.06-.35.14-.47.21-.03.02-.05.04-.07.06-.03.02-.05.04-.06.06-.07.08-.07.17.02.27.04.04.08.07.14.11.08.06.19.11.33.17-.03,1.53-1.33,2.52-1.69,3.85-.39,1.41-.68,2.91.2,3.63.1.08.21.15.33.2.47.22,1.16.29,2.13.16.15,1.12.9,1.76,1.84,2.24-.29-1.21.55-2.13.79-3.17.75-3.23,1.06-6.53.17-9.81l.02.02c-.18-.68-.36-1.35-.54-2.02-.14.4-.29.8-.44,1.19-1.81-.44-2.68-1.07-2.68-1.78,0-.65.73-1.38,2.15-2.12,1.66-.86,2.78-1.61,2.39-3.7-.4-2.16-1.91-2.47-3.69-2.48-.42-.4-.85-.79-1.27-1.19.32-.83.64-1.67,1.09-2.86l.52-2.3c.51.15.92-.44,1.5-1.19.96-1.26,3.27-2.73.59-4.41-.44-.27-.77-.53-1.02-.78-1.49-1.49.2-2.53,1.45-3.68,1.13-1.03,3.46-.47,3.73-2.87-2.04-.93-3.83-1.04-5.74-.2"/>
      <path class="cls-2" d="m81.64,6.15c1.25,2.45,1.58,4.42-.13,5.47-.64.39-1.57.66-2.84.76-.86.07-2.13.34-2.02,1.71"/>
      <path class="cls-2" d="m150.22,84.54c.67-2.23.9-3.79-.83-4.87-.19-.12-.77-.05-.84.1-.94,1.81.37,2.93,1.67,4.77Z"/>
      <path class="cls-2" d="m137.75,59.77c1.79-.82,1.17-2.67,1.68-4.31-2.27.09-3.36,1.22-3.77,2.81-.09.33,1.68,1.69,2.09,1.5Z"/>
      <path class="cls-2" d="m112.07,31.52c.07-1.93-.92-2.55-2.75-2.37-1.64.16-1.31-.91-1.06-1.92.65-2.57-.91-2.72-2.8-2.52-2.46.27-1.8,1.34-.99,2.88.49.93.24,2.23.32,3.37-1.32,0-2.63,0-3.95.02-.9-1.09,2.32-1.92.26-2.95-1.73-.85-3.14.55-3.2,1.83-.08,1.87,1.9.74,2.91,1.14.19,1.49,1.26,2.29,2.54,2.41,1.71.16,1.16-1.48,1.5-2.39.75.29,1.76.37,2.19.91,1.97,2.48,3.27-1.54,5.03-.41Z"/>
      <path class="cls-2" d="m103.94,19.65c.19-.21.37-.42.55-.63-.22-.11-.43-.26-.67-.32-.06-.01-.3.26-.27.33.08.23.25.42.39.62Z"/>
      <path class="cls-2" d="m96.57,27.23c.31-.04.87-.82.78-1.06-.62-1.61-2.24-.94-3.4-1.35-.54-.64-1.22-.88-2.03-.66-.12.03-.2.23-.29.35.66.25,1.32.5,1.98.76.44,1.48,1.49,2.13,2.96,1.96Z"/>
      <path class="cls-2" d="m79.65,57.43c1.9-1.48,2.58-3.42,1.97-5.75-.21-.83-.84-.8-1.55-.6-3.05.84-1.01,3.38-1.68,5.02-.22.55-.19,1.2-.33,2.17.8-.42,1.24-.57,1.59-.84Z"/>
      <polygon class="cls-2" points="75.34 60.27 75.53 59.91 75.2 59.88 75.34 60.27"/>
      <path class="cls-2" d="m73.66,37.55c.49-.53.71-1.14.06-1.72-.55-.5-1.55-.61-1.72-.06-.87,2.93-3.22,2.06-5.22,2.36-2.05.31-7.59,7.78-7.38,9.83.08.76.96.72,1.61.75,2.53,3.67,4.52-.3,7.36-.04-1.48-1.44-3.14-1.89-2.91-3.69.55-2.91,2.09-4.87,5.21-5.08,1.62-.11,2.12-1.42,2.99-2.35Z"/>
      <path class="cls-2" d="m70.7,60.49c1.49-2.28,3.06-4.52,4.6-6.78-3.53.7-5.91,2.69-6.98,6.03-.13.39.44,1.23.91,1.54.72.47,1.08-.19,1.47-.79Z"/>
      <path class="cls-2" d="m35.2,53.56c.2-.09.27-.46.4-.72-.26-.09-.59-.32-.73-.23-.21.12-.29.47-.43.72.26.09.58.31.76.23Z"/>
      <path class="cls-2" d="m22.08,103.84c1.19-.14,2.62-.57,2.12-2.01-.51-1.5-1.65-2.87-3.69-2.73-.34.27-1.4.91-.7.9,3.37-.04-1.14,4.26,2.27,3.84Z"/>
      <path class="cls-2" d="m18.63,93.48c.83.07,1.17-.53,1.17-1.14,0-.57-.19-1.37-.59-1.65-.59-.42-1.14.02-1.26.77-.07.44-.11.88.01,1.27.06.18.16.34.31.48.1.11.22.19.36.27Z"/>
      <path class="cls-2" d="m149.48,157.48l-1.31-1.49c-1.14-5.44,2.02-8.93,3.78-12.91.11-.11.23-.21.34-.32l2.78.49"/>
      <path class="cls-2" d="m153.96,61.81c.1.21.2.43.3.64-.21-.1-.43-.2-.64-.3l.34-.34Z"/>
      <path class="cls-5" d="m151.95,108.77l2.03.98c-.69,1.2-1.6,2.31-2.47,3.44-.86,1.12-1.63,1.79-.36,3.31,1.38,1.63.71,3.74-.03,6.87-.62-2.38-4.92-.95-2.37-4.68.33-.46-.38-.76-.87-.77-.89-.02-1.84.27-1.92,1.19-.16,1.94-.01,3.8.53,5.8.72,2.66,2.94,6.25-1.64,8.02.74-2.36-1.73-2.66-2.72-3.86-.13-.15-.04,1.92-1.38,2.21-.37-.18-.62-.4-.78-.65-.48-.77-.08-1.74.38-2.25,2.42-2.68,2.74-5.61,2.54-9.11-.15-2.57-1.49-5.99,2.64-7.75,1.15-.48,1.15-3.6,1.73-5.49.66-2.13-.53-6.08,4.17-4.36l-.23,2.44c-.62,0-1.13.4-.94,1.14.09.32.71.5,1.23.84l.35,2.12c-.11.05-.22.1-.34.14.02.11.01.27.07.33.1.07.25.06.38.09Z"/>
      <path class="cls-2" d="m153.96,61.81l-.34.34c-.08-.2-.16-.39-.24-.59.19.08.38.17.58.25Z"/>
      <path class="cls-2" d="m153.76,18.17c-.09.16-.18.33-.28.49-.22-.22-.45-.44-.67-.66h.01c.31.05.63.11.94.17Z"/>
      <path class="cls-2" d="m150.81,8.65c-3.41,3.54-1.5,5.85,1.76,7.93.27.18.17.93.25,1.41h-.01c-1.9.56-1.78,1.56-.76,2.94.75,1.02.97,2.13-.36,3-.45.29-.88.42-1.29.42-.74,0-1.36-.45-1.67-1.17-1.72-4.02-5.05-1.63-7.64-2.04-.75-.11-1.82.58-1.31,1.57.44.85.57,1.43.51,1.81-.15.88-1.37.64-2.34,0-1.13-.74-2.71.23-3.77-.06-.44-.12-.8-.45-.99-1.21-.52-2.02,1.62-3.06,2.71-4.45,1.83-2.32,2.4-6.69,7.09-4.43.52-2.31,4.45-2.26,3.77-5.4"/>
      <path class="cls-2" d="m151.9,54.42c1.39,1.81.74,3.26.68,5.35-2.32-2.14-1.82-3.48-.68-5.35Z"/>
      <path class="cls-2" d="m152.29,105.02c.05.28-.46.65-.8,1.07-.52-.34-1.14-.52-1.23-.84-.19-.74.32-1.14.94-1.14.06,0,.13,0,.19.01.35.05.84.54.9.9Z"/>
      <path class="cls-5" d="m152.29,142.76c-.11.11-.23.21-.34.32l-.21-.21c.11-.11.21-.23.32-.34l.23.23Z"/>
      <path class="cls-2" d="m151.84,108.21c.04.19.08.37.11.56-.13-.03-.28-.02-.38-.09-.06-.06-.05-.22-.07-.33.12-.04.23-.09.34-.14Z"/>
      <path class="cls-5" d="m149.39,79.67c1.73,1.08,1.5,2.64.83,4.87-1.3-1.84-2.61-2.96-1.67-4.77.07-.15.65-.22.84-.1Z"/>
      <path class="cls-5" d="m150.4,24.35l-.05,1.82c-2.41-.07-4.73-.24-6.45-2.38-1.03-.21-1.51.22-1.75.87l-1.86-.14c.06-.38-.07-.96-.51-1.81-.51-.99.56-1.68,1.31-1.57,2.59.41,5.92-1.98,7.64,2.04.31.72.93,1.17,1.67,1.17Z"/>
      <path class="cls-2" d="m46.18,237.6c-.7-.37-1.61-.48-1.88-1.82,1.82-.35,5.01,1.03,4.55-2.8,1.52.25,2.44,2.8,4.35,1.31,1.87-1.45-1.62-2.28-.63-3.7,1.28-1.93,3.21,4.04,3.6-.07.3-3.16.59-3.15,3.31-2.22,1.62.55,3.77-.44,5.58-.72.59-1.92-2.42-1.42-1.75-3.2.92-.62,1.91-.39,2.88-.18,1.69.36,3.99,1.67,4.41-1.11.31-2.01-.38-4.6-3.44-4.27-.63.07-1.01-.02-1.24-.19-.03-.02-.06-.04-.08-.07-.54-.53.02-1.72-.47-2.27.39-.26.78-.54,1.16-.83,1.28-.94,2.57-1.86,4.36-1.65,3.07,5.4,8.82,4.72,13.69,5.86,1.33.31,3.5-1.34,3.44-2.31-.23-3.85,2.39-3.26,4.61-3.62,1.89-.31,3.74-.82,5.84-1.29l1.94.02c-.49,2.01-1.4,3.96-3.03,5.78,5.95-3.55,7.8-7.54,5.3-10.43,2.69-2.13,5.86-.1,9.37-1.3-.97-.69-2.27-1.15-2.32-1.72-.4-4.78-4.94-3.03-7.29-4.66-.56-.39-1.94-.31-1.84,1.37v.06l-2.37.15c-1.18-.99-2.14.54-3.24.25-.01-.37.03-.68.11-.96.02-.08.05-.16.09-.23.09-.22.22-.41.37-.59t.01-.01c.05-.06.1-.11.16-.17.05-.06.11-.11.17-.16.09-.08.2-.17.31-.24.36-.27.79-.51,1.23-.77,1.73-1.03,3.16-2.42,3.23-4.47l2.06.11c2.07.13,4.9,3.06,5.23,1.62,1.1-4.68,5.6-7.83,5.49-12.62-.03-1.71-1.35-3.51-.58-5.48.06-.14.11-.27.16-.4-.08.1-.16.21-.24.31-.63-1.25-1.25-2.51-1.87-3.76.04-1.78,2.19-3.39,2.51-2.7,1.82,3.86,1.62-.44,2.35-.45,1.87-.03-.15-4.28,3.09-2.86-.33,3.21,1.73,3.94,4.55,4.9-.66-2.39-2.64-3.11-2.68-4.95,2.59-.19,3.5-1.01,2.43-3.91-.48-1.33-.87-2.92-.94-4.43-.07-1.63.23-3.17,1.19-4.22.54-.59,1.04-1.19,1.53-1.8l.77.58c-1.1,3.2-1.2,5.11-.02,7.74.49-.79.81-1.52.98-2.24l2.22.23c-.07.32-.03.7.15,1.16.15.38.76.94,1.01.87,1.59-.46.63-1.93,1.03-2.89,4.58,1.9,4.31-1.02,3.98-4,.52,0,1.04,0,1.56,0,.23,0,.45,0,.67.02-.09-.14-.18-.28-.27-.41.38-1.49.64-3.42,1.49-3.42.48,0,1.15.62,2.13,2.29.67,1.13,1.35,1.22,2.38.54.6-.39,1.03-.76.92-1.32l2.01-.04c.3.99,1.04,1.93,2.21,3.16l1.31,1.49"/>
      <path class="cls-2" d="m123.3,222.33c-2.15.82-3.97-.51-5.88-1.25-1.13-.45-2.3-.7-3.58-.15-.26-.95-.59-3.19-1.15-2.39-.81,1.15-3.2,1.76-4.06,3.02l-1.27-.45c.62-1.28.99-2.76,1.49-4.14.05-.13.1-.26.16-.38-.07.11-.14.22-.21.34-4.84.32-8.08,4.62-12.48,5.39-4.19.73-5.36,3.74-7.3,6.4-.11.13-.23.26-.36.38-4.13,1.2-8.67-7.72-12.56.5-.11.23-1.12.37-1.37.15-3.2-2.77-5.63.37-8.86.64,1.92,1.82,4.6.69,5.64,2.64.99,1.87,1.96,4.01-.57,5.67-1.51.99-2.89,1.5-4.26,1.16-.86-.21-1.73-.77-2.62-1.77-2.22-2.48-5.34-2.86-8.59-2.11-1.51.35-2.35,1.17-2.44,2.69-.15,2.71,2.6,2.66,3.87,4.03"/>
      <path class="cls-2" d="m125.12,222.27c2.25-3.81,1.76-4.16-3.83-4.57.11,1.68,2.47,2.39,2.12,4.23"/>
      <path class="cls-2" d="m135.9,199.56c-1.61-.54-3.64,2.53-4.97-.57-.33-.77-.26-2.4-1.73-1.37-.85.6-1.78,1.96-.54,2.93,1.84,1.44,1.34,3.15.39,4.36-1.29,1.67-1.73,3.54-2.05,5.45-.32,1.9-.5,3.86-1.3,5.71,2.32,0,3.06-2.64,5.16-2.06"/>
      <path class="cls-2" d="m148.62,160.29l-2.54.17c-.23-1.11-1.2-2.28-1.88-3.49,1.08,4.85-6.04,6.5-4.98,11.95.63-.43,1.12-.94,1.54-1.46l2.77.15"/>
      <path class="cls-2" d="m134.02,188.11c5.69-4.31,6-9.96,3.85-16.29-.34,4.99-3.17,8.83-5.31,12.93-1.12,2.15-3.18,3.86-2.75,6.66.15.98.15,2.13,1.4,2.29,1.36.17,1.6-.94,1.59-1.96-.01-1.37.12-2.8,1.22-3.63Z"/>
      <path class="cls-2" d="m135.69,195.93c-.08-.31-.11-1.03-.33-1.1-.9-.26-1.39.49-1.88,1.08-.4.48-.18.97.29,1.17.98.44,1.39-.32,1.92-1.15Z"/>
      <path class="cls-2" d="m131.18,168.44c.93-1.25,1.05-2.61-.21-4.41-1.62,1.56-1.74,2.99-1.05,4.52.07.14,1.08.13,1.26-.11Z"/>
      <path class="cls-2" d="m126.55,193.9c.66-.97.27-2.3-.71-2.48-3.08-.55-2.94-2.22-2.33-4.64.29-1.13-.42-2.53-.7-3.81.01,0,.01,0,.02,0,.77.17,1.54.34,2.31.52-1.04-3,2.8-6.14-.1-9.55-1.04,3.27-5.96,5.1-2.22,9.02h-.01v.02c-2.05,1.25-3.38,3.13-4.51,5.18,3.3.43,2.94,4.96,6.21,5.51.69.12,1.34,1.26,2.04.24Z"/>
      <path class="cls-2" d="m122.15,213.03c3.68-.61,4.34-4.9,1.2-9.17-1.51,1.94-.83,4.63-2.98,5.86-.86.49-1.88.44-.88,1.93.74,1.1,1.21,1.61,2.66,1.38Z"/>
      <path class="cls-2" d="m122.42,200.36c.28-1.67,1.1-3.73-1.59-4.39-.7-.89-1.62-.74-2.55-.57-.62-1.94-2.25-3.09-3.75-1.86-2.53,2.1-2.13,5.05-.67,9.44l2.19.96c-.66,2-1.14,3.88-1.9,5.64-.79,1.83-3.69,3.3-2.35,5.35,1.58,2.42,3.35-2.09,5.73-.38-4.86-3.33,1.33-7.03-1.48-10.61l2.52-1.61.27-.36s.02-.03.03-.05c1.35-.19,3.2.57,3.55-1.56Z"/>
      <path class="cls-2" d="m143.53,167.61l-2.77-.15c1.23-1.59,1.72-3.38,2.83-3.87,2.23-.98,2.72-2.03,2.49-3.13l2.54-.17"/>
      <path class="cls-5" d="m148.15,69.24c.77.27-1.78,1.29-1.27,2.69l-.11.1c-.33-.07-.67-.1-.97-.23-1.91-.8-4.3-1.04-4.67-3.76-.09-.69-.05-1.44.8-1.48,2.46-.14,4.08,1.9,6.22,2.68Z"/>
      <path class="cls-2" d="m147.57,34.7c.8-.21,1.09.37,1.14,1.07-.38,1.21-1.32,1.29-2.32,1.17-.75-.08-1.31-.68-.88-1.24.42-.55,1.32-.8,2.06-1Z"/>
      <path class="cls-5" d="m146.76,8.97c.68,3.14-3.25,3.09-3.77,5.4-4.69-2.26-5.26,2.11-7.09,4.43-1.09,1.39-3.23,2.43-2.71,4.45.19.76.55,1.09.99,1.21l-2.68.66c-1.37-.88-2.85-1.41-4.67-1.14.65-2,1.94-4.18.16-6-1.89-1.94-5.17.82-7.15-1.65-.28.34-.64.64-.85,1.03-.04.08-.06.16-.06.23l-1.47.1c-.15-1.11-.7-1.88-2.38-2.01-.2-1.53-1.91-1.74-2.54-2.89-.53-.99-.48-2.54.48-2.42,4.56.53,6.66-4.79,11-4.46"/>
      <path class="cls-5" d="m131.84,16.19c3.91,1.89,1.53-5.07,5.39-3.72-2.46-2.14-4.38-1.47-5.85.26-.89,1.05-.85,2.83.46,3.46Z"/>
      <polygon class="cls-5" points="132.27 7.21 132.48 6.86 132.15 6.81 132.27 7.21"/>
      <path class="cls-5" d="m146.08,160.46c.23,1.1-.26,2.15-2.49,3.13-1.11.49-1.6,2.28-2.83,3.87-.42.52-.91,1.03-1.54,1.46-1.06-5.45,6.06-7.1,4.98-11.95.68,1.21,1.65,2.38,1.88,3.49Z"/>
      <path class="cls-5" d="m144.81,133c1.04,1.85,1.88,3.73.98,5.93-1.21-.89-1.99-1.63-2.36-2.32-.6-1.13-.11-2.15,1.38-3.61Z"/>
      <path class="cls-2" d="m145.27,39.9c.07.23-.43.85-.74.9-1.24.21-1.61-.7-1.86-1.67l.24-.25c.88.16,2.02-.2,2.36,1.02Z"/>
      <path class="cls-2" d="m142.13,129.07c.99,1.2,3.46,1.5,2.72,3.86-.02,0-.04.01-.06.02.01.02.02.03.02.05-1.49,1.46-1.98,2.48-1.38,3.61l-2.6,1.32c-1.07-2.12-1.91-4.36-2.75-6.6l1.89-.7c.16.25.41.47.78.65,1.34-.29,1.25-2.36,1.38-2.21Z"/>
      <path class="cls-5" d="m144.85,132.93s0,.03-.02.05l-.04-.03s.04-.02.06-.02Z"/>
      <path class="cls-5" d="m144.83,132.98l-.02.02s0-.03-.02-.05l.04.03Z"/>
      <path class="cls-5" d="m143.95,152.87c.11.56-.32.93-.92,1.32-1.03.68-1.71.59-2.38-.54-.98-1.67-1.65-2.29-2.13-2.29l-.15-2.52c.55,0,1.05-.49,1.5-1.22.56-.93.69-2.32,2.55-2.31.4,2.28-.28,4.86,1.23,6.94.17.23.26.44.3.62Z"/>
      <path class="cls-2" d="m141.43,30.06c-1.39,3.33,1.98,5.74,1.48,8.82l-.24.25c-1.87-.01-2.34-2.21-4.24-2.7.61,3.98-1.78,4.44-4.64,3.91-1.27-.23-2.72-1.27-2.11-2.73.53-1.26,1.87.26,3.73.55-2.06-2.59-5.67-3.38-4.17-7,.35-.85-.95-1.12-1.77-1.19-4.47-.39-3.99-2.98-2.68-5.96l.04-.03c1.82-.27,3.3.26,4.67,1.14.67.43,1.32.95,1.96,1.49,1.73,1.47,2.8,5.04,6.22,2.21.5-.41,2.01.64,1.75,1.24Z"/>
      <path class="cls-5" d="m140.83,137.93c1.45,2.86,1.24,4.61-1.97,5.67-.75.24-1.37.92-1.99,1.47-1.24,1.12-.36,2.19.32,3.03.42.52.81.74,1.18.74l.15,2.52c-.85,0-1.11,1.93-1.49,3.42-.14.12-.27.26-.4.39-.52,0-1.04,0-1.56,0-.16-.13-.32-.27-.47-.4,1.58-5.54-2.22-11.55,2.53-17.08-2.8-.36-2.85,2.03-4.27,2.1l-.03-1.95c3.94-2.24,1.88-6.89,3.98-9.87.44,1.11.86,2.23,1.27,3.35.84,2.24,1.68,4.48,2.75,6.6Z"/>
      <path class="cls-5" d="m138.93,122.12c.75.86.74,1.82.18,2.7-.69,1.1-1.51,2.09-2.29,3.14-.27-1.26-.63-2.5-.79-3.78-.12-1,.19-1.96,1.17-2.49.66-.34,1.25-.11,1.73.43Z"/>
      <path class="cls-5" d="m139.43,55.46c-.51,1.64.11,3.49-1.68,4.31-.41.19-2.18-1.17-2.09-1.5.41-1.59,1.5-2.72,3.77-2.81Z"/>
      <path class="cls-5" d="m137.87,171.82c2.15,6.33,1.84,11.98-3.85,16.29-1.1.83-1.23,2.26-1.22,3.63,0,1.02-.23,2.13-1.59,1.96-1.25-.16-1.25-1.31-1.4-2.29-.43-2.8,1.63-4.51,2.75-6.66,2.14-4.1,4.97-7.94,5.31-12.93Z"/>
      <path class="cls-5" d="m137.03,154.78c.09.13.18.27.27.41-.22-.01-.44-.01-.67-.02.13-.13.26-.27.4-.39Z"/>
      <path class="cls-2" d="m132.86,139.8c1.42-.07,1.47-2.46,4.27-2.1-4.75,5.53-.95,11.54-2.53,17.08-1.26,1.39-4.3,1.01-3.96,3.99-.88.22-1.58.58-1.74,1.27l-2.22-.23c.39-1.65,0-3.25-.96-5.5l-.77-.58c1.45-1.83,2.69-3.75,3.81-5.75,1.49-2.65,2.78-5.41,4.1-8.18Z"/>
      <polygon class="cls-5" points="136.82 127.96 136.82 127.97 136.81 127.97 136.82 127.96"/>
      <path class="cls-5" d="m136.82,127.97s0,.01-.01.01h0s.01-.01.01-.01Z"/>
      <path class="cls-2" d="m137.23,12.47c-3.86-1.35-1.48,5.61-5.39,3.72-1.31-.63-1.35-2.41-.46-3.46,1.47-1.73,3.39-2.4,5.85-.26Z"/>
      <path class="cls-6" d="m134.06,96.23c3.31.81,3.19.73,2.13,4.54-.87,3.15-1.79,6.38-1.99,9.61-.26,4.31-2.33,5.9-6.34,5.65l-.09-.09c-.24-.94-1-2.3-.64-2.73,1.54-1.84,1.46.6,2.18,1.05.92.57,1.6.11,2.15-.51,1.41-1.57-.08-1.37-.97-1.53.75-1.84-2.48-3.89.97-5.92,3.12-1.84,2.81-6.99-.34-8.87-2.5-1.49-2.2-3.36-2.3-5.45,1.83.26,2.66,1.82,3.84,2.94.47.45.86,1.18,1.4,1.31Z"/>
      <path class="cls-5" d="m132.13,211.05c-1.12-.19-1.81-2.41-3.09-1.04-.19.2-.29.39-.33.57l-1.71-.22c.32-1.91.76-3.78,2.05-5.45.95-1.21,1.45-2.92-.39-4.36-1.24-.97-.31-2.33.54-2.93,1.47-1.03,1.4.6,1.73,1.37,1.33,3.1,3.36.03,4.97.57"/>
      <path class="cls-6" d="m134.88,80.65c1.01,2.12,4.17,3.94.39,6.43-.43.28-.09,1.86.06,2.82.16.98.63,2.03-.52,2.63-1.06.55-1.91-.11-2.58-.91-1.33-1.58-2.56-2.45-3.41.35h-.01c-3.63,4.05-8.21,7.4-6.84,14.19.35,1.73,1.92,6.11-3.31,6.87-.2.03-.29.15-.29.33l-2.83.02c-.03-3.02-.27-6.03-.49-9.05-.09-1.19-.49-2.67.49-3.3,3.42-2.18,2.73-4.58-.59-8.16,6.37,2.16,4.98-1.29,4.78-3.79-.24-2.96-2.07-4.81-4.54-6.12-2.34-1.24-3.69.31-5,1.88,2.29,1.47.68,2.36-.63,2.29-2.06-.1-3.22.3-3.86,1.03l-2.87-.55c.68-.58.82-1.41-.02-2.8-.28-2.81.49-6.32-4.57-5.27-2.23.46-2.32-1.71-2.44-3.36.97-1.62,1.95-3.24,2.89-4.8-2.91-1.04-5.72-1.9-8.4-3.05-3.7-1.6-3.93.22-3.43,3.12.28,1.61,1.97,3.54-.88,4.58-3.57,1.31-5.31,4.38-6.95,7.46-1.62,3.03-3.62,5.17-7.42,4.41-3.48-.69-5.7,1.91-6.81,4.07-2.32,4.54-7.02,6.92-9.42,11.52,1.66.12,3.2.59,4.56.26,3.44-.83,4.62-.79,3.29,3.49-.67,2.15-2.85,5.62.67,7.91-.13,3.06-.61,6.12-3.04,8.17-1.6,1.35-2.4,4.97-4.99,3.63-2.42-1.25-.25-4.6-1.11-6.95-.21-.57.95-1.64,1.46-2.49.7-1.15-.38-8.92-1.26-8.85-2.77.25-3.93,2.74-5.47,4.58-.55.66-.55,1.87-.6,2.85-.17,3.12-.4,6.23-.96,9.27l-2.4-.43c.06-.22.06-.47-.01-.79-.05-.22-.47-.58-.64-.54-1.37.31-.89,1.48-1.04,2.36h-.01c-2.46.45-4.83,1.92-4.47,4.24.34,2.14,1.09,4.5,3.02,5.84l-2.71,1.25c-1.08-.89-2.17-1.77-3.6-1.01-1.09.58-.09,1.82-.26,2.74-1.69-.39-2.47-.98-2.64-1.7-.21-.87.48-1.94,1.58-3.1.63-.34,1.84-.49,1.46-1.36-.44-1-1.24-.13-1.83.24-1.32-2.74-3.2-4.08-5.82-3.71l-.21-1.4c.68-.07,1.32-.38,1.95-.72,1.22-.65.31-1.25.07-1.98-.31-.92-.32-1.93-.46-2.9.58-.63.51-1.24-.01-1.85.07-.73.15-1.46.23-2.19.1-.09.2-.17.31-.27.11-.09.23-.18.34-.26.23-.17.46-.34.68-.51.44-.35.84-.73,1.09-1.18,2.35-4.26,2.74-1.53,3.29.82,0,.01-.01.01-.01.01l-.24.28.26-.26s0-.02,0-.03c3.12-1.99,2.26-5.03,1.18-7.33-.91-1.93-1.18-3.68-1.16-5.64.49-.29,1.27-.52,1.36-.9.19-.81-.59-.9-1.23-.92-.45-3.6,3.19-5.19,4.01-8.16.33-.31.66-.63.99-.94,1.89-.63,2.04-2.22,2.37-3.73l2.47.22c-.17.58-.12,1.29.26,2.2-2.17,1.61-3.84,4.15-2.16,6.22,1.69,2.07,2.78.35,3.94-.95.07-.08.15-.16.22-.24.28-.29.57-.55.87-.72h.01c5.18,3.49,6.05-1.44,8.07-4.13,2.35-1.15,2.64-4.08,5.44-5.36,2.44-1.11.78-4.64-2.56-5.41,1.89-1.89,4.64-2.72,6.71-4.38.19-.15.37-.31.55-.48.7-.67,1.29-1.47,1.7-2.49,2.01.46,3.34-.95,4.89-1.76,1.44.11,2.37-.53,3.33-1.64,3.51-4.11,6.85-8.51,13.05-9.47-2.23-1.04-3.79-2.26-3.3-4.75l.19-.18.29.03.29-.03c.28.07.56.14.83.21.13.04.25.07.38.1h.01c.23.29.44.56.67.85.09-.28.19-.56.29-.84,6.43.27,12.86.48,19.28.88,1.2.07,3.4.41.34,1.92-1.55.77.45.96.83,1.18,2.03,1.1,4.1,2.18,6.56,1.66l.02.02c-.13,1.21-.03,2.34.94,3.22-.27,4.2,4.47,5.57,5.2,9.2.26-.36.52-.72.79-1.08,4.52,1.2,8.87,2.61,11.12,7.32Zm-81.84,24.87s.31-.28.28-.34c-.11-.25-.29-.47-.45-.7-.2.2-.39.4-.58.61.25.15.48.32.75.43Zm-6.67,10.27c1.98-1.79,1.44-4.13.95-6.62-.05,2.45-2.36,2.99-3.53,4.46-.63.79-1.16,1.75-.36,2.62,1.07,1.17,2.1.3,2.94-.46Z"/>
      <path class="cls-5" d="m135.36,194.83c.22.07.25.79.33,1.1-.53.83-.94,1.59-1.92,1.15-.47-.2-.69-.69-.29-1.17.49-.59.98-1.34,1.88-1.08Z"/>
      <path class="cls-5" d="m135.07,155.18c.33,2.98.6,5.9-3.98,4-.16-.12-.31-.26-.45-.41-.34-2.98,2.7-2.6,3.96-3.99.15.13.31.27.47.4Z"/>
      <path class="cls-3" d="m132.83,137.85l.03,1.95c-1.32,2.77-2.61,5.53-4.1,8.18l-2.68-.17c.2-.15.42-.31.67-.5-.38-.42-.66-.72-.93-1.03-.31.29-.82.55-.89.9-.03.16.08.34.22.54l-2.27,1.53c-.32.24-.67.37-.7.56-.01.07,0,.16.02.26l-1.42.46c-.07-.17-.14-.33-.23-.5-.97-1.87-.99-3.89.21-5.7.83-1.24,1.55-.97,1.86.46-.09.22-.17.44-.26.66.22-.1.43-.19.64-.28.26-3.91-.04-7.87,1.6-11.65.54-1.24,1.17-1.35,2.16-1.39.2.36.39.72.59,1.09.16-.38.32-.77.49-1.15l.15-.05c.6-.49,1.21-1.37,1.82-1.37.97-.01.5.88.36,1.47-.24.94-.3,1.95-.7,2.81-.58,1.23-2.26,2.25-.8,3.78,1.73,1.81,2.8-.41,4.16-.86Zm-5.69,6.81c.07-.06.04-.24.05-.37-.14-.05-.29-.17-.4-.14-.44.15-.46.39-.05.61.09.05.31-.02.4-.1Z"/>
      <polygon class="cls-4" points="132.48 6.86 132.27 7.21 132.15 6.81 132.48 6.86"/>
      <path class="cls-2" d="m130.2,212.67c-.63-.63-1.66-1.29-1.49-2.09.04-.18.14-.37.33-.57,1.28-1.37,1.97.85,3.09,1.04"/>
      <path class="cls-5" d="m130.97,164.03c1.26,1.8,1.14,3.16.21,4.41-.18.24-1.19.25-1.26.11-.69-1.53-.57-2.96,1.05-4.52Z"/>
      <path class="cls-5" d="m131.09,159.18c-.4.96.56,2.43-1.03,2.89-.25.07-.86-.49-1.01-.87-.18-.46-.22-.84-.15-1.16.16-.69.86-1.05,1.74-1.27.14.15.29.29.45.41Z"/>
      <path class="cls-5" d="m130.86,214.01c-2.1-.58-2.84,2.06-5.16,2.06.8-1.85.98-3.81,1.3-5.71l1.71.22c-.17.8.86,1.46,1.49,2.09"/>
      <polygon class="cls-2" points="128.82 91.97 128.82 91.98 128.81 91.98 128.82 91.97"/>
      <path class="cls-3" d="m126.08,147.81l2.68.17c-1.12,2-2.36,3.92-3.81,5.75-.49.61-.99,1.21-1.53,1.8-.96,1.05-1.26,2.59-1.19,4.22l-2.09.07c-2.12-1.53-6.34,2.09-5.69-2.69.29-2.09,2.64-3.98,2.83-6.9,2.55,1.49-.59,3.86,1.83,5.07,1.24-1.36,2.51-2.63,1.67-4.77l1.42-.46c.06.2.18.41.31.45.49.17.87-.08.83-.64-.02-.22-.3-.42-.46-.63l2.27-1.53c.12.17.27.34.37.51.18-.13.36-.27.56-.42Z"/>
      <path class="cls-6" d="m128.31,125.66c.1,2.03-.42,4.22-.32,6.36l-.15.05-1.08.06c-.99.04-1.62.15-2.16,1.39-1.64,3.78-1.34,7.74-1.6,11.65-.12-.13-.25-.26-.38-.38-.31-1.43-1.03-1.7-1.86-.46-1.2,1.81-1.18,3.83-.21,5.7.09.17.16.33.23.5.84,2.14-.43,3.41-1.67,4.77-2.42-1.21.72-3.58-1.83-5.07-.19,2.92-2.54,4.81-2.83,6.9-.65,4.78,3.57,1.16,5.69,2.69-4.2.75-6.73,3.3-8.38,6.61-1.94,3.88-2.87,1.04-4.09-.42,1-2.69,1.37-5.48,1.16-8.33-.18-2.39-.25-5.72,1.3-6.63,4.12-2.4,3.48-6.77,5.13-10.07,2.48-4.97,6.12-10.49-.22-15.68-.58-.48-.34-2.27-.13-3.39.52-2.84.67-5.68.63-8.53l2.83-.02c0,.87,1.99,3.11,3.54,3.58,4.44,1.33,6.21,4.7,6.4,8.72Z"/>
      <path class="cls-6" d="m127.86,116.03c-.08.11-.16.22-.25.32.06-.13.11-.27.16-.41l.09.09Z"/>
      <path class="cls-2" d="m127.84,132.07c-.17.38-.33.77-.49,1.15-.2-.37-.39-.73-.59-1.09l1.08-.06Z"/>
      <path class="cls-6" d="m127.19,144.29c0,.13.02.31-.05.37-.09.08-.31.15-.4.1-.41-.22-.39-.46.05-.61.11-.03.26.09.4.14Z"/>
      <path class="cls-5" d="m125.72,154.31c.97,2.25,1.35,3.85.96,5.5-.17.72-.49,1.45-.98,2.24-1.18-2.63-1.08-4.54.02-7.74Z"/>
      <path class="cls-5" d="m125.84,191.42c.98.18,1.37,1.51.71,2.48-.7,1.02-1.35-.12-2.04-.24-3.27-.55-2.91-5.08-6.21-5.51,1.13-2.05,2.46-3.93,4.51-5.18.28,1.28.99,2.68.7,3.81-.61,2.42-.75,4.09,2.33,4.64Z"/>
      <path class="cls-6" d="m126.75,147.31c-.25.19-.47.35-.67.5s-.38.29-.56.42c-.1-.17-.25-.34-.37-.51-.14-.2-.25-.38-.22-.54.07-.35.58-.61.89-.9.27.31.55.61.93,1.03Z"/>
      <path class="cls-5" d="m123.41,221.93c.35-1.84-2.01-2.55-2.12-4.23,5.59.41,6.08.76,3.83,4.57"/>
      <path class="cls-5" d="m125.04,173.93c2.9,3.41-.94,6.55.1,9.55-.77-.18-1.54-.35-2.31-.52h0s-.01-.01-.01-.01c-3.74-3.92,1.18-5.75,2.22-9.02Z"/>
      <path class="cls-5" d="m116.5,223.82l.92-2.74c1.91.74,3.73,2.07,5.88,1.25"/>
      <path class="cls-2" d="m117.78,1.95c.13.88-.29,1.99.85,2.46.19.07.87-.44.93-.75.26-1.38-.91-1.42-1.77-1.73"/>
      <path class="cls-2" d="m111.23,2.57l2.03-.27c.04.09.1.18.16.28,1.25,1.98,2.24-1.03,3.59-1.01"/>
      <path class="cls-2" d="m97.66,4.78c1.68.59,2.84,3.41,5.17,1.21"/>
      <path class="cls-2" d="m124.02,5.91c-4.34-.33-6.44,4.99-11,4.46-.96-.12-1.01,1.43-.48,2.42.63,1.15,2.34,1.36,2.54,2.89-.18.21-.39.39-.62.55-1.31-.14-2.63-.24-3.93-.44-1.19-.19-2.56-1.5-3.44.27-.19.39-.28.74-.28,1.06l-1.58-.22c-1.14-3.1,5.09-8.05-3.43-6.55-.4.07-.97-.82-1.48-1.24-.62-.49-1.33-1.3-2.04-.26-.52.77-.24,1.63.65,2.06.86.41,1.57,1.01,2.26,1.71l-.19,2.08c-3.55-.37-5.79.9-8.16,1.3h0s-.02-.02-.03-.03c-.12-2.31,4.03-1.83,3-5.22l-1.46-1.95"/>
      <path class="cls-3" d="m117.77,65.21c3.09,1.9,6.87,3.29,5.99,8.12-.27.36-.53.72-.79,1.08-.73-3.63-5.47-5-5.2-9.2Z"/>
      <path class="cls-5" d="m123.35,203.86c3.14,4.27,2.48,8.56-1.2,9.17-1.45.23-1.92-.28-2.66-1.38-1-1.49.02-1.44.88-1.93,2.15-1.23,1.47-3.92,2.98-5.86Z"/>
      <path class="cls-3" d="m123.17,164.18c1.07,2.9.16,3.72-2.43,3.91-.62,0-1.25.03-1.87.05-3.24-1.42-1.22,2.83-3.09,2.86-.73.01-.53,4.31-2.35.45-.32-.69-2.47.92-2.51,2.7-.35.31-.71.63-1.06.95-1.38-1.64-2.31.91-3.57.38-.55-3.3,1.15-6.28,1.38-9.47,1.22,1.46,2.15,4.3,4.09.42,1.65-3.31,4.18-5.86,8.38-6.61l2.09-.07c.07,1.51.46,3.1.94,4.43Z"/>
      <path class="cls-6" d="m123.34,149.88c.04.56-.34.81-.83.64-.13-.04-.25-.25-.31-.45-.02-.1-.03-.19-.02-.26.03-.19.38-.32.7-.56.16.21.44.41.46.63Z"/>
      <path class="cls-6" d="m123,145.17c-.21.09-.42.18-.64.28.09-.22.17-.44.26-.66.13.12.26.25.38.38Z"/>
      <polygon class="cls-5" points="122.83 182.95 122.83 182.96 122.82 182.95 122.83 182.95"/>
      <path class="cls-5" d="m122.83,182.96s-.01,0-.02,0v-.02h.02Z"/>
      <path class="cls-2" d="m120.83,195.97c2.69.66,1.87,2.72,1.59,4.39-.35,2.13-2.2,1.37-3.55,1.56.85-1.21,3.03-1.75,2.03-3.92-.03-.68-.06-1.36-.1-2.04,0,0,.02,0,.03,0Z"/>
      <path class="cls-5" d="m120.74,168.09c.04,1.84,2.02,2.56,2.68,4.95-2.82-.96-4.88-1.69-4.55-4.9.62-.02,1.25-.04,1.87-.05Z"/>
      <path class="cls-2" d="m115.82,0c-1.42.25-3.38.65-2.56,2.3l-2.03.27"/>
      <path class="cls-2" d="m120.9,198c1,2.17-1.18,2.71-2.03,3.92-.02,0-.04,0-.06,0-.08.14-.16.27-.24.4l-2.52,1.61-2.19-.96c.91-5.62,4.34-4.53,7.04-4.98Z"/>
      <path class="cls-5" d="m120.8,195.96c.04.68.07,1.36.1,2.04-2.7.45-6.13-.64-7.04,4.98-1.46-4.39-1.86-7.34.67-9.44,1.5-1.23,3.13-.08,3.75,1.86.63,1.1,1.72.17,2.52.56Zm-4.98,0c.11.05.23.11.34.17-.11-.06-.22-.12-.34-.18-.1-.07-.21-.13-.32-.2.11.07.21.14.32.21Z"/>
      <path class="cls-2" d="m120.83,195.97s-.02,0-.03,0c-.8-.39-1.89.54-2.52-.56.93-.17,1.85-.32,2.55.57Z"/>
      <path class="cls-1" d="m119.73,89.08c.2,2.5,1.59,5.95-4.78,3.79,3.32,3.58,4.01,5.98.59,8.16-.98.63-.58,2.11-.49,3.3.22,3.02.46,6.03.49,9.05.04,2.85-.11,5.69-.63,8.53-.21,1.12-.45,2.91.13,3.39,6.34,5.19,2.7,10.71.22,15.68-1.65,3.3-1.01,7.67-5.13,10.07-1.55.91-1.48,4.24-1.3,6.63.21,2.85-.16,5.64-1.16,8.33-.23,3.19-1.93,6.17-1.38,9.47-1.46,2.16-2.23,4.55-2.81,7.01-.84,3.54-1.3,7.21-2.95,10.49-3.23-.23-6.42-.39-7.8,3.52-.3.85-.99,1.32-1.9,1.32-6.27.01-10.47,5.47-16.48,6.23-.6.08-1.11,1.07-1.6,1.7-3.4,4.28-6.34,4.53-10.83,1.27-3.13-2.27-6.21-4.79-10.34-5.1.1-.86.02-1.99-.78-2.17-4.43-.95-5.1-5.4-7.55-8.12-1.75-1.94-2.28-5.09-.71-7.49,1.84-2.82.96-4.86-.66-7.21-1.03-1.49-3.08-2.95-1.21-5.2,1.34.24,2.47,3.34,3.89.7.87-1.63.26-3.76-2.07-4.3-1.23-.28-2.17-.73-2.48-1.68-.11-.35-.14-.78-.06-1.3.09-.56.58-1.53.88-1.53,1.59.05,3.89-.32,4.43,1.34,1.02,3.12,2.55,1.85,4.08.9,1.06-.65,2.11-.91,3.3-.89.76,2.65.13,5.14-.62,7.61-.09.32-.19.63-.29.95-.13.4-.25.81-.37,1.22-.58,2.04-1.01,4.1-.56,6.27-3.8,4.05-3.48,5.81,1.55,6.88,3.59.76,4.58,2.78,4.01,6.09-.38,2.19-1.84,5.13.66,6.26,2.19.98,3.15-2.45,4.95-3.54.5-.3.68-1.1,1.04-1.65,2.08-3.13,4.45-5.55,8.8-3.22-1.4-1.27-1.82-3.05-.57-3.53,5.47-2.07,3.28-11.27,10.81-11.35.7,0,1.54-1.64,2.04-2.66,1.7-3.51,1.25-7.41,1.54-11.12.2-2.62-1.73-2.26-3.38-1.04-1.24.91-2.58,2.91-3.55-.24.76-1.28,1.53-2.55,2.3-3.83.63-.66,1.27-1.33,1.91-1.99h0c.64-.29,1.28-.57,1.92-.85,5.36,2.72,14.87-3.49,14.84-10.16-.01-4.3.33-8.8,2.55-11.96,3.96-5.65.26-12.98,4.95-18.14.23-.26.2-1.22-.04-1.38-3.25-2.22-1.97-5.71-2.5-8.69-.02-1.25-.04-2.51-.06-3.77,1.07-2.36.66-4.94.57-7.32-.09-2.24-.51-4.41.56-5.65.64-.73,1.8-1.13,3.86-1.03,1.31.07,2.92-.82.63-2.29,1.31-1.57,2.66-3.12,5-1.88,2.47,1.31,4.3,3.16,4.54,6.12Zm-29.87,104.57c.84-.2,1.5-.8,1.46-1.73-.02-.42-.34-.98-.7-1.19-.97-.58-1.53.1-1.83.91-.67,1.81-2.69.85-3.81,1.91,1.67.64,3.29.47,4.88.1Zm-16.49,8.1c.16-.01.3-.34.53-.63-.51-.15-.93-.28-1.36-.41-.01.26-.14.64-.01.76.19.2.56.3.84.28Zm-4.2-1.91c.22-.04.42-.25.98-.61-.96-.07-1.45-.2-1.9-.12-.5.09-.53.44-.05.64.28.13.65.14.97.09Z"/>
      <path class="cls-5" d="m117.79,1.93c.86.31,2.03.35,1.77,1.73-.06.31-.74.82-.93.75-1.14-.47-.72-1.58-.85-2.46"/>
      <path class="cls-5" d="m118.93,17.59c0,1.1,3.73,2.15.14,3.28-2.99.95-5.97,2.94-9.17.49-.24-.18-.64-.15-.96-.21-.11-.14-.22-.27-.33-.4h0c.27-.57.83-1.3-.02-1.65-1.09-.45-1.78-1.09-1.78-1.98,0-.32.09-.67.28-1.06.88-1.77,2.25-.46,3.44-.27,1.3.2,2.62.3,3.93.44.44,1.43,1.13,2.65,3.01,3.3.04-.67.06-1.3-.01-1.84l1.47-.1Z"/>
      <path class="cls-2" d="m118.87,201.92s-.02.03-.03.05l-.03-.04s.04,0,.06,0Z"/>
      <path class="cls-2" d="m118.81,201.93l.03.04-.27.36c.08-.13.16-.26.24-.4Z"/>
      <path class="cls-2" d="m117.46,17.69c.07.54.05,1.17.01,1.84-1.88-.65-2.57-1.87-3.01-3.3.23-.16.44-.34.62-.55,1.68.13,2.23.9,2.38,2.01Z"/>
      <path class="cls-6" d="m117.21,59.05c1.47,1.44,1.47,2.38-.38,2.94l-.02-.02c.12-.9.25-1.81.4-2.92Z"/>
      <path class="cls-5" d="m114.78,230.94c-3.34-3.03-1.74-6.54-.98-9.97l.04-.04c1.28-.55,2.45-.3,3.58.15l-.92,2.74"/>
      <path class="cls-5" d="m117.01,1.57c-1.35-.02-2.34,2.99-3.59,1.01-.06-.1-.12-.19-.16-.28-.82-1.65,1.14-2.05,2.56-2.3"/>
      <path class="cls-5" d="m117.53,214.55c-2.38-1.71-4.15,2.8-5.73.38-1.34-2.05,1.56-3.52,2.35-5.35.76-1.76,1.24-3.64,1.9-5.64,2.81,3.58-3.38,7.28,1.48,10.61Z"/>
      <path class="cls-2" d="m116.16,196.13c-.11-.06-.23-.12-.34-.17h0c.12.05.23.11.34.17Z"/>
      <path class="cls-2" d="m115.82,195.95h0c-.11-.06-.21-.13-.32-.2.11.07.22.13.32.2Z"/>
      <path class="cls-2" d="m109.6,229.76c-.43-1.16-1.58-.95-2.48-1.21-.42-.86-.85-1.71-1.27-2.57.42-.13.84-.27,1.25-.4-.08-.12-.16-.25-.24-.37l-1.05.72c-1.13-.11-2.24-.25-2.95-1.52,2.46-.34,3.69-1.65,4.5-3.3l1.27.45c-.43.62-.49,1.39.18,2.45.21.34.49.71.86,1.11h.01c.19.09.38.18.57.28-.1-.19-.2-.37-.3-.56,1.29-1.29,2.57-2.58,3.85-3.87-.76,3.43-2.36,6.94.98,9.97"/>
      <path class="cls-2" d="m91.86,239.36c2-2.56,4.94-4.94,7.36-5.86,2.66-1.01,4.97-1.96,6.9-3.89.13-.12.26-.26.39-.4.27,1.68,1.46,1.47,2.61,1.23"/>
      <path class="cls-5" d="m113.84,220.93l-.04.04c-1.28,1.29-2.56,2.58-3.85,3.87,0,0-.21.21-.26.27h0c-.38-.4-.66-.76-.87-1.1-.67-1.06-.61-1.83-.18-2.45.86-1.26,3.25-1.87,4.06-3.02.56-.8.89,1.44,1.15,2.39Z"/>
      <path class="cls-5" d="m113.45,183.48c.11,4.79-4.39,7.94-5.49,12.62-.33,1.44-3.16-1.49-5.23-1.62,1.43-.03.84-5.06,3.76-1.27.58.77,1.4-.59,1.27-1.36-.41-2.39,1.32-5.1-1.64-7.18-.83-.59-1.02-1.21-.86-1.77.23-.84,1.21-1.58,2.03-1.98,2.66-1.29,2.75-3.43,2.57-5.82.35-.32.71-.64,1.06-.95.62,1.25,1.24,2.51,1.87,3.76l.08.09c-.77,1.97.55,3.77.58,5.48Z"/>
      <path class="cls-5" d="m113.03,177.6c-.05.13-.1.26-.16.4l-.08-.09c.08-.1.16-.21.24-.31Z"/>
      <path class="cls-5" d="m109.32,29.15c1.83-.18,2.82.44,2.75,2.37-1.76-1.13-3.06,2.89-5.03.41-.43-.54-1.44-.62-2.19-.91l-.06-.06c-.08-1.14.17-2.44-.32-3.37-.81-1.54-1.47-2.61.99-2.88,1.89-.2,3.45-.05,2.8,2.52-.25,1.01-.58,2.08,1.06,1.92Z"/>
      <path class="cls-5" d="m109.73,204.8c.05.57,1.35,1.03,2.32,1.72-3.51,1.2-6.68-.83-9.37,1.3,2.5,2.89.65,6.88-5.3,10.43,1.63-1.82,2.54-3.77,3.03-5.78.86-3.51.42-7.23.19-10.9v-.06c-.1-1.68,1.28-1.76,1.84-1.37,2.35,1.63,6.89-.12,7.29,4.66Z"/>
      <path class="cls-5" d="m109.95,224.84c.1.19.2.37.3.56-.19-.1-.38-.19-.57-.28,0,0,0-.01,0-.01.05-.06.26-.27.26-.27Z"/>
      <path class="cls-2" d="m109.86,175.1c.18,2.39.09,4.53-2.57,5.82-.82.4-1.8,1.14-2.03,1.98l-1.78-.41c.58-2.46,1.35-4.85,2.81-7.01,1.26.53,2.19-2.02,3.57-.38Z"/>
      <path class="cls-5" d="m109.68,225.11h0s-.01.01-.01.01c-.37-.4-.65-.77-.86-1.11.21.34.49.7.87,1.1Z"/>
      <path class="cls-5" d="m109.12,230.44c-1.15.24-2.34.45-2.61-1.23.11-.1.21-.2.31-.31s.2-.23.3-.35c.9.26,2.05.05,2.48,1.21"/>
      <path class="cls-5" d="m109.01,216.59c-.06.12-.11.25-.16.38l-.05-.04c.07-.12.14-.23.21-.34Z"/>
      <path class="cls-5" d="m108.61,20.75c.11.13.22.26.33.4-.41.41-.78,1.03-1.43.29.36-.23.73-.46,1.1-.69Z"/>
      <path class="cls-5" d="m67.7,242.97c-.05-.06-.11-.12-.16-.16-.36-.36-.74-.65-1.16-.65l.3-2.3c1.37.34,2.75-.17,4.26-1.16,2.53-1.66,1.56-3.8.57-5.67-1.04-1.95-3.72-.82-5.64-2.64,3.23-.27,5.66-3.41,8.86-.64.25.22,1.26.08,1.37-.15,3.89-8.22,8.43.7,12.56-.5.28.95.54,1.93,1.85,1.73.24-.03.63-.38.62-.55-.1-1.3-1.24-1.26-2.11-1.56,1.94-2.66,3.11-5.67,7.3-6.4,4.4-.77,7.64-5.07,12.48-5.39l.05.04c-.5,1.38-.87,2.86-1.49,4.14-.81,1.65-2.04,2.96-4.5,3.3.71,1.27,1.82,1.41,2.95,1.52l.04.05c.42.86.85,1.71,1.27,2.57-.1.12-.19.23-.3.35-.1.11-.2.21-.31.31h-.01c-.12.14-.25.27-.38.4-1.93,1.93-4.24,2.88-6.9,3.89-2.42.92-5.36,3.3-7.36,5.86"/>
      <path class="cls-5" d="m71.96,246.94c2.11-.37,4.63.1,6.03-3.47-2.68,1.49-5.09-1.45-7.19,1.14"/>
      <path class="cls-5" d="m91.77,240.85c-1.47,1.32-2.98.6-4.59.26-2.77-.59-4.92.97-6.07,3.15-1.24,2.35-1.69,5.1,1.61,6.62"/>
      <path class="cls-2" d="m107.76,191.85c.13.77-.69,2.13-1.27,1.36-2.92-3.79-2.33,1.24-3.76,1.27l-2.06-.11c.02-.43-.02-.89-.14-1.39,1.65-3.28,2.11-6.95,2.95-10.49l1.78.41c-.16.56.03,1.18.86,1.77,2.96,2.08,1.23,4.79,1.64,7.18Z"/>
      <path class="cls-6" d="m107.13,113.59c.24.16.27,1.12.04,1.38-4.69,5.16-.99,12.49-4.95,18.14-2.22,3.16-2.56,7.66-2.55,11.96.03,6.67-9.48,12.88-14.84,10.16v-2.34c.32-.65.63-1.29.94-1.93,2.32-.95,2.09-2.99,2.11-4.92l.06-.02c1.51-.85,2.44-2.08,3.05-3.74,1.94-5.27,5.33-10.16,6.77-15.31,1.7-6.09,5.09-11.81,5.14-18.37.02-1.49-.13-3.07,1.73-3.7.53,2.98-.75,6.47,2.5,8.69Z"/>
      <path class="cls-5" d="m106.86,225.21c.08.12.16.25.24.37-.41.13-.83.27-1.25.4l-.04-.05,1.05-.72Z"/>
      <path class="cls-6" d="m102.83,87.61l2.87.55c-1.07,1.24-.65,3.41-.56,5.65.09,2.38.5,4.96-.57,7.32-.97-.44-1.68-1.13-1.63-2.26.12-2.42-.55-4.35-3.23-4.77-2.64-.42-4.17.88-4.88,3.24-.05.13-.08.28-.12.42l-.02.08s-.03.09-.03.09c-.3.32-.59.63-.88.95-1.31,1.67-2.62,3.33-3.93,5-2.53-.3-4.54.65-6.13,2.6-1.96,2.41-4.02,4.86-5.65,7.48l-2.64-.55c1.06-1.38,1.86-2.95,2.26-4.72,2.36-10.51,8.47-17.96,18.02-22.73.61,3.09,2.54,3.36,5.15,2.56.81-.25,1.51-.52,1.97-.91Z"/>
      <path class="cls-5" d="m101.8,10.35c8.52-1.5,2.29,3.45,3.43,6.55-1.78-1.58-2.89-3.09-4.04-4.28-.69-.7-1.4-1.3-2.26-1.71-.89-.43-1.17-1.29-.65-2.06.71-1.04,1.42-.23,2.04.26.51.42,1.08,1.31,1.48,1.24Z"/>
      <path class="cls-5" d="m104.79,30.96l.06.06c-.34.91.21,2.55-1.5,2.39-1.28-.12-2.35-.92-2.54-2.41l.03-.02c1.32-.01,2.63-.01,3.95-.02Z"/>
      <path class="cls-3" d="m104.57,101.13c.02,1.26.04,2.52.06,3.77-1.86.63-1.71,2.21-1.73,3.7-.05,6.56-3.44,12.28-5.14,18.37-1.44,5.15-4.83,10.04-6.77,15.31-.61,1.66-1.54,2.89-3.05,3.74-.54-7.81,2.31-14.46,6.96-20.53,1.29-1.68-.23-3.66.41-5.64,1.78-5.49,3.41-11.07,4.47-16.73,1.23-6.55.93-6.61-5.06-5.36.04-.14.07-.29.11-.42.71-2.36,2.24-3.66,4.88-3.24,2.68.42,3.35,2.35,3.23,4.77-.05,1.13.66,1.82,1.63,2.26Z"/>
      <path class="cls-5" d="m104.49,19.02c-.18.21-.36.42-.55.63-.14-.2-.31-.39-.39-.62-.03-.07.21-.34.27-.33.24.06.45.21.67.32Z"/>
      <path class="cls-5" d="m102.83,5.99c-2.33,2.2-3.49-.62-5.17-1.21"/>
      <path class="cls-1" d="m102.81,84.81c.84,1.39.7,2.22.02,2.8-.46.39-1.16.66-1.97.91-2.61.8-4.54.53-5.15-2.56,2.18-1.52,4.69-1.01,7.1-1.15Z"/>
      <path class="cls-3" d="m102.81,84.81c-2.41.14-4.92-.37-7.1,1.15-9.55,4.77-15.66,12.22-18.02,22.73-.4,1.77-1.2,3.34-2.26,4.72-1.05,1.37-2.37,2.56-3.82,3.57-3.36,2.34-5.24,5.38-5.81,9.35-.38,2.6-1.86,4.88-3.58,6.44-2.7,2.44-2.21,5.8-3.38,8.61-.91,2.17,2.85,1.7,3.73,3.7.47,1.07,1.82-.91,2.25-1.75.24-.47.48-.93.73-1.39l2.42,1.56c-1.5,2.44-2.69,4.52,2.01,5.69,2.85.72,3.55,2.81,1.32,5.26-1.71,1.89-2.78,4.13-3.33,6.6-.26,1.18-.22,2.44.91,3.14,1.66,1.02,1.71-.85,2.45-1.54,2.74-2.53,5.09-5.92,9.67-4.58-.77,1.28-1.54,2.55-2.3,3.83-2.02,1.07-5.11.34-6.24,2.55-3.65,7.14-10.33,12.07-13.72,19.35-1.17,2.51-2.71,2.29-4.8.96-1.52-.97-1.94-2.64-3.14-3.74-.45-2.17-.02-4.23.56-6.27.12-.41.24-.81.37-1.22.1-.32.2-.63.29-.95.75-2.48,1.38-4.96.63-7.61.56-4.31-2.21-9.66,3.94-12.22,1.28-.54.78-1.59.12-2.44-.68-.88-.94-1.78-2.53-.55-3.19,2.47-5.76,1.3-7.39-2.29-.15-.33-.35-.63-.57-.92-.15-.19-.31-.38-.47-.57-.24-.28-.49-.56-.71-.85l.09-1.14c-.03-2.34,3.74-4.9-.4-7.01.31-1.36.62-2.72.93-4.09,1.1-2.44,1.81-4.96,2.27-7.53.56-3.04.79-6.15.96-9.27.05-.98.05-2.19.6-2.85,1.54-1.84,2.7-4.33,5.47-4.58.88-.07,1.96,7.7,1.26,8.85-.51.85-1.67,1.92-1.46,2.49.86,2.35-1.31,5.7,1.11,6.95,2.59,1.34,3.39-2.28,4.99-3.63,2.43-2.05,2.91-5.11,3.04-8.17,3.28-4.44,4.76-9.99,8.01-14.29,5.84-7.71,12.51-14.8,18.84-22.15,1.32-1.53,2.69-3.04,5.05-2.53.12,1.65.21,3.82,2.44,3.36,5.06-1.05,4.29,2.46,4.57,5.27Zm-41.92,63.64c.16-.21.32-.42.48-.64-.24-.1-.49-.24-.74-.3-.06-.01-.27.28-.24.33.13.23.33.41.5.61Z"/>
      <path class="cls-5" d="m101,14.7c.14,0,.28.02.43.04-3.51,1.42-5.45,3.69-8.56,3.29l-.07-.06c0-.66.02-1.31.04-1.97,2.37-.4,4.61-1.67,8.16-1.3Z"/>
      <path class="cls-5" d="m101.1,28.03c2.06,1.03-1.16,1.86-.26,2.95l-.03.02c-1.01-.4-2.99.73-2.91-1.14.06-1.28,1.47-2.68,3.2-1.83Z"/>
      <path class="cls-2" d="m100.6,201.57c.23,3.67.67,7.39-.19,10.9l-1.94-.02c-4.36-4.4-4.35-7.81-.24-10.73l2.37-.15Z"/>
      <path class="cls-6" d="m100.53,192.98c.12.5.16.96.14,1.39-.07,2.05-1.5,3.44-3.23,4.47-.44.26-.87.5-1.23.77-.11.08-.21.16-.31.24-.06.05-.12.1-.17.16-.06.05-.11.11-.16.17t-.01.01c-.15.17-.28.37-.37.59-.04.07-.07.15-.09.23-.09.28-.13.59-.12.96-.35.09-.71.17-1.06.25-1.16.06-2.31.13-3.46.19-1.61,1.72-6.41.53-5.39,5.41-2.88-.73-5.27,2.97-8.63,2.41-3.19-.53-4.5,1.15-5.55,3.58-1.79-.21-3.08.71-4.36,1.65-.38.28-.77.56-1.16.82l-.2-.1c-.42.26-.83.51-1.25.76l-.09.09c-4.95,1.42-8.39.03-9.95-5.19-.2-.66-1.13-1.18-1.83-1.59-3.19-1.88-4.34-5-5.23-8.31.01.01.01.02.02.03v-.02c1.58,1.01,3.16-.18,4.74-.03,4.13.31,7.21,2.83,10.34,5.1,4.49,3.26,7.43,3.01,10.83-1.27.49-.63,1-1.62,1.6-1.7,6.01-.76,10.21-6.22,16.48-6.23.91,0,1.6-.47,1.9-1.32,1.38-3.91,4.57-3.75,7.8-3.52Z"/>
      <path class="cls-5" d="m94.99,201.97c1.1.29,2.06-1.24,3.24-.25-4.11,2.92-4.12,6.33.24,10.73-2.1.47-3.95.98-5.84,1.29-2.22.36-4.84-.23-4.61,3.62.06.97-2.11,2.62-3.44,2.31-4.87-1.14-10.62-.46-13.69-5.86,1.05-2.43,2.36-4.11,5.55-3.58,3.36.56,5.75-3.14,8.63-2.41-1.02-4.88,3.78-3.69,5.39-5.41-.23,1.17-1.43,2.7.48,3.32,2.3.74,1.26-1.65,1.94-2.47.32-.37.69-.69,1.04-1.04.35-.08.71-.16,1.06-.25h.01Z"/>
      <path class="cls-5" d="m97.35,26.17c.09.24-.47,1.02-.78,1.06-1.47.17-2.52-.48-2.96-1.96.11-.15.23-.3.34-.45,1.16.41,2.78-.26,3.4,1.35Z"/>
      <path class="cls-1" d="m98.69,71.38c-.94,1.56-1.92,3.18-2.89,4.8-2.36-.51-3.73,1-5.05,2.53-6.33,7.35-13,14.44-18.84,22.15-3.25,4.3-4.73,9.85-8.01,14.29-3.52-2.29-1.34-5.76-.67-7.91,1.33-4.28.15-4.32-3.29-3.49-1.36.33-2.9-.14-4.56-.26,2.4-4.6,7.1-6.98,9.42-11.52,1.11-2.16,3.33-4.76,6.81-4.07,3.8.76,5.8-1.38,7.42-4.41,1.64-3.08,3.38-6.15,6.95-7.46,2.85-1.04,1.16-2.97.88-4.58-.5-2.9-.27-4.72,3.43-3.12,2.68,1.15,5.49,2.01,8.4,3.05Z"/>
      <path class="cls-6" d="m95.9,199.85c.1-.08.2-.16.31-.24-.11.07-.22.16-.31.24Z"/>
      <path class="cls-2" d="m82.72,250.88c-3.3-1.52-2.85-4.27-1.61-6.62,1.15-2.18,3.3-3.74,6.07-3.15,1.61.34,3.12,1.06,4.59-.26"/>
      <path class="cls-5" d="m95.81,10.75c1.03,3.39-3.12,2.91-3,5.22-1-.58-1.34-2.17-2.9-1.89l-.23-.24c1.48-2.28,4.35-1.19,6.13-3.09Z"/>
      <path class="cls-2" d="m90.39,5.78c-1.69.51-2.37,2.98-4.62,2.11-1.97-.76,1.22-2.42-.62-3.13"/>
      <path class="cls-2" d="m94.35,8.8l1.46,1.95c-1.78,1.9-4.65.81-6.13,3.09-.61.05-1.23.09-1.84.14-.33-.66-.67-1.33-1-1.99,1.35-1.6,4.11-2.4,3.84-5.02"/>
      <path class="cls-5" d="m93.95,24.82c-.11.15-.23.3-.34.45-.66-.26-1.32-.51-1.98-.76.09-.12.17-.32.29-.35.81-.22,1.49.02,2.03.66Z"/>
      <path class="cls-2" d="m90.46,202.41c1.15-.06,2.3-.13,3.46-.19-.35.35-.72.67-1.04,1.04-.68.82.36,3.21-1.94,2.47-1.91-.62-.71-2.15-.48-3.32Z"/>
      <path class="cls-5" d="m76.65,14.09c-.11-1.37,1.16-1.64,2.02-1.71,1.27-.1,2.2-.37,2.84-.76l.32,1.48c-.12.03-.24.05-.36.08,1.56,1.52,2.99.67,4.3.74l.18.19c-.25.75-.3,1.69-.79,2.19-.88.9-3.22,1.14-.93,2.99,1.48,1.19,2.75,2.84,4.88.78.98-.96,2.44-1.41,3.69-2.1l.07.06c.07,3.17-3.96,4.46-3.53,7.91.12.97-1.69,1.04-1.83.46-1.23-5.04-5.48-4.72-9.18-5.47-.57-.12-1.03-.77-1.59-1.21.68-1.56,2.54-1.36,3.46-2.45.14-1.26-.83-1.21-1.58-1.31-1.15-.14-1.88-.76-1.97-1.87"/>
      <path class="cls-5" d="m80.92,19.73c.05,0,.09-.21.14-.32-.14-.05-.28-.13-.41-.12-.05,0-.09.21-.13.32.13.04.27.12.4.12Z"/>
      <path class="cls-2" d="m92.84,15.99h0s-.02.02-.03.02l.03-.02Z"/>
      <path class="cls-2" d="m92.81,16.01s.02,0,.03-.01c-.02.66-.03,1.31-.04,1.97-1.25.69-2.71,1.14-3.69,2.1-2.13,2.06-3.4.41-4.88-.78-2.29-1.85.05-2.09.93-2.99.49-.5.54-1.44.79-2.19.62-.03,1.24-.07,1.86-.1.52,1.23-.75,3.73,1.4,3.6,2.6-.16.1-2.37.7-3.53,1.56-.28,1.9,1.31,2.9,1.89v.04Z"/>
      <path class="cls-2" d="m92.84,15.99l-.03.02v-.04s.02.01.03.02Z"/>
      <path class="cls-6" d="m91.32,191.92c.04.93-.62,1.53-1.46,1.73-1.59.37-3.21.54-4.88-.1,1.12-1.06,3.14-.1,3.81-1.91.3-.81.86-1.49,1.83-.91.36.21.68.77.7,1.19Z"/>
      <path class="cls-2" d="m91.13,230.28c.01.17-.38.52-.62.55-1.31.2-1.57-.78-1.85-1.73.13-.12.25-.25.36-.38.87.3,2.01.26,2.11,1.56Z"/>
      <path class="cls-5" d="m85.15,4.76c1.84.71-1.35,2.37.62,3.13,2.25.87,2.93-1.6,4.62-2.11"/>
      <path class="cls-5" d="m90.68,6.97c.27,2.62-2.49,3.42-3.84,5.02l-.04.02c-1.57.35-3.14.69-4.97,1.09l-.32-1.48c1.71-1.05,1.38-3.02.13-5.47"/>
      <path class="cls-5" d="m89.68,13.84l.23.24c-.6,1.16,1.9,3.37-.7,3.53-2.15.13-.88-2.37-1.4-3.6l.03-.03c.61-.05,1.23-.09,1.84-.14Z"/>
      <path class="cls-3" d="m89.8,56.33c-.1.28-.2.56-.29.84-.23-.29-.44-.56-.67-.85.07-.03.15-.05.22-.06.24-.04.49-.01.74.07Z"/>
      <path class="cls-3" d="m83.72,106.48c1.59-1.95,3.6-2.9,6.13-2.6-6.44,13.33-13.8,26.15-21.4,38.83-.16.27-.32.53-.48.79l-2.42-1.56c3.71-6.92,8.03-13.48,9.75-21.46.5-2.33,1.5-4.47,2.77-6.52,1.63-2.62,3.69-5.07,5.65-7.48Z"/>
      <path class="cls-3" d="m89.06,56.26c-.07,0-.15.03-.22.06h-.01c.07-.04.15-.05.23-.06Z"/>
      <path class="cls-6" d="m88.83,56.31h0c-.13-.02-.25-.05-.38-.09.13.03.26.06.38.09Z"/>
      <path class="cls-3" d="m87.88,146.04c-.02,1.93.21,3.97-2.11,4.92.48-1.74-1.01-4.32,2.11-4.92Z"/>
      <path class="cls-5" d="m86.84,11.99c.33.66.67,1.33,1,1.99l-.03.03c-.62.03-1.24.07-1.86.1l-.18-.19c.34-.63.69-1.27,1.03-1.91l.04-.02Z"/>
      <path class="cls-3" d="m87.62,56.01l-.29.03-.29-.03c.19-.47.39-.47.58,0Z"/>
      <path class="cls-2" d="m86.8,12.01c-.34.64-.69,1.28-1.03,1.91-1.31-.07-2.74.78-4.3-.74.12-.03.24-.05.36-.08,1.83-.4,3.4-.74,4.97-1.09Z"/>
      <path class="cls-3" d="m86.85,56.19c-.49,2.49,1.07,3.71,3.3,4.75-6.2.96-9.54,5.36-13.05,9.47-.96,1.11-1.89,1.75-3.33,1.64,0-1.24-.61-1.92-1.87-1.96l-.18-.23c.12-4.01,1.39-6.77,6.19-6.25.78.08,2.26-.72,2.39-1.33.78-3.65,4.13-4.33,6.55-6.09Z"/>
      <path class="cls-6" d="m82.25,162.14c1.65-1.22,3.58-1.58,3.38,1.04-.29,3.71.16,7.61-1.54,11.12-.5,1.02-1.34,2.66-2.04,2.66-7.53.08-5.34,9.28-10.81,11.35-1.25.48-.83,2.26.57,3.53-4.35-2.33-6.72.09-8.8,3.22-.36.55-.54,1.35-1.04,1.65-1.8,1.09-2.76,4.52-4.95,3.54-2.5-1.13-1.04-4.07-.66-6.26.57-3.31-.42-5.33-4.01-6.09-5.03-1.07-5.35-2.83-1.55-6.88,1.2,1.1,1.62,2.77,3.14,3.74,2.09,1.33,3.63,1.55,4.8-.96,3.39-7.28,10.07-12.21,13.72-19.35,1.13-2.21,4.22-1.48,6.24-2.55.97,3.15,2.31,1.15,3.55.24Z"/>
      <path class="cls-3" d="m84.83,152.89v2.34l-1.92.84c-.1-1.05-.02-1.99.62-2.58.1-.09.22-.18.34-.26.26-.15.57-.27.96-.34Z"/>
      <path class="cls-7" d="m83.53,153.49c.1-.09.22-.18.34-.26-.12.08-.24.17-.34.26Z"/>
      <path class="cls-3" d="m81.62,51.68c.61,2.33-.07,4.27-1.97,5.75-.35.27-.79.42-1.59.84.14-.97.11-1.62.33-2.17.67-1.64-1.37-4.18,1.68-5.02.71-.2,1.34-.23,1.55.6Z"/>
      <path class="cls-2" d="m81.06,19.41c-.05.11-.09.32-.14.32-.13,0-.27-.08-.4-.12.04-.11.08-.32.13-.32.13-.01.27.07.41.12Z"/>
      <path class="cls-6" d="m75.43,113.41l2.64.55c-1.27,2.05-2.27,4.19-2.77,6.52-1.72,7.98-6.04,14.54-9.75,21.46-.25.46-.49.92-.73,1.39-.43.84-1.78,2.82-2.25,1.75-.88-2-4.64-1.53-3.73-3.7,1.17-2.81.68-6.17,3.38-8.61,1.72-1.56,3.2-3.84,3.58-6.44.57-3.97,2.45-7.01,5.81-9.35,1.45-1.01,2.77-2.2,3.82-3.57Z"/>
      <path class="cls-2" d="m70.8,244.61c2.1-2.59,4.51.35,7.19-1.14-1.4,3.57-3.92,3.1-6.03,3.47"/>
      <polygon class="cls-3" points="75.53 59.91 75.34 60.27 75.2 59.88 75.53 59.91"/>
      <path class="cls-5" d="m73.72,35.83c.65.58.43,1.19-.06,1.72-.87.93-1.37,2.24-2.99,2.35-3.12.21-4.66,2.17-5.21,5.08-1.54,1.17-3.93,1.33-4.45,3.73-.65-.03-1.53,0-1.61-.75-.21-2.05,5.33-9.52,7.38-9.83,2-.3,4.35.57,5.22-2.36.17-.55,1.17-.44,1.72.06Z"/>
      <path class="cls-6" d="m73.9,201.12c-.23.29-.37.62-.53.63-.28.02-.65-.08-.84-.28-.13-.12,0-.5.01-.76.43.13.85.26,1.36.41Z"/>
      <path class="cls-2" d="m71.9,70.09c1.26.04,1.86.72,1.87,1.96-1.55.81-2.88,2.22-4.89,1.76,0-.6-.01-1.2-.01-1.8.34-.32.68-.64,1.01-.95.67-.33,1.35-.65,2.02-.97Z"/>
      <path class="cls-3" d="m71.72,69.86l.18.23c-.67.32-1.35.64-2.02.97l-.12-.13c.65-.35,1.31-.71,1.96-1.07Z"/>
      <path class="cls-5" d="m75.3,53.71c-1.54,2.26-3.11,4.5-4.6,6.78-.39.6-.75,1.26-1.47.79-.47-.31-1.04-1.15-.91-1.54,1.07-3.34,3.45-5.33,6.98-6.03Z"/>
      <path class="cls-5" d="m67.16,218.82c3.06-.33,3.75,2.26,3.44,4.27-.42,2.78-2.72,1.47-4.41,1.11-.97-.21-1.96-.44-2.88.18l-2.12-1.65c.91-1.96,1.77-3.83,2.64-5.7l.09-.09c.42-.25.83-.5,1.25-.76l.2.1h0c.49.56-.07,1.75.47,2.28.02.02.05.05.08.07.23.17.61.26,1.24.19Z"/>
      <path class="cls-3" d="m69.76,70.93l.12.13c-.33.31-.67.63-1.01.95l-.06-.07c.31-.33.63-.67.95-1.01Z"/>
      <path class="cls-6" d="m70.15,199.23c-.56.36-.76.57-.98.61-.32.05-.69.04-.97-.09-.48-.2-.45-.55.05-.64.45-.08.94.05,1.9.12Z"/>
      <path class="cls-2" d="m64.8,243.56c.22-.38.43-.67.64-.89.14-.15.27-.26.4-.34.19-.12.37-.17.54-.17.42,0,.8.29,1.16.65.06.05.11.1.16.16"/>
      <path class="cls-3" d="m68.87,72.01c0,.6.01,1.2.01,1.8-.41,1.02-1,1.82-1.7,2.49-.18.17-.36.33-.55.48-2.07,1.66-4.82,2.49-6.71,4.38h-.01c-.62,1.92-1.01,4.09-3.85,3.74-.04-2.9-2.11-6.54,3.37-7.14,2.02-.23,3.53-2.22,3.68-4.63,1.65-1.61,3.23-3.51,5.7-1.19l.06.07Z"/>
      <path class="cls-2" d="m68.37,48.67c-2.84-.26-4.83,3.71-7.36.04.52-2.4,2.91-2.56,4.45-3.73-.23,1.8,1.43,2.25,2.91,3.69Z"/>
      <path class="cls-5" d="m56.9,242.7c-1.27-1.37-4.02-1.32-3.87-4.03.09-1.52.93-2.34,2.44-2.69,3.25-.75,6.37-.37,8.59,2.11.89,1,1.76,1.56,2.62,1.77l-.3,2.3c-.17,0-.35.05-.54.17-.13.08-.27.19-.4.34-.21.22-.42.51-.64.89"/>
      <path class="cls-5" d="m65.84,218.56s.05.05.08.07c-.03-.02-.06-.05-.08-.07Z"/>
      <path class="cls-2" d="m65.84,242.33c-.13.08-.26.19-.4.34.13-.15.27-.26.4-.34Z"/>
      <path class="cls-5" d="m63.31,224.38c-.67,1.78,2.34,1.28,1.75,3.2-1.81.28-3.96,1.27-5.58.72-2.72-.93-3.01-.94-3.31,2.22-.39,4.11-2.32-1.86-3.6.07-.99,1.42,2.5,2.25.63,3.7-1.91,1.49-2.83-1.06-4.35-1.31l-.08-.07c-.36-.85-1.04-1.06-1.89-.94l-.07-.06c.32-1.84,1.47-2.16,2.73-2.3,1.01-.12,2.09-.12,2.87-.72,1.12-.87,2.17-1.61,2.25-3.02.11-1.98-1.56-1.92-2.82-1.94-2.05-.04-3.16-.8-3.01-2.96l.07-.06c3.91,1.43,8.51-2.42,12.29,1.82l2.12,1.65Z"/>
      <path class="cls-6" d="m51.78,79.93c1.62-3.82,6.75-6.91,11.33-6.8-.15,2.41-1.66,4.4-3.68,4.63-5.48.6-3.41,4.24-3.37,7.14-.15.46-.29.92-.43,1.37-1.59-.19-2.41,1.37-3.78,1.68-.07-.99-.15-1.97-.22-2.95.87-1.62,1.95-3.24.24-4.98l-.09-.09Z"/>
      <path class="cls-1" d="m59.92,81.16c3.34.77,5,4.3,2.56,5.41-2.8,1.28-3.09,4.21-5.44,5.36-.47-1.89-.94-3.77-1.41-5.66.14-.45.28-.91.43-1.37,2.84.35,3.23-1.82,3.85-3.74h.01Z"/>
      <path class="cls-2" d="m63.83,217.03c-.87,1.87-1.73,3.74-2.64,5.7-3.78-4.24-8.38-.39-12.29-1.82.14-1.44,3.13-.76,2.27-2.54-.93-1.9-2.76-3.38-4.78-4.07-1.15-.38-2.77-.1-3.51-.65-.55-.4-.61-1.27.35-3.2.77-1.54-1.95-1.18-3.01-1.2-1.67-.04-3.22-.21-4.5-.82s-2.29-1.66-2.88-3.47l.03-.03c.27-.07.53-.13.81-.21-.08-.12-.16-.25-.24-.38-.19.2-.38.39-.57.59-.01,0-.03.01-.04.01v.02c-.13.02-.25.04-.38.08l-.09-2.65c.17,0,.35,0,.53,0,.75.05.85-1.32.62-2.13-.12-.4-.6-.99-.92-.99h-.05l1.27-1.9c1.45.91,3.02,1.59,3.77,3.22.08.18.98.2,1.34,0,.72-.41.45-1.12.21-1.75-1.17-3.12-2.85-6.07-5.16-8.33-3.29-3.22-4.08-6.8-3.59-11.19,1.73.34,2.62,2.17,4.33,1.37,2.7,5.7,5.35,11.44,8.17,17.09.47.94,1.69,1.5,2.57,2.24.46.64.92,1.28,1.37,1.92.89,3.31,2.04,6.43,5.23,8.31.7.41,1.63.93,1.83,1.59,1.56,5.22,5,6.61,9.95,5.19Z"/>
      <path class="cls-6" d="m61.37,147.81c-.16.22-.32.43-.48.64-.17-.2-.37-.38-.5-.61-.03-.05.18-.34.24-.33.25.06.5.2.74.3Z"/>
      <path class="cls-5" d="m53.85,21.63c1.91-.84,3.7-.73,5.74.2-.27,2.4-2.6,1.84-3.73,2.87-1.25,1.15-2.94,2.19-1.45,3.68l-2.07.08c-.37-.51-1.18-.44-1.77-.66-.8-.28-1.63-.46-1.73.75-.1,1.25.89,1.56,1.84,1.81.16.04.3.07.44.07l-.15,1.76c-.89,0-1.76,1.56-2.14,2.8-.06.11-.14.22-.2.33-.01.01-.01.02-.02.03l-2.32-.18c1.16-3.05-1.18-5.32-2.43-7.9"/>
      <path class="cls-3" d="m55.63,86.27c.47,1.89.94,3.77,1.41,5.66-2.02,2.69-2.89,7.62-8.07,4.13.69-.4,1.34-.85,2.06-1.17,1.56-.69,3.1-1.55,3.29-3.35.27-2.55-2.85-.95-3.48-2.56l.02-.03.94-.94.05-.06c1.37-.31,2.19-1.87,3.78-1.68Z"/>
      <path class="cls-6" d="m56.71,150.31c.66.85,1.16,1.9-.12,2.44-6.15,2.56-3.38,7.91-3.94,12.22h0c-1.19-.02-2.24.24-3.3.89-1.53.95-3.06,2.22-4.08-.9-.54-1.66-2.84-1.29-4.43-1.34-.3,0-.79.97-.88,1.53-.08.52-.05.95.06,1.3l-2.11.22c-1.39-4.38-1.74-10.08-.37-13.07.55-1.19.94-2.44,1.41-3.66,4.3,1.26,2.83-4.78,6.09-4.82h.01c.22.3.47.58.71.86.16.19.32.38.47.57.22.29.42.59.57.92,1.63,3.59,4.2,4.76,7.39,2.29,1.59-1.23,1.85-.33,2.53.55Z"/>
      <path class="cls-5" d="m56.69,43.59c.39,2.09-.73,2.84-2.39,3.7-1.42.74-2.15,1.47-2.15,2.12l-1.59-.26c.2-1.46.08-3,.15-4.49-.19-1.8,1.46-2.41,2.29-3.55,1.78.01,3.29.32,3.69,2.48Z"/>
      <path class="cls-2" d="m55.79,52c.89,3.28.58,6.58-.17,9.81-.24,1.04-1.08,1.96-.79,3.17-.94-.48-1.69-1.12-1.84-2.24h0c.09-1.47.83-2.65,1.39-3.96.81-1.88,1.35-4.4-2.33-3.99.03-.25.05-.51.08-.77-.01-.31-.02-.63-.02-.95,1.26-.24,3.06,1.36,3.68-1.07Z"/>
      <path class="cls-2" d="m55.27,50c.18.67.36,1.34.54,2.02l-.02-.02c-.32-.27-.64-.55-.96-.81.15-.39.3-.79.44-1.19Z"/>
      <path class="cls-5" d="m54.83,51.19c.32.26.64.54.96.81-.62,2.43-2.42.83-3.68,1.07-1.88-.35-2.11-1.39-1.7-3.16.06-.25.11-.5.15-.76l1.59.26c0,.71.87,1.34,2.68,1.78Z"/>
      <path class="cls-5" d="m55.43,29.16c2.68,1.68.37,3.15-.59,4.41-.58.75-.99,1.34-1.5,1.19-.37-.1-.78-.58-1.33-1.67-.33-.64-.69-.9-1.04-.9l.15-1.76c.68.02,1.14-.38,1.41-1.06.03-.43-.05-.71-.19-.91l2.07-.08c.25.25.58.51,1.02.78Z"/>
      <path class="cls-2" d="m28.61,221.15c-.81-5.92-4.81-10.38-7.43-16.34,4.6,3.25,6.97-1.5,10.45-2.31.24-.06.48-.1.73-.11l.09,2.65c-1.88.55-2.53,3.38-4.95,3.26-.23-.08-.47-.11-.72-.1.26.07.5.1.72.1,2.45.79,3.42,5.96,7.1,2.18.03-.03.34.1.42.22,1.16,1.91,3.32,2.78,5.11,4.06,1.22.88,2.27,1.95,2.69,3.68.81,3.33,2.97,4.14,6.01,2.53-.15,2.16.96,2.92,3.01,2.96,1.26.02,2.93-.04,2.82,1.94-.08,1.41-1.13,2.15-2.25,3.02-.78.6-1.86.6-2.87.72l-.32-2.25c1.05-.22,2.09-.58,3-1.39-4.33-1.19-9.68,1.25-12.02-4.57-.01,2.77.39,4.85.74,6.93.21,1.25,1.62,2.21,2.13,1.96l-.46,2.03c-2.13-.53-3.98-2.09-5.92-3.25l.23-.24c.34-1.63.29-1.85-.29-1.73-2.16.42-3.69-.23-4.93-1.36"/>
      <path class="cls-2" d="m36.07,218.29c.46-2.17-1.65-2.32-3.03-3.14.03,1.42-.77,3.15,1.34,3.58.54.11,1.63-.17,1.69-.44Z"/>
      <path class="cls-5" d="m52.05,54.79c3.68-.41,3.14,2.11,2.33,3.99-.56,1.31-1.3,2.49-1.39,3.95-.98.14-1.66.07-2.13-.15-.12-.06-.23-.13-.33-.2-.88-.72-.59-2.22-.2-3.63.36-1.33,1.66-2.32,1.69-3.85.01,0,.01.01.02.01h.01v-.12Z"/>
      <path class="cls-1" d="m50.84,88.98c.63,1.61,3.75.01,3.48,2.56-.19,1.8-1.73,2.66-3.29,3.35-.72.32-1.37.77-2.06,1.17h-.01c-.3.17-.59.43-.87.72-.07.07-.15.15-.22.24-1.16,1.3-2.25,3.02-3.94.95-1.68-2.07-.01-4.61,2.16-6.22,2-.22,2.06-3.74,4.75-2.77Z"/>
      <path class="cls-2" d="m53.34,34.76l-.52,2.3c-2.12.65-4.7,1.93-3.98-2.07h-.01c.38-1.24,1.25-2.8,2.14-2.8.35,0,.71.26,1.04.9.55,1.09.96,1.57,1.33,1.67Z"/>
      <path class="cls-1" d="m53.32,105.18c.03.06-.24.36-.28.34-.27-.11-.5-.28-.75-.43.19-.21.38-.41.58-.61.16.23.34.45.45.7Z"/>
      <path class="cls-2" d="m53,41.11c-.42-.4-.85-.79-1.27-1.18h0c.42.39.85.78,1.27,1.18Z"/>
      <path class="cls-2" d="m51.73,39.93c.42.39.85.78,1.27,1.18-.83,1.14-2.48,1.75-2.29,3.55-.9-1.45-1.03-4.75-3.56-.75-1.23,1.93-3.07,4.54-6.33,4.06.01,0,.01-.02.02-.03h-.01c.67-.63,1.8-1.21,1.88-1.9.62-5.68,5.13-5.4,9.02-6.12h0Z"/>
      <path class="cls-5" d="m52.99,62.73h0c-.97.14-1.66.07-2.13-.15.47.22,1.15.29,2.13.15Z"/>
      <path class="cls-2" d="m52.34,28.46c.14.2.22.48.19.91-.27.68-.73,1.08-1.41,1.06-.14,0-.28-.03-.44-.07-.95-.25-1.94-.56-1.84-1.81.1-1.21.93-1.03,1.73-.75.59.22,1.4.15,1.77.66Z"/>
      <path class="cls-5" d="m41.1,30.05c1.27,1.55.54,2.84-.68,3.88-2.03,1.73-1.38,3.25.41,4.4,1.83,1.18,2.93.53,4.39-1.34.5-.64.85-1.25,1.07-1.82l2.32.18s.01-.02.02-.03c.06-.11.14-.22.21-.33-.72,4,1.86,2.72,3.98,2.07-.45,1.19-.77,2.03-1.09,2.86-3.89.72-8.4.44-9.02,6.12-.08.69-1.21,1.27-1.88,1.9-1.17-.13-2.36-.44-3.42.39-1.26-.47-2.03-2.51-3.84-1.24-2.61,1.83-3.22,4.98-3.23,7.5-.02,5.73,1.37,11.48-4.06,15.85-.15.12-.29.28-.41.46l-1.28-.35"/>
      <path class="cls-5" d="m25.76,58.47c-1.38.3-.84,2.55-2.64,2.54"/>
      <path class="cls-5" d="m52.13,54.02c-.03.26-.05.52-.08.77h-.03v.11c-.14-.06-.25-.11-.33-.17-.06-.04-.1-.07-.14-.11-.09-.1-.09-.19-.02-.27.01-.02.03-.04.06-.06.02-.02.04-.04.07-.06.12-.07.28-.15.47-.21Z"/>
      <path class="cls-5" d="m52.05,54.79s0,.06-.01.09c0-.03-.02-.09-.02-.09h.03Z"/>
      <path class="cls-5" d="m52.04,54.88v.03s0,0,0,0h0v-.03Z"/>
      <path class="cls-5" d="m52.02,54.79s.02.06.02.09v.02h-.02v-.11Z"/>
      <path class="cls-5" d="m52.04,54.9h0s-.01,0-.02,0h.02Z"/>
      <path class="cls-6" d="m51.78,79.93l.09.09c-.26,1.1-.36,2.34-1.89,2.42-.2.01-.6-.38-.59-.57.05-1.53,1.32-1.62,2.39-1.94Z"/>
      <path class="cls-3" d="m51.63,85c.07.98.15,1.96.22,2.95l-.05.06-.94.94-.02.03c-2.69-.97-2.75,2.55-4.75,2.77-.38-.91-.43-1.62-.26-2.2.57-2,3.65-2.47,4.29-4.42.5-.04,1-.09,1.51-.13Z"/>
      <path class="cls-5" d="m51.55,54.62s.08.07.14.11c-.06-.04-.1-.07-.14-.11Z"/>
      <path class="cls-3" d="m50.8,199.75c.8.18.88,1.31.78,2.17-1.58-.15-3.16,1.04-4.74.03-.05-.93-.38-1.68-1.39-1.93-.88-.74-2.1-1.3-2.57-2.24-2.82-5.65-5.47-11.39-8.17-17.09.02-.24.04-.48.05-.72,2.97-1.34,2.9-2.71.04-4.11-.09-.21-.14-.43-.14-.66.55-1.87,1.09-3.75,1.72-5.91l2.13-.95c.6,1.44,1.33,2.64,2.16,3.39-1.87,2.25.18,3.71,1.21,5.2,1.62,2.35,2.5,4.39.66,7.21-1.57,2.4-1.04,5.55.71,7.49,2.45,2.72,3.12,7.17,7.55,8.12Z"/>
      <path class="cls-5" d="m51.17,218.37c.86,1.78-2.13,1.1-2.27,2.54l-.07.06c-3.04,1.61-5.2.8-6.01-2.53-.42-1.73-1.47-2.8-2.69-3.68l2.75-1.11c.74.55,2.36.27,3.51.65,2.02.69,3.85,2.17,4.78,4.07Z"/>
      <path class="cls-5" d="m50.53,62.38c.1.07.21.14.33.2-.12-.05-.23-.12-.33-.2Z"/>
      <path class="cls-2" d="m49.22,227.36l.32,2.25c-1.26.14-2.41.46-2.73,2.3-1.56.7-2.93.74-4.2.41l.46-2.03c.05-.03.1-.07.13-.13,1.34-2.45,3.72-2.3,6.02-2.8Z"/>
      <path class="cls-5" d="m52.22,225.97c-.91.81-1.95,1.17-3,1.39-2.3.5-4.68.35-6.02,2.8-.03.06-.08.1-.13.13-.51.25-1.92-.71-2.13-1.96-.35-2.08-.75-4.16-.74-6.93,2.34,5.82,7.69,3.38,12.02,4.57Z"/>
      <path class="cls-5" d="m31.7,225.74c1.24,1.13,2.77,1.78,4.93,1.36.58-.12.63.1.29,1.73-.19-.11-.37-.22-.55-.33.1.19.21.38.32.57,1.94,1.16,3.79,2.72,5.92,3.25,1.27.33,2.64.29,4.2-.41l.07.06c.37.85,1.1.96,1.89.94l.08.07c.46,3.83-2.73,2.45-4.55,2.8.27,1.34,1.18,1.45,1.88,1.82"/>
      <path class="cls-2" d="m48.84,34.99c-.07.11-.15.22-.21.33.06-.11.14-.22.2-.33h.01Z"/>
      <path class="cls-2" d="m48.77,232.91c-.79.02-1.52-.09-1.89-.94.85-.12,1.53.09,1.89.94Z"/>
      <path class="cls-1" d="m48.09,96.78c-.07.08-.15.16-.22.24.07-.09.15-.17.22-.24Z"/>
      <path class="cls-6" d="m44.11,87.43c1.58-2.15,2.8-4.68,6.01-2.3-.64,1.95-3.72,2.42-4.29,4.42l-2.47-.22c.16-.68.34-1.35.75-1.9Z"/>
      <path class="cls-6" d="m45.53,124.93l2.4.43c-.46,2.57-1.17,5.09-2.27,7.53-2.65-1.77-.99-4.67-1.83-6.92h.01c.78-.15,1.52-.35,1.69-1.04Z"/>
      <path class="cls-3" d="m47.32,109.17c.49,2.49,1.03,4.83-.95,6.62-.84.76-1.87,1.63-2.94.46-.8-.87-.27-1.83.36-2.62,1.17-1.47,3.48-2.01,3.53-4.46Z"/>
      <path class="cls-6" d="m46.84,201.95v.02s-.01-.02-.02-.03c.01,0,.01.01.02.01Z"/>
      <path class="cls-6" d="m46.84,201.95s-.01-.01-.02-.01c-.45-.64-.91-1.28-1.37-1.92,1.01.25,1.34,1,1.39,1.93Z"/>
      <path class="cls-2" d="m43.86,27.27c1.25,2.58,3.59,4.85,2.43,7.9-.22.57-.57,1.18-1.07,1.82-1.46,1.87-2.56,2.52-4.39,1.34-1.79-1.15-2.44-2.67-.41-4.4,1.22-1.04,1.95-2.33.68-3.88"/>
      <path class="cls-1" d="m45.66,132.89c-.31,1.37-.62,2.73-.93,4.09-.93-.17-1.71-.5-2.35-.94-1.93-1.34-2.68-3.7-3.02-5.84-.36-2.32,2.01-3.79,4.47-4.23.84,2.25-.82,5.15,1.83,6.92Z"/>
      <path class="cls-1" d="m45.52,124.14c.07.32.07.57.01.79-.17.69-.91.89-1.69,1.03.15-.88-.33-2.05,1.04-2.36.17-.04.59.32.64.54Z"/>
      <path class="cls-6" d="m44.73,136.98c4.14,2.11.37,4.67.4,7.01-3.23-.92-2.96-4.63-5.13-6.42-.11-.09-.22-.19-.33-.28l2.71-1.25c.64.44,1.42.77,2.35.94Z"/>
      <path class="cls-1" d="m45.13,143.99c-.03.38-.06.76-.1,1.13-3.26.04-1.79,6.08-6.09,4.82.18-1.02-1.12-1.97-.13-3.02.93-.67,1.06-1.26-.15-1.75-.32-.71-.65-1.42-.98-2.13.19-1.12.26-2.22-.76-3.03l-1.11-.99c.17-.92-.83-2.16.26-2.74,1.43-.76,2.52.12,3.6,1.01.11.09.22.19.33.28,2.17,1.79,1.9,5.5,5.13,6.42Z"/>
      <path class="cls-6" d="m42.49,168.13c2.33.54,2.94,2.67,2.07,4.3-1.42,2.64-2.55-.46-3.89-.7-.83-.75-1.56-1.95-2.16-3.39-.22-.53-.42-1.09-.61-1.67l2.11-.22c.31.95,1.25,1.4,2.48,1.68Z"/>
      <rect class="cls-1" x="43.83" y="125.96" width=".01" height="0"/>
      <path class="cls-5" d="m40.22,209.25c1.06.02,3.78-.34,3.01,1.2-.96,1.93-.9,2.8-.35,3.2l-2.75,1.11c-1.79-1.28-3.95-2.15-5.11-4.06-.08-.12-.39-.25-.42-.22l1.12-2.05c1.28.61,2.83.78,4.5.82Z"/>
      <path class="cls-5" d="m40.99,93.06c-.33.31-.66.63-.99.94-.91-.4-1.82-.79-2.88-1.24,1.58-1.36,2.75-.82,3.87.3Z"/>
      <path class="cls-2" d="m40.84,47.94s-.01.02-.02.03h-.03s.02-.02.04-.03h.01Z"/>
      <path class="cls-2" d="m40.83,47.94s-.03.02-.04.03h.03c-.98,1.43-1.88,3.62-3.41.36,1.06-.83,2.25-.52,3.42-.39Z"/>
      <path class="cls-5" d="m39.13,198.84c.24.63.51,1.34-.21,1.75-.36.2-1.26.18-1.34,0-.75-1.63-2.32-2.31-3.77-3.22-1.12-.71-2.19-1.55-2.74-3.07-.94-2.57-1-7.52-6.41-6.32-.13.03-.24-.01-.34-.1-.36-.33-.49-1.36-.46-2.02.14-2.5,5.99-9.86,8.49-10.68-.16-1.86-1.68-1.15-2.63-1.32-1.62-.27-2.23-1.42-2.5-2.73-.28-1.35.35-1.83,1.18-1.99.41-.09.88-.1,1.32-.1,2-.01,1.98-2,3.07-2.87.95,1.29.03,2.54-.05,3.81-1.13.25-2.61-.65-3.51,1.35,2.21.73,4.48,1.48,5.43,3.87,0,.23.05.45.14.66-.02,1.37-.03,2.74-.04,4.11-.01.24-.03.48-.05.72-1.71.8-2.6-1.03-4.33-1.37-.49,4.39.3,7.97,3.59,11.19,2.31,2.26,3.99,5.21,5.16,8.33Z"/>
      <path class="cls-6" d="m38.66,145.17c1.21.49,1.08,1.08.15,1.75-.05-.58-.1-1.17-.15-1.75Z"/>
      <path class="cls-3" d="m38.81,146.92c-.99,1.05.31,2,.13,3.02-.47,1.22-.86,2.47-1.41,3.66-1.37,2.99-1.02,8.69.37,13.07.19.58.39,1.14.61,1.67l-2.13.95c-1.51.28-2.57.49-3.64.69.08-1.27,1-2.52.05-3.81.87-3.21-.88-6.95-1.89-8.73-2.44-4.29-.73-7.54-.08-11.24.38-1.76-.6-3.48.09-5.32.45-1.19.51-2.21.31-3.15l1.95-.41c.17.72.95,1.31,2.64,1.7l1.11.99c-.9,1.3-.55,2.29.76,3.03.33.71.66,1.42.98,2.13.05.58.1,1.17.15,1.75Z"/>
      <path class="cls-2" d="m37.12,92.76c1.06.45,1.97.84,2.88,1.24-.82,2.97-4.46,4.56-4.01,8.16-.05.61-.11,1.2-.16,1.8-.92-.59-1.41-2.27-2.74-1.66-.57.26-.9.62-1.09,1.02l-1.02-.52c-.88-3.01-1.66-5.65-2.54-8.61l2.81-.96c.09.28.26.47.5.57.06.03.13.05.2.06.11.02.23.02.36.01.39-.03.93-.4,1.08-.76.31-.71-.12-1.3-.83-1.46-.1-.02-.19-.03-.28-.03l-.02-1.86c.74,0,1.52-.71,2.29-.55.28.64.56,1.29.84,1.93l1.73,1.62Z"/>
      <path class="cls-6" d="m36.92,140.01c1.02.81.95,1.91.76,3.03-1.31-.74-1.66-1.73-.76-3.03Z"/>
      <path class="cls-5" d="m35.99,102.16c.64.02,1.42.11,1.23.92-.09.38-.87.61-1.36.9-.01-.01-.02-.01-.03-.02.05-.6.11-1.19.16-1.8Z"/>
      <path class="cls-5" d="m37.02,109.62c1.08,2.3,1.94,5.34-1.18,7.33-.55-2.35-.94-5.08-3.29-.82-.25.45-.65.83-1.09,1.18-.22.17-.45.34-.68.51-.11.08-.23.17-.34.26-.11.08-.22.17-.32.26-2.25-.34-4.56-.58-5.2-3.39,4.16-2.3,4.85-6.17,1.86-10.35q3.44-.28,4.74,3.05c.69-1.28-.12-3.07.48-4.33.19-.4.52-.76,1.09-1.02,1.33-.61,1.82,1.07,2.74,1.66v.04s.02-.01.03-.02c-.02,1.96.25,3.71,1.16,5.64Z"/>
      <path class="cls-2" d="m36.92,228.83l-.23.24c-.11-.19-.22-.38-.32-.57.18.11.36.22.55.33Z"/>
      <path class="cls-1" d="m36.21,132.86c.38.87-.83,1.02-1.46,1.36-.12-.37-.24-.75-.37-1.12.59-.37,1.39-1.24,1.83-.24Z"/>
      <path class="cls-5" d="m33.04,215.15c1.38.82,3.49.97,3.03,3.14-.06.27-1.15.55-1.69.44-2.11-.43-1.31-2.16-1.34-3.58Z"/>
      <path class="cls-5" d="m35.86,103.98s-.02.01-.03.02v-.04s.02,0,.03.02Z"/>
      <path class="cls-5" d="m35.84,116.95s0,.02,0,.03l-.02-.02s.01,0,.01-.01Z"/>
      <polygon class="cls-5" points="35.85 116.98 35.59 117.24 35.83 116.96 35.85 116.98"/>
      <path class="cls-5" d="m35.72,208.43l-1.12,2.05c-3.68,3.78-4.65-1.39-7.1-2.18,2.42.12,3.07-2.71,4.95-3.26.13-.04.25-.06.39-.08.59,1.81,1.6,2.86,2.88,3.47Z"/>
      <path class="cls-5" d="m35.06,88.79c.6.72,1.22,1.43.33,2.35-.28-.64-.56-1.29-.84-1.93.17-.13.34-.27.51-.42Z"/>
      <path class="cls-2" d="m34.8,175.86c2.86,1.4,2.93,2.77-.04,4.11,0-1.37.02-2.74.04-4.11Z"/>
      <path class="cls-5" d="m35.6,52.84c-.13.26-.2.63-.4.72-.18.08-.5-.14-.76-.23.14-.25.22-.6.43-.72.14-.09.47.14.73.23Z"/>
      <path class="cls-5" d="m35.06,88.79c-.17.15-.34.29-.51.42-.77-.16-1.55.55-2.29.55-.3,0-.6-.12-.88-.46-.48-.58.19-1.16.76-1.51,1.36-.83,2.48-.89,2.92,1Z"/>
      <path class="cls-2" d="m36.38,169.29c-.63,2.16-1.17,4.04-1.72,5.91-.95-2.39-3.22-3.14-5.43-3.87.9-2,2.38-1.1,3.51-1.35,1.07-.2,2.13-.41,3.64-.69Z"/>
      <path class="cls-3" d="m34.38,133.1c.13.37.25.75.37,1.12-1.1,1.16-1.79,2.23-1.58,3.1l-1.95.41c-.49-2.31-2.55-4.11-4.27-6.7-.54,3.51-.87,5.7-1.2,7.9-3.29-2.65-1.52-5.87-1.02-8.94.65-.03,1.36.12,1.93-.1.68-.26,1.31-.43,1.9-.5,2.62-.37,4.5.97,5.82,3.71Z"/>
      <path class="cls-2" d="m33.81,197.37l-1.27,1.9c-1.67,0-.52,1.02-.46,1.62.08.75-.19,1.03-.56,1.11-.32.07-.71.01-1.06-.01-1.66-.11-3.26,0-4.87.3l-.31-1.57c.32-4.93-1.07-6.74-4.22-6.69l-.05-1.25c.44,0,.88-.17,1.32-.62,1.25-1.28.65-2.99-.12-4.09l2.11-.19c.1.09.21.13.34.1,5.41-1.2,5.47,3.75,6.41,6.32.55,1.52,1.62,2.36,2.74,3.07Z"/>
      <path class="cls-5" d="m33.44,204.34c.08.13.16.26.24.38-.28.08-.54.14-.81.21.19-.2.38-.39.57-.59Z"/>
      <path class="cls-5" d="m33.51,200.26c.23.81.13,2.18-.62,2.13-.18,0-.36,0-.53,0-.25.01-.49.05-.73.11l-.11-.5c.37-.08.64-.36.56-1.11-.06-.6-1.21-1.62.46-1.62h.05c.32,0,.8.59.92.99Z"/>
      <path class="cls-5" d="m32.56,91.65c.71.16,1.14.75.83,1.46-.15.36-.69.73-1.08.76-.13.01-.25.01-.36-.01-.07-.01-.14-.03-.2-.06-.24-.1-.41-.29-.5-.57-.02-.06-.04-.12-.04-.19-.02-.11-.03-.23-.02-.36.02-.08.05-.15.07-.22s.05-.14.09-.2c.07-.13.14-.24.23-.34.18-.19.41-.3.7-.3.09,0,.18.01.28.03Z"/>
      <path class="cls-2" d="m27.84,158.96c-1.94.23-2.79-.26-1.91-2.4,1.97-4.83,2.22-9.65-.45-14.35l.38-.27c3.38-.59,2.33,3.98,4.96,4.26-.65,3.7-2.36,6.95.08,11.24,1.01,1.78,2.76,5.52,1.89,8.73-1.09.87-1.07,2.86-3.07,2.87-.44,0-.91.01-1.32.1l-.44-2.41c.38,0,.72-.08,1-.3-1.48-2.33-1.06-4.93-1.12-7.47Z"/>
      <path class="cls-5" d="m32.87,204.93l-.03.03v-.02s.02-.01.03-.01Z"/>
      <path class="cls-5" d="m16.14,206.63c-.3-1.31-.33-2.53.7-3.63.73-.79,1.01-1.62.78-2.33l2.21-.11c.64,1.64,2.04,2.64,3.8,2.17.66-.17,1.31-.32,1.96-.44,1.61-.3,3.21-.41,4.87-.3.35.02.74.08,1.06.01l.11.5c-3.48.81-5.85,5.56-10.45,2.31,2.62,5.96,6.62,10.42,7.43,16.34"/>
      <path class="cls-5" d="m31.58,91.92c-.09.1-.16.21-.23.34.06-.13.14-.24.23-.34Z"/>
      <path class="cls-6" d="m31.22,137.73c.2.94.14,1.96-.31,3.15-.69,1.84.29,3.56-.09,5.32-2.63-.28-1.58-4.85-4.96-4.26-.03-1-.07-2.01-.11-3.01.33-2.2.66-4.39,1.2-7.9,1.72,2.59,3.78,4.39,4.27,6.7Z"/>
      <path class="cls-5" d="m31.26,92.46c-.02.07-.05.14-.07.22,0,.13,0,.25.02.36-.03-.12-.04-.24-.03-.37.02-.07.05-.15.08-.21Z"/>
      <path class="cls-2" d="m29.72,173.86c.95.17,2.47-.54,2.63,1.32-2.5.82-8.35,8.18-8.49,10.68-.03.66.1,1.69.46,2.02l-2.11.19c-.36-.49-.74-.86-1.01-1-2.09-1.08-1.82-.8-.42-2.63,2.88-3.75.6-6.7-3.44-8.87,1.91-.89,3.2-.76,4.37.29,1.48,1.32,3.09,1.56,4.36-.01,1.96-2.42-.86-1.75-1.69-2.52-1.85-1.72.18-3.81.09-5.78-.1-2.13,1.95-.82,3.49-.82l.44,2.41c-.83.16-1.46.64-1.18,1.99.27,1.31.88,2.46,2.5,2.73Z"/>
      <path class="cls-3" d="m30.37,125.29c.24.73,1.15,1.33-.07,1.98-.63.34-1.27.65-1.95.72-.43.06-.88,0-1.35-.21-1.03-.46-.53-1.31-.6-2.1-.17-1.95,2.4-4.71-1.51-5.65-.14-1.03.06-2.17-.99-2.89h0c-.04-.36-.07-.72-.1-1.07-.03-.36-.06-.71-.09-1.07l.19-.16c.34.04.68.07,1.02.11.64,2.81,2.95,3.05,5.2,3.39-.07.74-.15,1.47-.22,2.2,0,.62.01,1.23.01,1.85.14.97.15,1.98.46,2.9Z"/>
      <path class="cls-5" d="m29.9,120.54c.52.61.59,1.22.01,1.85,0-.62-.01-1.23-.01-1.85Z"/>
      <path class="cls-5" d="m28.44,94.19c.88,2.96,1.66,5.6,2.54,8.61-6.02-2.77-5.19-6.7-3.45-11.7.32,1.08.62,2.1.91,3.09Z"/>
      <path class="cls-6" d="m28.35,127.99l.21,1.4c-.59.07-1.22.24-1.9.5-.57.22-1.28.07-1.93.1-1.34-.13-1.82-1.1-2.14-2.22-.1-2.84-.8-5.85,2.3-7.74,3.91.94,1.34,3.7,1.51,5.65.07.79-.43,1.64.6,2.1.47.21.92.27,1.35.21Z"/>
      <path class="cls-5" d="m28.96,166.43c-.28.22-.62.3-1,.3-1.54,0-3.59-1.31-3.49.82.09,1.97-1.94,4.06-.09,5.78.83.77,3.65.1,1.69,2.52-1.27,1.57-2.88,1.33-4.36.01-1.17-1.05-2.46-1.18-4.37-.29,4.04,2.17,6.32,5.12,3.44,8.87-1.4,1.83-1.67,1.55.42,2.63.27.14.65.51,1.01,1,.77,1.1,1.37,2.81.12,4.09-.44.45-.88.62-1.32.62-1.05,0-2.08-1.01-3-1.69-2.13-1.57-5.49-2.62-2.47-6.28.42-.5-.11-1.62-.8-1.39-3.69,1.19-3.12-2.89-5.05-4.34-.03.1-.05.2-.06.29l-1.23-.38c.6-1.31,1.32-2.59,1.49-4h0c.05-.14.1-.25.15-.38-.07.1-.15.21-.22.31-.65,1.33-1.69,1.44-2.79,1.33l.2-2.1c-.1-.08-.2-.17-.3-.25.31-4.08,3.46-7.75,1.66-12.14-.17-.42-.14-.78.05-1.11.18-.3.49-.58.91-.84,1.22-.77,1.53-1.53,1.42-2.3l2.04-.09c.02.14.08.28.16.41.69,1.02,1.72.06,2.59.21.12.76-.16,1.7.72,2.13.16.08.91-.49.96-.82.17-1.07-.71-1.28-1.51-1.47-.13-1.04-.53-1.76-1.4-1.76l-.09-2.12c-.21-2.12-.35-3.54-.5-4.95.11-.1.21-.19.32-.28l1.91-.15c.25.51.66.87,1.49.8.53-.04,1.01-.68,1.51-1.04-1.63-1.1,1.03-3.43-.62-3.82-2.77-.65-2.26-3.47-3.92-4.68-2.16-1.57-2.19-3.14-.1-4.77.68-.52,1.34-1.09,1.04-2.04-.42-1.31-1.43-1.18-2.41-.76-1.6.69-2.02-.27-2.38-1.52-.23-.8-.06-1.2.34-1.47.28-.19.66-.32,1.09-.49,2.07-.81,3.86-2.41,6.96-1.27-1.97-4.36-.65-6.74,1.66-8.51.91-.7,1.98-1.31,3.07-1.91,1.05.72.85,1.86.99,2.89-3.1,1.89-2.4,4.9-2.3,7.74-2.22,2.8-2.56,11.41-1.09,14.13,1.43,2.66,2.67.27,3.98.31,2.67,4.7,2.42,9.52.45,14.35-.88,2.14-.03,2.63,1.91,2.4.06,2.54-.36,5.14,1.12,7.47Zm-8.36-12.79c.49.17.88-.08.83-.63-.02-.21-.33-.4-.51-.6-.26.19-.61.33-.64.52-.04.22.14.65.32.71Zm-.73,11.33c.38-.67-2.34-2-3.15-1.53-1.86,1.07.76,4.11,4.46,4.45q-1.99-1.72-1.31-2.92Z"/>
      <path class="cls-5" d="m27.5,208.3c-.22,0-.46-.03-.72-.1.25-.01.49.02.72.1Z"/>
      <path class="cls-2" d="m23.12,61.01c1.8,0,1.26-2.24,2.64-2.54"/>
      <path class="cls-2" d="m25.76,58.47c1.86,2.93,1.02,8.41-1.17,12.08-1.06,1.77-2.43,3.12-3.97,3.56-1.32.38-1.79,1.32-2.61,2.06l-.33-.32c.07-2.88,1.83-4.93,3.59-6.88,1.6-1.76,4.03-3.08.82-5.63-.36-.29-.57-.72-.57-1.13"/>
      <path class="cls-5" d="m10.84,76.21l1.91.95c-.34.71.28.77.71.76.68-.02,1.19-.38,1.3-1.08.02-.12.03-.24,0-.35l2.61-.02.63-.3c.82-.74,1.29-1.68,2.61-2.06,1.54-.44,2.91-1.79,3.97-3.56l1.28.35c-.63.95-.87,2.58-.75,3.74.42,4.18-2.22,6.57-4.64,9.25-2.56,2.85-5.71,4.3-9.42,3.91-2.42-.26-1.2,1.19-1.69,2.05-.45.79-.3,1.86-.25,2.87.04.88.01,1.73-.55,2.32-.36.38-.93.65-1.84.77"/>
      <path class="cls-5" d="m14.58,84.82c.98-.21,1.84-.63,1.78-1.81-.02-.27-.7-.77-.95-.7-.88.24-1.94.51-2.13,1.59-.16.91.66.86,1.3.92Z"/>
      <path class="cls-2" d="m25.75,138.93c.04,1,.08,2.01.11,3.01l-.38.27c-1.31-.04-2.55,2.35-3.98-.31-1.47-2.72-1.13-11.33,1.09-14.13.32,1.12.8,2.09,2.14,2.22-.5,3.07-2.27,6.29,1.02,8.94Z"/>
      <path class="cls-5" d="m25.67,108.25c1.26,2.7-1.27,4.38-1.77,6.59l-.19.16c-2.88-3.21-2.46-4.69,1.96-6.75Z"/>
      <path class="cls-2" d="m25.28,200.72l.31,1.57c-.65.12-1.3.27-1.96.44-1.76.47-3.16-.53-3.8-2.17-.08-.2-.15-.4-.2-.61-.23-.88.42-2.61-.65-2.57-3.2.11-3.18-1.47-2.89-3l1.57.18c3.8.81,5.43,2.91,7.62,6.16Z"/>
      <path class="cls-5" d="m21.06,194.03c3.15-.05,4.54,1.76,4.22,6.69-2.19-3.25-3.82-5.35-7.62-6.16,1.3-.33,2.43-.52,3.4-.53Z"/>
      <path class="cls-5" d="m24.2,101.83c.5,1.44-.93,1.87-2.12,2.01-3.41.42,1.1-3.88-2.27-3.84-.7.01.36-.63.7-.9,2.04-.14,3.18,1.23,3.69,2.73Z"/>
      <path class="cls-5" d="m23.9,117.13h0c-1.09.61-2.16,1.22-3.07,1.92.91-.71,1.98-1.32,3.06-1.92h0Z"/>
      <path class="cls-3" d="m23.8,116.07c.03.35.06.71.1,1.06h0c-.03-.35-.06-.71-.09-1.06Z"/>
      <path class="cls-5" d="m21.52,62.21c0,.41.21.84.57,1.13,3.21,2.55.78,3.87-.82,5.63-1.76,1.95-3.52,4-3.59,6.88-.1.21-.2.41-.3.62l-2.61.02c-.05-.31-.32-.56-1.23-.52-.11.15-.52.64-.79,1.19l-1.91-.95"/>
      <path class="cls-2" d="m21.43,153.01c.05.55-.34.8-.83.63-.18-.06-.36-.49-.32-.71.03-.19.38-.33.64-.52.18.2.49.39.51.6Z"/>
      <path class="cls-2" d="m8.78,195.35c.14-3.83.47-7.67-.96-11.37l.05-.05c2.54-.56,1.43-2.68,1.76-4.56.01-.09.03-.19.06-.29,1.93,1.45,1.36,5.53,5.05,4.34.69-.23,1.22.89.8,1.39-3.02,3.66.34,4.71,2.47,6.28.92.68,1.95,1.69,3,1.69l.05,1.25c-.97.01-2.1.2-3.4.53l-1.57-.18c.12-.6.27-1.2.3-1.68-1.98-1.6-3.99,4.77-5.16-.86-1.24,1.27-1.43,2.54-1.3,3.91"/>
      <path class="cls-2" d="m16.72,163.44c.81-.47,3.53.86,3.15,1.53q-.68,1.2,1.31,2.92c-3.7-.34-6.32-3.38-4.46-4.45Z"/>
      <path class="cls-5" d="m9.93,195.75c-.13-1.37.06-2.64,1.3-3.91,1.17,5.63,3.18-.74,5.16.86-.03.48-.18,1.08-.3,1.68-.29,1.53-.31,3.11,2.89,3,1.07-.04.42,1.69.65,2.57.05.21.12.41.2.61l-2.21.11c-.17-.49-.59-.93-1.27-1.25-1.51-.71-2.9-.17-3.24,1.71"/>
      <path class="cls-5" d="m19.8,92.34c0,.61-.34,1.21-1.17,1.14-.14-.08-.26-.16-.36-.27-.15-.14-.24-.3-.31-.48-.12-.39-.08-.83-.01-1.27.12-.75.67-1.19,1.26-.77.4.28.59,1.08.59,1.65Z"/>
      <path class="cls-2" d="m6.74,95.82c.91-.12,1.48-.4,1.83-.78.56-.59.59-1.44.55-2.32l2.35-.15c.04.33.11.68.11,1.02-.01,3.21.67,6.59-1.83,9.32-4.83,4.21-.85,8.95-1.85,14.33l.6,1.8c-1.89,3.82-2.05,7.52-2.44,12.37.88-1.02,1.72-1.97,2.42-2.91l2.64.82c-.4.27-.57.67-.34,1.47.36,1.25.78,2.21,2.38,1.52.98-.42,1.99-.55,2.41.76.3.95-.36,1.52-1.04,2.04-2.09,1.63-2.06,3.2.1,4.77,1.66,1.21,1.15,4.03,3.92,4.68,1.65.39-1.01,2.72.62,3.82-.5.36-.98,1-1.51,1.04-.83.07-1.24-.29-1.49-.8-.23-.46-.33-1.06-.53-1.55-1.71-4.24-5.25-4-9.12-3.9l-2.14-.49c.67-2.56-.39-2.6-2.62-1.64"/>
      <path class="cls-2" d="m10.37,141.29c.34-2.07-.51-3.41-1.56-4.78-.37,1.7-.42,3.4,1.56,4.78Z"/>
      <path class="cls-5" d="m17.96,92.73c.07.18.16.34.31.48-.15-.14-.25-.3-.31-.48Z"/>
      <path class="cls-2" d="m18.01,76.17l-.63.3c.1-.21.2-.41.3-.62l.33.32Z"/>
      <path class="cls-5" d="m17.86,96.04c.82,2.86-2.3-.02-2.93,1.68.68.96,1.5,2.13,2.31,3.3.63.93.61,1.91-.07,2.77-.75.96-1.61.98-2.49.07-1.37-1.4-3.15-.59-4.73-.82l-.2-.13c2.5-2.73,1.82-6.11,1.83-9.32,0-.34-.07-.69-.11-1.02-.07-.61-.01-1.15.88-1.43.98-.31,2.26-.38,2.77.46.92,1.5,2.33,3.04,2.74,4.44Z"/>
      <path class="cls-2" d="m13.11,201.13c.34-1.88,1.73-2.42,3.24-1.71.68.32,1.1.76,1.27,1.25.23.71-.05,1.54-.78,2.33-1.03,1.1-1,2.32-.7,3.63"/>
      <path class="cls-2" d="m15.93,157.88c.8.19,1.68.4,1.51,1.47-.05.33-.8.9-.96.82-.88-.43-.6-1.37-.72-2.13l.17-.16Z"/>
      <path class="cls-2" d="m16.36,83.01c.06,1.18-.8,1.6-1.78,1.81-.64-.06-1.46-.01-1.3-.92.19-1.08,1.25-1.35,2.13-1.59.25-.07.93.43.95.7Z"/>
      <path class="cls-5" d="m16.17,148.62l-1.91.15-.2-.2c-.09.1-.19.21-.28.32-1.19.38-3.29-.38-3.54,1.16l-2.24-.49c.1-2.19.3-4.27-1.48-6.39,3.87-.1,7.41-.34,9.12,3.9.2.49.3,1.09.53,1.55Z"/>
      <path class="cls-2" d="m15.93,157.88l-.17.16c-.87-.15-1.9.81-2.59-.21-.08-.13-.14-.27-.16-.41-.06-.46.2-.95.73-1.14.3-.11.56-.16.79-.16.87,0,1.27.72,1.4,1.76Z"/>
      <path class="cls-2" d="m14.77,76.49c.02.11.01.23,0,.35-.11.7-.62,1.06-1.3,1.08-.43,0-1.05-.05-.71-.76.27-.55.68-1.04.79-1.19.91-.04,1.18.21,1.23.52Z"/>
      <path class="cls-5" d="m14.44,154l.09,2.12c-.23,0-.49.05-.79.16-.53.19-.79.68-.73,1.14l-2.04.09c-.21-1.51-2.05-3.05-1.79-4.71.05-.36-.2-.51-.61-.51l1.89-.97c.68,1.07,2.59,1.36,3.98,2.68Z"/>
      <path class="cls-2" d="m14.26,148.77c-.11.09-.21.18-.32.28l-.16-.16c.09-.11.19-.22.28-.32l.2.2Z"/>
      <path class="cls-2" d="m13.94,149.05c.15,1.41.29,2.83.5,4.95-1.39-1.32-3.3-1.61-3.98-2.68-.16-.25-.25-.54-.25-.89,0-.14.01-.27.03-.38.25-1.54,2.35-.78,3.54-1.16l.16.16Z"/>
      <path class="cls-2" d="m5.12,153.58c.94-.61,2.57-1.29,3.45-1.29.41,0,.66.15.61.51-.26,1.66,1.58,3.2,1.79,4.71.11.77-.2,1.53-1.42,2.3-.42.26-.73.54-.91.84l-2.12-.21c-.18-.44-.39-.76-.62-.99l-.06-.06c-.1-.09-.2-.16-.31-.22-.84-.47-1.85,0-2.72-.01"/>
      <path class="cls-5" d="m9.95,103.04c2.36,2.18,2.96,7.88.57,10.06-1.15,1.06-.52,2.49-2.62,4.14,1-5.38-2.98-10.12,1.85-14.33l.2.13Z"/>
      <path class="cls-5" d="m1.76,141.04c2.23-.96,3.29-.92,2.62,1.64-.05.17-.1.36-.16.55-.95,3.06-.89,6.03,3.78,6.33l2.24.49c-.02.11-.03.24-.03.38,0,.35.09.64.25.89l-1.89.97c-.88,0-2.51.68-3.45,1.29"/>
      <path class="cls-5" d="m8.81,136.51c1.05,1.37,1.9,2.71,1.56,4.78-1.98-1.38-1.93-3.08-1.56-4.78Z"/>
      <path class="cls-2" d="m10.04,174.61c-.05.13-.1.24-.15.37-.02-.01-.07-.06-.07-.06.07-.1.15-.21.22-.31Z"/>
      <path class="cls-2" d="m3.02,177.05c.96-1.46,2.55-.94,4.01-.8,1.1.11,2.14,0,2.79-1.33,0,0,.05.05.07.06h0c-.17,1.42-.89,2.7-1.49,4.01-.7,1.53-1.23,3.1-.53,4.94l-.05.05c-.76-.02-1.51-.03-2.28-.04"/>
      <path class="cls-5" d="m8.4,178.99l1.23.38c-.33,1.88.78,4-1.76,4.56-.7-1.84-.17-3.41.53-4.94Z"/>
      <path class="cls-5" d="m8.5,119.04c3,3.88,2.12,6.59-.02,9.46-.7.94-1.54,1.89-2.42,2.91.39-4.85.55-8.55,2.44-12.37Z"/>
      <path class="cls-5" d="m5.54,183.94c.77.01,1.52.02,2.28.04,1.43,3.7,1.1,7.54.96,11.37"/>
      <path class="cls-2" d="m2.88,160.72c1.16-.09,2.32-.18,3.64-.28l2.12.21c-.19.33-.22.69-.05,1.11,1.8,4.39-1.35,8.06-1.66,12.14l-.12.12c-1.85-2.17-3.46,1.4-5.28.22"/>
      <path class="cls-2" d="m1.78,173.2c2.88-2.32-.96-6.49,2.83-8.4-1.89-1.32-3.25-.69-4.61-.03"/>
      <path class="cls-2" d="m6.52,143.17c1.78,2.12,1.58,4.2,1.48,6.39-4.67-.3-4.73-3.27-3.78-6.33.06-.19.11-.38.16-.55l2.14.49Z"/>
      <path class="cls-5" d="m1.53,174.24c1.82,1.18,3.43-2.39,5.28-.22.14.05.28.09.42.13l-.2,2.1c-1.46-.14-3.05-.66-4.01.8"/>
      <path class="cls-2" d="m7.23,174.15c-.14-.04-.28-.08-.42-.13l.12-.12c.1.08.2.17.3.25Z"/>
      <path class="cls-5" d="m6.73,95.81c.91-.12,1.48-.39,1.84-.77-.35.38-.92.66-1.83.78"/>
      <path class="cls-5" d="m2.81,159.17c.87,0,1.87-.46,2.72,0,.11.06.21.13.31.22l.06.06c.23.23.44.55.62.99-1.32.1-2.48.19-3.64.28"/>
      <path class="cls-5" d="m5.84,159.39l.06.06-.06-.06Z"/>
      <path class="cls-5" d="m2.81,159.16c.87.01,1.88-.46,2.72.01-.85-.46-1.85,0-2.72,0"/>
      <path class="cls-5" d="m0,164.77c1.36-.66,2.72-1.29,4.61.03-3.79,1.91.05,6.08-2.83,8.4"/>
    </g>
  </g>
</svg>