<?xml version="1.0" encoding="UTF-8"?>
<svg id="Calque_2" data-name="Calque 2" xmlns="http://www.w3.org/2000/svg" viewBox="0 0 63.78 38.2" preserveAspectRatio="none">
  <defs>
    <style>
      .cls-1 {
        fill: #cccbc6;
        stroke-width: 0px;
      }
    </style>
  </defs>
  <g id="oeil_bas" data-name="oeil bas">
    <g id="pupille_bas" data-name="pupille bas">
      <path class="cls-1" d="m62.5,31.01c2.01,1.64,1.47,3.46-.37,5.04-2.07,1.76-16.37,3.2-17.78,1.15-2.45-3.57-5.2-6.74-8.31-9.71-2.33-2.22-5.07-3.42-9.32-4.94,2.08,3.19,2.23,5.82,4.57,7.31,1.09.68,2.14,1.99.95,3.33-.99,1.12-2.54.9-3.72.29-1.91-1-4.08-1.91-5.43-3.46C16.74,22.74,5.79,20.77,1.51,11.13c-.59-1.33-2.02-2.36-1.32-4,.77-1.8,2.52-1.21,3.94-1.31,3.84-.28,6.38,2.44,9.35,4.13.97.55,1.67,1.9,2.99,1.28,1.43-.67,1.36-2.15,1.38-3.49.01-1.16.03-2.32.01-3.49C17.81.62,19.93-.17,23.08.03c5.19.33,8.94,2.97,11.9,7.03,1.5,2.05,3.11,3.94,6.01,3.85.47-.02,1.31.15,1.37.39,1.31,5.18,8.07,4.85,9.71,9.68.25.73,1,1.82,1.55,1.84,5.31.23,5.75,5.66,8.88,8.19Z"/>
    </g>
  </g>
</svg>