<?xml version="1.0" encoding="UTF-8"?>
<svg id="Calque_2" data-name="Calque 2" xmlns="http://www.w3.org/2000/svg" viewBox="0 0 59.05 96.29" preserveAspectRatio="none">
  <defs>
    <style>
      .cls-1 {
        fill: #cccbc6;
        stroke-width: 0px;
      }
    </style>
  </defs>
  <g id="oeil_droit" data-name="oeil droit">
    <g id="pupille_droite" data-name="pupille droite">
      <path class="cls-1" d="m54.9,72.93c5.35,5.36,4.26,11.44,3.59,17.78-.33,3.19-1.59,4.48-4.68,5.1-7.78,1.58-11.78-.67-12.44-7.46h.02c.07-.13.13-.25.21-.37-.09.11-.16.23-.23.34v.04c-4.97-.83-7.88-2.82-9.12-8.55-1.11-5.18-4.44-10.29-7.37-14.76-5.64-8.56-8.68-17.86-11.38-27.39C10.98,28.84,5.38,21.53,2.15,13.13,1.09,10.37.51,7.38.14,4.44-.22,1.44-.23-1.78,4.44,1.17c.73.46,2.25.6,2.88.16,3.3-2.28,4.78.3,7.54,1.36,7.59,2.93,7.77,9.97,10.63,15.11,8.2,14.72,14.79,30.34,25.87,43.37.68.81.98,2.23.91,3.33-.21,3.2.71,6.5,2.63,8.43Z"/>
    </g>
  </g>
</svg>