<?xml version="1.0" encoding="UTF-8"?>
<svg id="Calque_2" data-name="Calque 2" xmlns="http://www.w3.org/2000/svg" viewBox="0 0 33.72 67.36" preserveAspectRatio="none">
  <defs>
    <style>
      .cls-1 {
        fill: #cccbc6;
        stroke-width: 0px;
      }
    </style>
  </defs>
  <g id="oeil_haut" data-name="oeil haut">
    <g id="pupille_haut" data-name="pupille haut">
      <path class="cls-1" d="m28.08.63c5.99-1.25,6.29-1.19,5.06,5.36-1.06,5.66-2.69,11.24-4.47,16.73-.64,1.98.88,3.96-.41,5.64-4.65,6.07-7.5,12.72-6.96,20.53l-.06.02c-3.12.6-1.63,3.18-2.11,4.92-.31.64-.62,1.28-.94,1.93-.39.07-.7.19-.96.34-.12.08-.24.17-.34.26-.64.59-.72,1.53-.62,2.58h0c-.64.67-1.28,1.34-1.91,2-4.58-1.34-6.93,2.05-9.67,4.58-.74.69-.79,2.56-2.45,1.54-1.13-.7-1.17-1.96-.91-3.14.55-2.47,1.62-4.71,3.33-6.6,2.23-2.45,1.53-4.54-1.32-5.26-4.7-1.17-3.51-3.25-2.01-5.69.16-.26.32-.52.48-.79,7.6-12.68,14.96-25.5,21.4-38.83,1.31-1.67,2.62-3.33,3.93-5,.29-.32.58-.63.88-.95,0,0,.01-.04.03-.09.01-.04.03-.08.03-.08Z"/>
    </g>
  </g>
</svg>